<svg xmlns="http://www.w3.org/2000/svg" width="110" height="110" viewBox="0 0 110 110" fill="none">
    <path
        d="M0 55C0 85.3757 24.6243 110 55 110C85.3757 110 110 85.3757 110 55C110 24.6243 85.3757 0 55 0C24.6243 0 0 24.6243 0 55Z"
        fill="#0085FF" />
    <path opacity="0.5" fill-rule="evenodd" clip-rule="evenodd"
        d="M37.4617 44.8235L54.7566 54.8137L20.1667 74.7942V54.8137L37.4617 44.8235ZM72.0515 44.8235L89.3464 54.8137L54.7566 74.7942V54.8137L72.0515 44.8235ZM54.7566 34.8333V54.8137L37.4617 44.8235L54.7566 34.8333ZM89.3464 34.8333V54.8137L72.0515 44.8235L89.3464 34.8333Z"
        fill="white" />
    <path fill-rule="evenodd" clip-rule="evenodd"
        d="M37.4617 44.8235L54.7566 54.8137V74.7942L20.1667 54.8137L37.4617 44.8235ZM72.0515 44.8235L89.3464 54.8137V74.7942L54.7566 54.8137L72.0515 44.8235ZM20.1667 34.8333L37.4617 44.8235L20.1667 54.8137V34.8333ZM54.7566 34.8333L72.0515 44.8235L54.7566 54.8137V34.8333Z"
        fill="white" />
</svg>