<svg xmlns="http://www.w3.org/2000/svg" width="110" height="110" viewBox="0 0 110 110" fill="none">
    <rect width="110" height="110" rx="55" fill="white" />
    <path
        d="M54.5315 11C80.0669 11 99 28.7014 99 51.6641C99 52.2306 98.9882 52.7949 98.9648 53.3567C98.9883 53.9475 99 54.5402 99 55.1343C99 79.3589 79.5121 99 55.4685 99C29.9331 99 11 81.2986 11 58.3359C11 57.7704 11.0118 57.2071 11.0351 56.6463C11.0118 56.0544 11 55.4607 11 54.8657C11 30.6411 30.488 11 54.5315 11ZM54.0402 25.341C40.2432 25.2841 27.5303 32.0989 19.6863 43.326C16.5737 47.7797 14.3373 52.8011 13.1187 58.1391C13.1139 58.1599 13.0947 58.174 13.0735 58.1724C13.0487 58.1705 13.0274 58.1901 13.0274 58.215C13.0272 58.2553 13.0272 58.2956 13.0272 58.3359C13.0272 80.1474 31.0234 96.9728 55.4685 96.9728C72.3463 96.9728 86.8727 86.8168 93.359 72.235C88.6436 80.1874 81.2402 86.4843 72.1762 89.8103C68.2678 91.154 64.37 91.8356 60.396 91.8356C41.3032 91.8356 25.1726 76.213 25.1726 57.3284C25.1726 53.8098 25.7133 51.0064 27.1013 48.4264C27.2423 48.1644 27.3687 47.8939 27.4735 47.6154C31.5694 36.7353 42.0107 29.0006 54.2467 29.0006C55.8851 29.0006 57.4934 29.1328 59.0606 29.387C62.7216 29.981 66.2048 27.2057 62.6229 26.2436L62.2921 26.1572L62.0057 26.1006C59.4902 25.6098 57.2433 25.3704 54.3989 25.3433L54.0402 25.341ZM54.2467 31.0277C42.8332 31.0277 33.0968 38.276 29.3229 48.4575C29.3162 48.4755 29.3242 48.4958 29.3415 48.5043C29.3589 48.5128 29.3669 48.5333 29.3601 48.5514C28.8272 49.9806 28.666 51.0742 28.666 52.6492C28.666 67.2661 40.863 78.9723 55.7533 78.9723C67.1669 78.9723 76.9032 71.724 80.6771 61.5425C80.6838 61.5245 80.6758 61.5042 80.6585 61.4957C80.6411 61.4872 80.6331 61.4667 80.6399 61.4486C81.1728 60.0194 81.3341 58.9258 81.3341 57.3508C81.3341 42.7339 69.137 31.0277 54.2467 31.0277Z"
        fill="black" />
</svg>