<svg xmlns="http://www.w3.org/2000/svg" width="110" height="110" viewBox="0 0 110 110" fill="none">
    <path
        d="M0 55C0 85.3757 24.6243 110 55 110C85.3757 110 110 85.3757 110 55C110 24.6243 85.3757 0 55 0C24.6243 0 0 24.6243 0 55Z"
        fill="white" />
    <path opacity="0.3"
        d="M58.8337 28.1624C60.9512 26.045 60.9512 22.6119 58.8337 20.4944C56.7162 18.3769 53.2831 18.3769 51.1656 20.4944L20.4944 51.1661C18.3769 53.2835 18.3769 56.7166 20.4944 58.8335L35.83 74.1691V74.1697C37.9475 76.2872 41.38 76.2872 43.4975 74.1697L70.3355 47.3317L78.0037 54.9998L51.1656 81.8377C49.0481 83.9546 49.0481 87.3877 51.1656 89.5058C53.2831 91.6227 56.7162 91.6227 58.8337 89.5058L89.5049 58.8335C91.6224 56.7166 91.6224 53.2835 89.5049 51.1661L74.1693 35.8299C72.0518 33.713 68.6193 33.713 66.5018 35.8299L39.6637 62.6679L31.9956 54.9998L58.8337 28.1624Z"
        fill="url(#paint0_linear_3830_1224)" />
    <path
        d="M28.1625 51.1652C30.28 53.2827 30.28 56.7158 28.1625 58.8327C26.045 60.9508 22.6119 60.9508 20.4944 58.8327C18.3769 56.7158 18.3769 53.2827 20.4944 51.1652C22.6119 49.0471 26.045 49.0471 28.1625 51.1652Z"
        fill="url(#paint1_linear_3830_1224)" />
    <path
        d="M43.4982 35.831C45.6157 37.949 45.6157 41.3821 43.4982 43.499C41.3807 45.6165 37.9476 45.6165 35.8301 43.499C33.7126 41.3821 33.7126 37.949 35.8301 35.8316C37.9476 33.7135 41.3807 33.7135 43.4982 35.831Z"
        fill="url(#paint2_linear_3830_1224)" />
    <path
        d="M58.8336 20.4944C60.9511 22.6125 60.9511 26.0456 58.8336 28.1624C56.7161 30.2799 53.283 30.2799 51.1655 28.1624C49.048 26.0456 49.048 22.6125 51.1655 20.4944C53.283 18.3769 56.7161 18.3769 58.8336 20.4944Z"
        fill="url(#paint3_linear_3830_1224)" />
    <path
        d="M43.4982 66.501C45.6157 68.6184 45.6157 72.0515 43.4982 74.169C41.3807 76.2865 37.9476 76.2865 35.8301 74.169C33.7126 72.0515 33.7126 68.6184 35.8301 66.501C37.9476 64.3835 41.3807 64.3835 43.4982 66.501Z"
        fill="url(#paint4_linear_3830_1224)" />
    <path
        d="M58.8336 51.166C60.9511 53.2834 60.9511 56.7165 58.8336 58.8334C56.7161 60.9515 53.283 60.9515 51.1655 58.8334C49.048 56.7165 49.048 53.2834 51.1655 51.166C53.283 49.0479 56.7161 49.0479 58.8336 51.166Z"
        fill="url(#paint5_linear_3830_1224)" />
    <path
        d="M74.1735 35.8302C76.291 37.9483 76.291 41.3814 74.1735 43.4983C72.056 45.6158 68.6229 45.6158 66.5054 43.4983C64.3879 41.3814 64.3879 37.9483 66.5054 35.8308C68.6229 33.7127 72.056 33.7127 74.1735 35.8302Z"
        fill="url(#paint6_linear_3830_1224)" />
    <path
        d="M58.8336 81.8376C60.9511 83.9551 60.9511 87.3882 58.8336 89.5057C56.7161 91.6232 53.283 91.6232 51.1655 89.5057C49.048 87.3882 49.048 83.9551 51.1655 81.8376C53.283 79.7201 56.7161 79.7201 58.8336 81.8376Z"
        fill="url(#paint7_linear_3830_1224)" />
    <path
        d="M74.1735 66.5017C76.291 68.6192 76.291 72.0523 74.1735 74.1692C72.056 76.2873 68.6229 76.2873 66.5054 74.1698C64.3879 72.0523 64.3879 68.6192 66.5054 66.5017C68.6229 64.3842 72.056 64.3842 74.1735 66.5017Z"
        fill="url(#paint8_linear_3830_1224)" />
    <path
        d="M89.5045 51.166C91.622 53.2834 91.622 56.7165 89.5045 58.8334C87.387 60.9515 83.9539 60.9515 81.8364 58.8334C79.7189 56.7165 79.7189 53.2834 81.8364 51.166C83.9539 49.0479 87.387 49.0479 89.5045 51.166Z"
        fill="url(#paint9_linear_3830_1224)" />
    <defs>
        <linearGradient id="paint0_linear_3830_1224" x1="67.5103" y1="91.0935" x2="42.4887"
            y2="18.9063" gradientUnits="userSpaceOnUse">
            <stop stop-color="#FF99B9" />
            <stop offset="1" stop-color="#D030DD" />
        </linearGradient>
        <linearGradient id="paint1_linear_3830_1224" x1="26.2079" y1="60.4213" x2="22.4488"
            y2="49.5767" gradientUnits="userSpaceOnUse">
            <stop stop-color="#FF99B9" />
            <stop offset="1" stop-color="#D030DD" />
        </linearGradient>
        <linearGradient id="paint2_linear_3830_1224" x1="41.5436" y1="45.0872" x2="37.7848"
            y2="34.2429" gradientUnits="userSpaceOnUse">
            <stop stop-color="#FF99B9" />
            <stop offset="1" stop-color="#D030DD" />
        </linearGradient>
        <linearGradient id="paint3_linear_3830_1224" x1="56.879" y1="29.7506" x2="53.1202"
            y2="18.9062" gradientUnits="userSpaceOnUse">
            <stop stop-color="#FF99B9" />
            <stop offset="1" stop-color="#D030DD" />
        </linearGradient>
        <linearGradient id="paint4_linear_3830_1224" x1="41.5436" y1="75.7571" x2="37.7847"
            y2="64.9128" gradientUnits="userSpaceOnUse">
            <stop stop-color="#FF99B9" />
            <stop offset="1" stop-color="#D030DD" />
        </linearGradient>
        <linearGradient id="paint5_linear_3830_1224" x1="56.879" y1="60.422" x2="53.12" y2="49.5774"
            gradientUnits="userSpaceOnUse">
            <stop stop-color="#FF99B9" />
            <stop offset="1" stop-color="#D030DD" />
        </linearGradient>
        <linearGradient id="paint6_linear_3830_1224" x1="72.2188" y1="45.0864" x2="68.46"
            y2="34.2422" gradientUnits="userSpaceOnUse">
            <stop stop-color="#FF99B9" />
            <stop offset="1" stop-color="#D030DD" />
        </linearGradient>
        <linearGradient id="paint7_linear_3830_1224" x1="56.879" y1="91.0938" x2="53.1202"
            y2="80.2495" gradientUnits="userSpaceOnUse">
            <stop stop-color="#FF99B9" />
            <stop offset="1" stop-color="#D030DD" />
        </linearGradient>
        <linearGradient id="paint8_linear_3830_1224" x1="72.2188" y1="75.7578" x2="68.46"
            y2="64.9135" gradientUnits="userSpaceOnUse">
            <stop stop-color="#FF99B9" />
            <stop offset="1" stop-color="#D030DD" />
        </linearGradient>
        <linearGradient id="paint9_linear_3830_1224" x1="87.5499" y1="60.422" x2="83.7909"
            y2="49.5774" gradientUnits="userSpaceOnUse">
            <stop stop-color="#FF99B9" />
            <stop offset="1" stop-color="#D030DD" />
        </linearGradient>
    </defs>
</svg>