<svg xmlns="http://www.w3.org/2000/svg" width="150" height="31" viewBox="0 0 150 31" fill="none">
    <path fill-rule="evenodd" clip-rule="evenodd" d="M38.4227 16.797H49.2995C48.4724 13.9401 46.1978 12.6149 43.9232 12.6149C41.6899 12.6149 39.2911 13.9401 38.4227 16.797ZM44.13 30.75C41.0696 30.75 38.2985 29.4253 36.2719 27.1895C34.3284 25.1193 33.294 22.2624 33.294 19.2398C33.294 12.698 37.8849 7.81228 43.9232 7.81228C50.0028 7.81228 54.4282 12.6149 54.4282 19.2398C54.4282 20.5645 53.3525 21.6414 51.9881 21.6414H38.464C39.2911 24.1669 41.4414 25.9474 44.13 25.9474C46.239 25.9474 47.9345 25.3676 48.8859 23.6284C49.5887 22.4689 51.078 22.138 52.1944 22.8004C53.3525 23.5045 53.6836 24.9949 53.022 26.1126C51.1605 29.4666 47.9345 30.75 44.13 30.75Z" fill="white"/>
    <path fill-rule="evenodd" clip-rule="evenodd" d="M106.781 19.3019C106.781 15.4303 104.102 12.641 100.472 12.641C96.7992 12.641 94.1629 15.4303 94.1629 19.3019C94.1629 23.1319 96.7992 25.9208 100.472 25.9208C104.102 25.9208 106.781 23.1319 106.781 19.3019ZM111.794 17.1525V28.3354C111.794 29.6678 110.67 30.75 109.287 30.75C108.078 30.75 107.084 29.959 106.824 28.8768C105.01 30.0841 102.806 30.75 100.472 30.75C97.2744 30.75 94.3789 29.5427 92.2615 27.2947C90.2739 25.2133 89.1505 22.3409 89.1505 19.3019C89.1505 16.2214 90.2739 13.349 92.2615 11.2676C94.3789 9.01907 97.2744 7.81228 100.472 7.81228C102.806 7.81228 105.01 8.47822 106.824 9.68552C109.762 11.5152 111.794 15.0712 111.794 17.1525Z" fill="white"/>
    <path fill-rule="evenodd" clip-rule="evenodd" d="M127.282 28.0609C126.071 29.4169 124.299 30.222 122.439 30.222C118.937 30.222 116.083 27.4254 116.083 23.9938V11.7914C114.785 11.7492 113.704 10.6477 113.704 9.33395C113.704 8.02069 114.785 6.91927 116.083 6.87648V4.16543C116.083 2.80938 117.207 1.70743 118.634 1.70743C120.017 1.70743 121.142 2.80938 121.142 4.16543V6.87648H124.342C125.725 6.87648 126.85 7.97843 126.85 9.33395C126.85 10.69 125.725 11.7914 124.342 11.7914H121.142V23.9938C121.142 24.7138 121.704 25.307 122.439 25.307C122.958 25.307 123.304 25.0107 123.433 24.8411C124.342 23.8242 125.942 23.6969 126.979 24.587C128.06 25.4343 128.191 27.0022 127.282 28.0609Z" fill="white"/>
    <path fill-rule="evenodd" clip-rule="evenodd" d="M133.527 16.797H144.404C143.577 13.9401 141.302 12.6149 139.027 12.6149C136.794 12.6149 134.395 13.9401 133.527 16.797ZM139.234 30.75C136.174 30.75 133.402 29.4253 131.376 27.1895C129.432 25.1193 128.398 22.2624 128.398 19.2398C128.398 12.698 132.989 7.81228 139.027 7.81228C145.107 7.81228 149.532 12.6149 149.532 19.2398C149.532 20.5645 148.457 21.6414 147.092 21.6414H133.568C134.395 24.1669 136.545 25.9474 139.234 25.9474C141.343 25.9474 143.039 25.3676 143.99 23.6284C144.693 22.4689 146.183 22.138 147.299 22.8004C148.457 23.5045 148.788 24.9949 148.126 26.1126C146.265 29.4666 143.039 30.75 139.234 30.75Z" fill="white"/>
    <path fill-rule="evenodd" clip-rule="evenodd" d="M14.7312 0.25H3.01277C2.10251 0.25 1.28916 0.670313 0.751556 1.32976C0.692281 1.40338 0.635583 1.47961 0.583008 1.55845C0.267046 2.03202 0.0825195 2.60323 0.0825195 3.21777C0.0825195 4.79251 1.29483 6.07746 2.82412 6.17615L2.85505 6.20904H14.6755C19.4964 6.20904 23.4411 10.2049 23.4411 15.0889C23.4411 19.9728 19.4964 23.9692 14.6755 23.9692H7.16358C6.49764 23.9629 5.95901 23.4205 5.94715 22.7474H5.94303V23.9692L5.942 18.0566H14.8791C16.4904 18.0566 17.8094 16.7205 17.8094 15.0883C17.8094 13.4562 16.4904 12.1206 14.8791 12.1206H3.01277C3.00917 12.1206 3.00607 12.1211 3.00247 12.1211H2.92979C1.36389 12.1211 0.0825195 13.4191 0.0825195 15.0058V27.0435C0.0825195 28.6297 1.36389 29.9277 2.92979 29.9277H14.7312C22.788 29.9277 29.3799 23.2502 29.3799 15.0889C29.3799 6.92749 22.788 0.25 14.7312 0.25Z" fill="white"/>
    <path fill-rule="evenodd" clip-rule="evenodd" d="M6.11885 20.0457H6.12394C6.13856 19.2017 6.80497 18.5218 7.62843 18.5165H6.11885V20.0457Z" fill="white"/>
    <path fill-rule="evenodd" clip-rule="evenodd" d="M80.0936 20.0457H80.0898C80.0745 19.2017 79.4071 18.5218 78.584 18.5165H80.0936V20.0457Z" fill="white"/>
    <path fill-rule="evenodd" clip-rule="evenodd" d="M71.1824 0.252234H83.0176C83.9369 0.252234 84.7578 0.68416 85.3007 1.36183C85.3611 1.43748 85.4183 1.51582 85.4709 1.59684C85.79 2.0835 85.9764 2.67049 85.9764 3.30201C85.9764 4.92026 84.7525 6.24072 83.2076 6.34213L83.1769 6.37593H71.2392C66.37 6.37593 62.3863 10.4822 62.3863 15.5011C62.3863 20.5201 66.37 24.6268 71.2392 24.6268H78.8251C79.4976 24.6204 80.0421 24.0629 80.0541 23.3713H80.0583V24.6268L80.0588 18.5509H71.033C69.4058 18.5509 68.0743 17.1779 68.0743 15.5006C68.0743 13.8233 69.4058 12.4508 71.033 12.4508H83.0176C83.0207 12.4508 83.0243 12.4513 83.0275 12.4513H83.1009C84.6828 12.4513 85.9764 13.7852 85.9764 15.4158V27.7861C85.9764 29.4161 84.6828 30.75 83.1009 30.75H71.1824C63.0458 30.75 56.3885 23.888 56.3885 15.5011C56.3885 7.11423 63.0458 0.252234 71.1824 0.252234Z" fill="white"/>
  </svg>