<svg width="182" height="29" viewBox="0 0 182 29" fill="none" xmlns="http://www.w3.org/2000/svg">
  <path
    d="M18.5362 0.368164V11.5653H6.9677V0.368164H0.689941V28.6742H6.9677V17.3205H18.5362V28.6742H24.8139V0.368164H18.5362Z"
    fill="white" />
  <path
    d="M102.398 0.368164V11.5653H90.79V0.368164H84.5122V28.6742H90.79V17.3205H102.398V28.6742H108.676V0.368164H102.398Z"
    fill="white" />
  <path
    d="M42.6602 7.61108L46.4505 16.7332H38.7908L42.6602 7.61108ZM39.8174 0.133268L27.5382 28.6742H33.9345L36.5403 22.3318H48.6221L51.2279 28.6742H57.8216L45.5819 0.133268H39.8174Z"
    fill="white" />
  <path
    d="M58.295 24.5242L62.0064 20.1002C64.3359 22.2535 67.3761 23.4672 70.5347 23.5455C73.1011 23.5455 74.6409 22.5276 74.6409 20.8832V20.8049C74.6409 19.278 73.6933 18.4167 68.8764 17.203C63.1119 15.6762 59.4006 14.1493 59.4006 8.5507C59.4006 3.42194 63.5462 0.0158134 69.3897 0.0158134C73.2195 -0.0624883 76.9704 1.22949 80.0106 3.61769L76.7335 8.31579C74.6014 6.67146 71.9956 5.69269 69.3107 5.53609C66.9023 5.53609 65.6388 6.6323 65.6388 8.00258C65.6388 9.88182 66.8628 10.4691 71.7587 11.7219C77.5626 13.2488 80.8002 15.2846 80.8002 20.2177C80.8002 25.8554 76.4571 28.9874 70.3373 28.9874C65.8757 28.9874 61.5721 27.3823 58.2161 24.4068"
    fill="white" />
  <path
    d="M130.391 0.368164V28.6742H152.146V23.1148H136.629V17.1639H150.093V11.6045H136.629V5.88844H151.909V0.368164H130.391Z"
    fill="white" />
  <path
    d="M174.256 0.368164L167.307 11.7219L160.516 0.368164H153.172L164.148 17.5162V28.6742H170.426V17.3988L181.402 0.368164H174.256Z"
    fill="white" />
  <path d="M127.942 28.6742L114.795 15.637L110.412 19.9827L119.177 28.6742H127.942Z" fill="white" />
  <path
    d="M119.178 0.368164L114.716 4.75306L110.255 9.1771L114.716 13.562L119.178 9.1771L123.6 4.75306L128.061 0.368164H119.178Z"
    fill="white" />
</svg>
  