<svg fill="none" viewBox="0 0 688 135" xmlns="http://www.w3.org/2000/svg">
  <g fill="#fff">
    <path
      clip-rule="evenodd"
      d="m111.215 3.20361v64.29639l-111.215 64.296v-64.296zm111.216 0v64.29639l-111.216 64.296v-64.296z"
      fill-rule="evenodd"
      opacity=".6"/>
    <path
      clip-rule="evenodd"
      d="m0 3.20361 111.215 64.29639v64.296l-111.215-64.296zm111.215 0 111.216 64.29639v64.296l-111.216-64.296z"
      fill-rule="evenodd"/>
    <path d="m635.327 105.612 18.485-27.5192-18.069-26.6885h15.161l11.215 17.9654h.416l11.111-17.9654h14.123l-18.38 26.8962 18.484 27.3115h-15.161l-11.423-18.6923h-.416l-11.423 18.6923z"/>
    <path d="m605.541 106.858c-3.877 0-7.373-.657-10.489-1.973-3.046-1.315-5.676-3.219-7.892-5.7114-2.146-2.4923-3.808-5.4692-4.984-8.9308-1.177-3.5307-1.766-7.4769-1.766-11.8384 0-4.3616.589-8.2731 1.766-11.7347 1.176-3.4615 2.838-6.4038 4.984-8.8269 2.216-2.4923 4.846-4.3961 7.892-5.7115 3.116-1.3154 6.612-1.9731 10.489-1.9731s7.373.6577 10.488 1.9731c3.116 1.3154 5.747 3.2192 7.893 5.7115 2.215 2.4231 3.911 5.3654 5.088 8.8269 1.177 3.4616 1.766 7.3731 1.766 11.7347 0 4.3615-.589 8.3077-1.766 11.8384-1.177 3.4616-2.873 6.4385-5.088 8.9308-2.146 2.4924-4.777 4.3964-7.893 5.7114-3.115 1.316-6.611 1.973-10.488 1.973zm0-10.6959c3.531 0 6.3-1.0731 8.308-3.2193 2.007-2.1461 3.011-5.2961 3.011-9.45v-10.0731c0-4.0846-1.004-7.2-3.011-9.3461-2.008-2.1462-4.777-3.2192-8.308-3.2192-3.462 0-6.196 1.073-8.204 3.2192-2.008 2.1461-3.011 5.2615-3.011 9.3461v10.0731c0 4.1539 1.003 7.3039 3.011 9.45 2.008 2.1462 4.742 3.2193 8.204 3.2193z"/>
    <path d="m521.783 28.7646h13.293v31.5693h.415c.969-3.1154 2.804-5.5731 5.504-7.3731 2.7-1.8692 5.85-2.8038 9.45-2.8038 6.923 0 12.184 2.4576 15.784 7.373 3.67 4.8462 5.504 11.8039 5.504 20.8731 0 9.1385-1.834 16.1654-5.504 21.0808-3.6 4.9151-8.861 7.3731-15.784 7.3731-3.6 0-6.75-.935-9.45-2.804-2.631-1.869-4.466-4.3614-5.504-7.4768h-.415v9.0348h-13.293zm24.404 67.0847c3.462 0 6.265-1.1423 8.412-3.427 2.146-2.2846 3.219-5.3653 3.219-9.2423v-9.3461c0-3.8769-1.073-6.9577-3.219-9.2423-2.147-2.3539-4.95-3.5308-8.412-3.5308-3.185 0-5.85.7962-7.996 2.3885-2.077 1.5923-3.115 3.7038-3.115 6.3346v17.2384c0 2.8385 1.038 5.0193 3.115 6.5424 2.146 1.523 4.811 2.2846 7.996 2.2846z"/>
    <path d="m459.583 105.612 18.485-27.5192-18.07-26.6885h15.162l11.215 17.9654h.416l11.111-17.9654h14.123l-18.38 26.8962 18.484 27.3115h-15.161l-11.423-18.6923h-.416l-11.423 18.6923z"/>
    <path d="m443.239 43.5108c-2.77 0-4.777-.623-6.023-1.8692-1.177-1.2461-1.766-2.8385-1.766-4.7769v-2.0769c0-1.9385.589-3.5308 1.766-4.777 1.246-1.2461 3.253-1.8692 6.023-1.8692 2.7 0 4.673.6231 5.919 1.8692 1.246 1.2462 1.869 2.8385 1.869 4.777v2.0769c0 1.9384-.623 3.5308-1.869 4.7769-1.246 1.2462-3.219 1.8692-5.919 1.8692zm-6.646 7.8923h13.292v54.2079h-13.292z"/>
    <path d="m419.363 105.611c-4.57 0-7.927-1.142-10.073-3.427-2.147-2.2847-3.22-5.504-3.22-9.6578v-63.7616h13.293v66.2539h7.165v10.5925z"/>
    <path d="m370.075 106.858c-4.015 0-7.615-.657-10.8-1.973-3.115-1.384-5.78-3.288-7.996-5.7114-2.146-2.4923-3.807-5.4692-4.984-8.9308-1.177-3.5307-1.766-7.4769-1.766-11.8384 0-4.2923.554-8.1693 1.662-11.6308 1.177-3.4615 2.838-6.4039 4.984-8.8269 2.147-2.4923 4.777-4.3962 7.893-5.7116 3.115-1.3846 6.646-2.0769 10.592-2.0769 4.223 0 7.892.7269 11.008 2.1808 3.115 1.4538 5.677 3.4269 7.684 5.9192 2.008 2.4923 3.497 5.4 4.466 8.7231 1.038 3.2538 1.557 6.75 1.557 10.4884v4.3616h-36.034v1.35c0 3.9461 1.108 7.1307 3.323 9.5538 2.215 2.3539 5.504 3.5308 9.865 3.5308 3.323 0 6.023-.6923 8.1-2.0769 2.146-1.3846 4.05-3.15 5.712-5.2962l7.165 7.9962c-2.215 3.115-5.261 5.573-9.138 7.373-3.808 1.731-8.239 2.596-13.293 2.596zm-.207-46.7306c-3.531 0-6.335 1.177-8.412 3.5308s-3.115 5.4-3.115 9.1385v.8307h22.223v-.9346c0-3.7384-.935-6.75-2.804-9.0346-1.8-2.3538-4.431-3.5308-7.892-3.5308z"/>
    <path d="m318.28 74.975h-30.219v30.635h-13.707v-72.485h13.707v29.7h30.219v-29.7h13.708v72.485h-13.708z"/>
  </g>
</svg>
