<svg xmlns="http://www.w3.org/2000/svg" width="200" height="51" viewBox="0 0 200 51" fill="none">
    <path fill-rule="evenodd" clip-rule="evenodd" d="M3.92126 24.6378L0.829712 19.6907L31.8037 0.337402L34.8953 5.28455L18.0657 15.8001H13.931V18.3835L3.92126 24.6378ZM13.931 20.5512L4.89545 26.1969L7.987 31.144L20.9027 23.0739H13.931V20.5512ZM24.372 23.0739L16.721 27.8545H27.7302L35.3813 23.0739H24.372ZM38.063 21.3983V15.8001H36.0135L39.9352 13.3497L43.0268 18.2968L38.063 21.3983ZM16.0887 35.1283H13.931V29.5978L8.9613 32.703L12.0528 37.6501L16.0887 35.1283ZM19.5579 35.1283H30.5672L16.1186 44.1563L13.027 39.2091L19.5579 35.1283ZM38.063 30.4448V27.8545H31.1996L44.001 19.8558L47.0926 24.8029L38.063 30.4448ZM34.0366 35.1283H38.063V32.6125L48.0669 26.362L51.1584 31.3091L20.1844 50.6624L17.0929 45.7153L34.0366 35.1283ZM32.5441 15.8001H21.5349L35.8695 6.84354L38.9611 11.7907L32.5441 15.8001Z" fill="white"/>
    <path fill-rule="evenodd" clip-rule="evenodd" d="M146.778 7.50707C146.064 6.90864 145.119 6.60729 143.944 6.60729C142.768 6.60729 141.858 6.90864 141.129 7.50707C140.402 8.10765 140.036 8.90486 140.036 9.90083C140.036 10.8968 140.4 11.7325 141.129 12.3309C141.856 12.9315 142.794 13.2307 143.944 13.2307C145.094 13.2307 146.062 12.9315 146.778 12.3309C147.492 11.7325 147.851 10.9203 147.851 9.90083C147.851 8.88135 147.494 8.10765 146.778 7.50707ZM80.676 16.582C79.0558 15.6245 77.1727 15.1458 75.0289 15.1458C73.0112 15.1458 71.1815 15.6181 69.5336 16.5628C67.8877 17.5075 66.5219 18.8411 65.4361 20.5638L65.3785 20.6599V15.7207H58.9853V43.8216H65.3785V32.5347L65.4037 32.5775C65.4202 32.6059 65.4368 32.6344 65.4554 32.6629C66.5519 34.3856 67.9113 35.7192 69.5336 36.6639C71.1537 37.6086 72.9855 38.0808 75.0289 38.0808C77.1727 38.0808 79.0558 37.6021 80.676 36.6447C82.2962 35.6871 83.5659 34.347 84.485 32.6243C85.404 30.9018 85.8635 28.9055 85.8635 26.6336C85.8635 24.3618 85.404 22.3271 84.485 20.6044C83.5659 18.8817 82.2962 17.5416 80.676 16.5842V16.582ZM78.6091 29.9999C78.0854 30.9702 77.3652 31.7289 76.4461 32.2782C75.527 32.8274 74.4668 33.101 73.2677 33.101C72.0686 33.101 70.9315 32.8274 69.8606 32.2782C68.7876 31.7289 67.8514 30.9702 67.0456 29.9999C66.242 29.0296 65.6092 27.9075 65.1497 26.6314C65.6092 25.3555 66.2397 24.227 67.0456 23.2439C67.8493 22.2607 68.7876 21.4956 69.8606 20.9463C70.9337 20.3971 72.0686 20.1235 73.2677 20.1235C74.4668 20.1235 75.527 20.3971 76.4461 20.9463C77.3652 21.4956 78.0854 22.2607 78.6091 23.2439C79.1328 24.227 79.3936 25.3555 79.3936 26.6314C79.3936 27.9075 79.1306 29.0316 78.6091 29.9999ZM109.563 15.7206L109.563 15.7228H109.561L109.563 15.7206ZM109.563 15.7228L109.012 20.5422C107.918 18.8304 106.55 17.5031 104.91 16.5648C103.264 15.6202 101.42 15.1478 99.3785 15.1478C97.3372 15.1478 95.3837 15.6266 93.7506 16.584C92.1176 17.5416 90.8459 18.8817 89.9417 20.6044C89.0355 22.3269 88.5824 24.336 88.5824 26.6336C88.5824 28.9311 89.0355 30.9016 89.9417 32.6243C90.8481 34.347 92.1176 35.6871 93.7506 36.6445C95.3837 37.6021 97.2603 38.0808 99.3785 38.0808C101.497 38.0808 103.264 37.6084 104.91 36.6637C106.556 35.7212 107.92 34.3876 109.003 32.6671L109.561 37.5059H116.185L114.922 26.6336L116.185 15.7228H109.563ZM104.566 32.278C103.506 32.8274 102.377 33.101 101.178 33.101C99.9791 33.101 98.9189 32.8274 97.9998 32.278C97.0808 31.7289 96.3605 30.9701 95.8368 29.9997C95.3132 29.0294 95.0524 27.9073 95.0524 26.6314C95.0524 25.3555 95.3132 24.227 95.8368 23.2438C96.3605 22.2607 97.0808 21.4956 97.9998 20.9463C98.9189 20.3969 99.9769 20.1235 101.178 20.1235C102.379 20.1235 103.508 20.3969 104.566 20.9463C105.624 21.4956 106.562 22.2607 107.381 23.2438C108.197 24.227 108.837 25.3555 109.296 26.6314C108.837 27.9073 108.197 29.0316 107.381 29.9997C106.564 30.9701 105.626 31.7289 104.566 32.278ZM131.119 16.0456C132.19 15.4471 133.466 15.1458 134.947 15.1458V15.15C135.433 15.15 135.924 15.1821 136.422 15.2462C136.92 15.3082 137.386 15.3916 137.82 15.4942V21.0062C137.158 20.8544 136.493 20.739 135.83 20.6621C135.165 20.5852 134.541 20.5467 133.953 20.5467C132.677 20.5467 131.527 20.8138 130.508 21.3503C129.486 21.8847 128.683 22.716 128.095 23.8381C127.507 24.9602 127.214 26.3771 127.214 28.0869V37.5059H120.821V22.8806L119.442 15.7207H125.913L126.883 21.5725C127.274 20.4205 127.787 19.3947 128.42 18.4948C129.146 17.4625 130.046 16.6462 131.119 16.0456ZM140.768 37.5038V15.4898L143.946 16.1033L147.163 15.4898V37.5038H140.768ZM165.425 33.0239C163.689 33.0239 162.472 32.6863 161.769 32.0088C161.066 31.3333 160.715 30.1515 160.715 28.4673V20.5422H170.362V15.7184H160.715V9.97558H157.038L154.319 16.2163L149.762 17.7104V20.5422H154.319V29.3862C154.319 31.1218 154.657 32.6413 155.334 33.943C156.01 35.2445 157.057 36.2598 158.474 36.9864C159.891 37.7131 161.734 38.0764 164.007 38.0764C165.307 38.0764 166.57 37.9418 167.795 37.6746C169.021 37.4076 170.004 37.119 170.743 36.8133V31.8356C169.978 32.2181 169.175 32.5131 168.33 32.7162C167.487 32.9214 166.517 33.0217 165.421 33.0217L165.425 33.0239ZM185.893 32.0986L193.068 15.7207L193.064 15.7164H199.842L188.97 38.4955C188.306 39.9254 187.502 41.073 186.559 41.9408C185.613 42.8085 184.585 43.4348 183.476 43.8172C182.366 44.1999 181.21 44.3922 180.011 44.3922C178.581 44.3922 177.292 44.2128 176.144 43.8558C174.994 43.4988 173.909 42.9752 172.89 42.287V37.6919C173.962 38.3821 174.981 38.8802 175.952 39.1858C176.922 39.4915 177.995 39.6453 179.168 39.6453C180.216 39.6453 181.148 39.4102 181.964 38.9379C182.781 38.4655 183.457 37.6299 183.993 36.431L184.127 36.1252H181.389L171.779 15.7207H178.825L185.893 32.0986Z" fill="white"/>
  </svg>