<svg xmlns="http://www.w3.org/2000/svg" width="199" height="47" viewBox="0 0 199 47" fill="none">
    <path fill-rule="evenodd" clip-rule="evenodd" d="M178.585 6.67644C171.98 6.6492 166.142 9.98105 162.608 15.0392C161.177 17.0868 160.123 19.4227 159.55 21.9432C159.518 21.4806 159.501 21.0135 159.501 20.5425C159.501 9.79658 168.144 1.08529 178.807 1.08529C190.391 1.08529 198.537 9.14573 198.537 19.0888C198.537 26.8305 193.599 33.4309 186.669 35.9741C184.984 36.5531 183.263 36.8686 181.469 36.8686C173.136 36.8686 165.936 30.0598 165.936 21.6607C165.936 20.2178 166.136 18.8217 166.952 17.4991C166.646 18.3149 166.602 18.9204 166.602 19.5361C166.602 26.5148 172.437 31.9484 179.361 31.9484C186.285 31.9484 191.899 26.2911 191.899 19.3124C191.899 13.4024 187.873 8.44007 182.435 7.05886C181.326 6.83545 180.193 6.68174 178.585 6.67644Z" fill="white"/>
    <path fill-rule="evenodd" clip-rule="evenodd" d="M160.526 17.7168C161.014 16.6849 161.585 15.7014 162.232 14.7755C165.847 9.60152 171.824 6.18838 178.588 6.21615M160.526 17.7168C161.981 12.1467 166.133 7.64718 171.526 5.6665C173.166 5.10344 174.835 4.79846 176.571 4.79846C179.923 4.79846 183.083 5.93288 185.636 7.83953C184.675 7.30509 183.64 6.88958 182.55 6.61273L182.527 6.60764C181.393 6.37908 180.229 6.22158 178.588 6.21615M191.59 23.7666C192.377 22.3971 192.565 20.9678 192.565 19.5462C192.565 10.8791 185.145 3.87801 176.571 3.87801C174.722 3.87801 172.951 4.20357 171.223 4.7976L171.214 4.80077C167.161 6.28798 163.771 9.12964 161.607 12.7714C164.554 6.15299 171.149 1.54545 178.808 1.54545C190.168 1.54545 198.079 9.42851 198.079 19.0887C198.079 19.114 198.079 19.1393 198.079 19.1645L198.042 19.1617C197.482 21.623 196.454 23.9042 195.056 25.9041C191.603 30.8463 185.902 34.0968 179.458 34.0702C177.889 34.0651 176.788 33.9162 175.708 33.6992C170.864 32.4639 167.183 28.2757 166.665 23.1428C168.28 28.5685 173.445 32.4086 179.363 32.4086C184.991 32.4086 189.781 28.8053 191.59 23.7666ZM191.378 18.064C190.859 12.9311 187.178 8.7429 182.334 7.50767C181.255 7.29066 180.154 7.14176 178.585 7.13659C172.141 7.11002 166.44 10.3605 162.987 15.3027C161.589 17.3025 160.56 19.5838 160.001 22.0452L159.964 22.0423C159.964 22.0676 159.964 22.0928 159.964 22.1181C159.964 31.7783 167.875 39.6614 179.234 39.6614C186.894 39.6614 193.489 35.0538 196.436 28.4354C194.272 32.0772 190.882 34.9188 186.829 36.406L186.82 36.4093C185.092 37.0033 183.321 37.3288 181.471 37.3288C172.897 37.3288 165.478 30.3277 165.478 21.6607C165.478 20.239 165.666 18.8097 166.453 17.4402C168.262 12.4016 173.051 8.79822 178.68 8.79822C184.597 8.79822 189.763 12.6383 191.378 18.064ZM167.357 17.6474C169.067 13.0156 173.493 9.71867 178.68 9.71867C185.368 9.71867 190.979 14.9639 190.979 21.6708C190.979 22.2528 190.939 22.7988 190.658 23.546L190.685 23.5594C188.975 28.1912 184.549 31.4881 179.363 31.4881C172.675 31.4881 167.064 26.2429 167.064 19.536C167.064 18.9541 167.104 18.408 167.385 17.6608L167.357 17.6474ZM172.407 33.3673C174.96 35.2739 178.12 36.4084 181.471 36.4084C183.208 36.4084 184.877 36.1034 186.516 35.5403C191.909 33.5596 196.061 29.0602 197.516 23.49C197.029 24.5219 196.457 25.5054 195.81 26.4313C192.195 31.6053 186.219 35.0186 179.454 34.9907C177.813 34.9852 176.649 34.8277 175.515 34.5992L175.493 34.5941C174.403 34.3172 173.368 33.9017 172.407 33.3673ZM198.984 19.8515C198.994 19.5985 198.999 19.3442 198.999 19.0887C198.999 8.86282 190.617 0.625 178.808 0.625C167.889 0.625 159.043 9.54574 159.043 20.5424C159.043 20.8147 159.048 21.0857 159.059 21.3553C159.048 21.6083 159.043 21.8626 159.043 22.1181C159.043 32.344 167.425 40.5818 179.234 40.5818C190.154 40.5818 199 31.6611 199 20.6644C199 20.3921 198.995 20.1211 198.984 19.8515Z" fill="white"/>
    <path d="M-0.000366211 36.365V3.91226H11.061C14.0473 3.91226 16.4088 4.72738 18.1457 6.35764C19.8827 7.98789 20.7511 10.159 20.7511 12.871C20.7511 15.2479 20.0426 17.1981 18.6257 18.7217C17.2087 20.2453 15.2357 21.1899 12.7065 21.5556L25.2305 36.365H19.8827L7.40434 21.6013H4.25049V36.365H-0.000366211ZM4.25049 17.8075H10.5582C12.4475 17.8075 13.9101 17.3885 14.9462 16.5505C15.9822 15.7126 16.5003 14.4861 16.5003 12.871C16.5003 11.256 15.9822 10.0143 14.9462 9.14583C13.9101 8.27738 12.4475 7.84315 10.5582 7.84315H4.25049V17.8075Z" fill="white"/>
    <path d="M32.4059 6.609C31.8879 7.12703 31.2327 7.38604 30.4405 7.38604C29.6482 7.38604 28.9778 7.11941 28.4293 6.58615C27.8808 6.05289 27.6066 5.39012 27.6066 4.59785C27.6066 3.83605 27.8808 3.1809 28.4293 2.6324C28.9778 2.08391 29.6482 1.80966 30.4405 1.80966C31.2327 1.80966 31.8879 2.08391 32.4059 2.6324C32.9239 3.1809 33.183 3.83605 33.183 4.59785C33.183 5.39012 32.9239 6.06051 32.4059 6.609ZM28.4293 36.365V13.5109H32.3602V36.365H28.4293Z" fill="white"/>
    <path d="M39.8086 36.3649V13.5109H43.7395V17.0304C45.2936 14.3793 47.7161 13.0538 51.0071 13.0538C53.5972 13.0538 55.6846 13.8918 57.2691 15.5678C58.8537 17.2437 59.6459 19.4834 59.6459 22.2868V36.3649H55.7608V22.881C55.7608 20.9613 55.2732 19.4453 54.2981 18.3331C53.323 17.2209 52.0127 16.6647 50.3672 16.6647C48.4779 16.6647 46.901 17.4113 45.6364 18.9044C44.3718 20.3976 43.7395 22.4392 43.7395 25.0293V36.3649H39.8086Z" fill="white"/>
    <path d="M76.787 46.375C73.7703 46.375 71.264 45.636 69.268 44.1582C67.2721 42.6803 66.0913 40.7834 65.7257 38.4675H69.5651C70.5707 41.4233 73.0085 42.9012 76.8784 42.9012C79.0419 42.9012 80.7865 42.2079 82.112 40.8215C83.4375 39.435 84.1003 37.4924 84.1003 34.9937V32.2969C83.2776 33.5158 82.1653 34.4909 80.7636 35.2222C79.3619 35.9536 77.8231 36.3192 76.1471 36.3192C72.9475 36.3192 70.2812 35.1994 68.1482 32.9597C66.0151 30.72 64.9486 27.9546 64.9486 24.6637C64.9486 21.4032 66.0228 18.653 68.171 16.4134C70.3193 14.1737 72.978 13.0538 76.1471 13.0538C77.8231 13.0538 79.3619 13.4195 80.7636 14.1508C82.1653 14.8821 83.2776 15.842 84.1003 17.0304V13.5109H88.0312V34.948C88.0312 38.6046 86.9723 41.4233 84.8545 43.404C82.7367 45.3847 80.0475 46.375 76.787 46.375ZM71.1192 30.4229C72.5514 31.916 74.4102 32.6626 76.6956 32.6626C78.981 32.6626 80.8398 31.9084 82.272 30.4C83.7042 28.8917 84.4203 26.9795 84.4203 24.6637C84.4203 22.3478 83.6965 20.4357 82.2491 18.9273C80.8017 17.4189 78.9505 16.6647 76.6956 16.6647C74.4407 16.6647 72.5895 17.4189 71.1421 18.9273C69.6946 20.4357 68.9709 22.3478 68.9709 24.6637C68.9709 26.9795 69.687 28.8993 71.1192 30.4229Z" fill="white"/>
    <path d="M96.0298 36.365V3.91226H105.354C110.321 3.91226 114.443 5.4511 117.718 8.52877C120.994 11.6065 122.632 15.4764 122.632 20.1386C122.632 24.8008 120.994 28.6708 117.718 31.7485C114.443 34.8262 110.321 36.365 105.354 36.365H96.0298ZM100.281 32.3884H105.354C109.224 32.3884 112.355 31.2381 114.747 28.9374C117.139 26.6368 118.335 23.7039 118.335 20.1386C118.335 16.5734 117.139 13.6405 114.747 11.3398C112.355 9.03918 109.224 7.88886 105.354 7.88886H100.281V32.3884Z" fill="white"/>
    <path d="M124.964 36.365L139.316 3.91226H142.836L157.234 36.365H152.8L148.595 26.9034H133.465L129.352 36.365H124.964ZM141.007 9.67147L135.157 23.0639H146.904L141.007 9.67147Z" fill="white"/>
  </svg>