<svg xmlns="http://www.w3.org/2000/svg" width="87" height="47" viewBox="0 0 87 47" fill="none">
    <path d="M11.832 0.625C17.4416 0.625 21.1656 4.18282 22.8155 7.41295L18.2429 10.0813C16.4988 7.50657 14.6132 6.05535 11.832 6.05535C9.19218 6.05535 7.3066 7.6002 7.3066 9.70681C7.3066 11.7198 8.53225 12.8901 11.3606 13.92L13.6233 14.7626C20.6471 17.2438 23.7111 20.2867 23.7111 24.968C23.7111 31.3346 17.6302 34.6583 12.0205 34.6583C6.12812 34.6583 1.50846 31.1942 0 26.6065L4.76109 24.1254C5.93957 26.7469 8.15509 29.0876 12.0205 29.0876C14.9432 29.0876 17.3002 27.6831 17.3002 25.0616C17.3002 22.3932 15.6031 21.2229 11.9263 19.8653L9.80501 19.1163C4.90248 17.3374 1.17849 14.9031 1.17849 9.47276C1.17849 4.32326 5.93957 0.625 11.832 0.625ZM50.109 1.18676H56.2844V33.9561H51.5706L34.3646 12.3752V33.9561H28.1894V1.18676H32.9504L50.109 22.8146V1.18676ZM86.7364 1.18676L70.615 28.6663H86.925V33.9561H60.7624L76.8843 6.42988H61.6585V1.18676H86.7364Z" fill="white"/>
    <path d="M5.03157 45.2107C5.11535 45.1857 5.19072 45.1608 5.24935 45.1441L5.49223 45.9426C5.4336 45.9592 5.3666 45.9758 5.29119 46.0008C4.95621 46.1089 4.45373 46.2752 3.91775 46.3417C3.75025 46.3668 3.59113 46.375 3.44039 46.375C2.94627 46.375 2.54428 46.267 2.23442 46.0424C1.75705 45.7014 1.52256 45.1275 1.52256 44.3457V42.8736C1.52256 42.0918 1.75705 41.518 2.23442 41.177C2.64478 40.8859 3.20589 40.7778 3.91775 40.8776C4.45373 40.9441 4.95621 41.1105 5.29119 41.2186C5.3666 41.2435 5.4336 41.2602 5.49223 41.2768L5.24935 42.0752C5.19072 42.0586 5.11535 42.0336 5.03157 42.0087C4.73011 41.9089 4.26949 41.7592 3.80887 41.701C3.32314 41.6344 2.95465 41.6844 2.72853 41.8507C2.48566 42.0253 2.36004 42.3746 2.36004 42.8736V44.3457C2.36004 44.8447 2.48566 45.1941 2.72853 45.3687C2.95465 45.535 3.32314 45.585 3.80887 45.5184C4.26949 45.4602 4.73011 45.3105 5.03157 45.2107ZM10.4166 41.6677C10.8018 42.1418 11.0028 42.7988 11.0028 43.6222C11.0028 44.4455 10.8018 45.1026 10.4166 45.5766C10.2072 45.8345 9.93923 46.0258 9.62935 46.1588C9.31947 46.292 8.96775 46.3586 8.57414 46.3586C8.18052 46.3586 7.82875 46.292 7.51892 46.1588C7.20904 46.0258 6.94106 45.8345 6.7317 45.5766C6.34645 45.1026 6.14546 44.4455 6.14546 43.6222C6.14546 42.7988 6.34645 42.1418 6.7317 41.6677C6.94106 41.4099 7.20904 41.2103 7.51892 41.0772C7.82875 40.9441 8.18052 40.8776 8.57414 40.8776C8.96775 40.8776 9.31947 40.9441 9.62935 41.0772C9.93923 41.2103 10.2072 41.4099 10.4166 41.6677ZM9.77171 45.0527C10.0313 44.7366 10.1653 44.2376 10.1653 43.6222C10.1653 42.9984 10.0313 42.5077 9.77171 42.1917C9.51209 41.8756 9.11011 41.7093 8.57414 41.7093C8.04653 41.7093 7.6445 41.8756 7.38493 42.1917C7.12531 42.5077 6.9829 42.9984 6.9829 43.6222C6.9829 44.2376 7.12531 44.7366 7.38493 45.0527C7.6445 45.3687 8.04653 45.5267 8.57414 45.5267C9.11011 45.5267 9.51209 45.3687 9.77171 45.0527ZM15.0646 40.9608H15.9021V46.2834H14.9641L12.6694 42.4329V46.2834H11.8319V40.9608H12.7699L15.0646 44.8198V40.9608ZM20.2151 40.9608H21.0525V46.2834H20.1146L17.8199 42.4329V46.2834H16.9824V40.9608H17.9204L20.2151 44.8198V40.9608ZM23.0457 45.4436H25.3153V46.2752H22.2083V40.9608H25.1227V41.7925H23.0457V43.0234H24.9719V43.8551H23.0457V45.4436ZM29.6283 45.2107C29.7121 45.1857 29.7875 45.1608 29.8461 45.1441L30.0889 45.9426C30.0303 45.9592 29.9633 45.9758 29.8879 46.0008C29.5529 46.1089 29.0504 46.2752 28.5145 46.3417C28.347 46.3668 28.1878 46.375 28.0371 46.375C27.543 46.375 27.141 46.267 26.8311 46.0424C26.3538 45.7014 26.1193 45.1275 26.1193 44.3457V42.8736C26.1193 42.0918 26.3538 41.518 26.8311 41.177C27.2415 40.8859 27.8026 40.7778 28.5145 40.8776C29.0504 40.9441 29.5529 41.1105 29.8879 41.2186C29.9633 41.2435 30.0303 41.2602 30.0889 41.2768L29.8461 42.0752C29.7875 42.0586 29.7121 42.0336 29.6283 42.0087C29.3268 41.9089 28.8662 41.7592 28.4056 41.701C27.9199 41.6344 27.5514 41.6844 27.3253 41.8507C27.0824 42.0253 26.9567 42.3746 26.9567 42.8736V44.3457C26.9567 44.8447 27.0824 45.1941 27.3253 45.3687C27.5514 45.535 27.9199 45.585 28.4056 45.5184C28.8662 45.4602 29.3268 45.3105 29.6283 45.2107ZM34.1758 40.9608V41.7925H32.8694V46.2834H32.0319V41.7925H30.7338V40.9608H34.1758ZM40.6663 40.9608V41.7925H39.3598V46.2834H38.5224V41.7925H37.2243V40.9608H40.6663ZM45.4901 41.6677C45.8754 42.1418 46.0764 42.7988 46.0764 43.6222C46.0764 44.4455 45.8754 45.1026 45.4901 45.5766C45.2808 45.8345 45.0128 46.0258 44.7029 46.1588C44.3931 46.292 44.0413 46.3586 43.6477 46.3586C43.2541 46.3586 42.9024 46.292 42.5925 46.1588C42.2826 46.0258 42.0146 45.8345 41.8053 45.5766C41.42 45.1026 41.219 44.4455 41.219 43.6222C41.219 42.7988 41.42 42.1418 41.8053 41.6677C42.0146 41.4099 42.2826 41.2103 42.5925 41.0772C42.9024 40.9441 43.2541 40.8776 43.6477 40.8776C44.0413 40.8776 44.3931 40.9441 44.7029 41.0772C45.0128 41.2103 45.2808 41.4099 45.4901 41.6677ZM44.8453 45.0527C45.1049 44.7366 45.2389 44.2376 45.2389 43.6222C45.2389 42.9984 45.1049 42.5077 44.8453 42.1917C44.5857 41.8756 44.1837 41.7093 43.6477 41.7093C43.1201 41.7093 42.7181 41.8756 42.4585 42.1917C42.1989 42.5077 42.0565 42.9984 42.0565 43.6222C42.0565 44.2376 42.1989 44.7366 42.4585 45.0527C42.7181 45.3687 43.1201 45.5267 43.6477 45.5267C44.1837 45.5267 44.5857 45.3687 44.8453 45.0527ZM50.3222 45.4436H52.592V46.2752H49.4849V40.9608H52.3992V41.7925H50.3222V43.0234H52.2484V43.8551H50.3222V45.4436ZM54.0993 46.2834H53.2536L53.8061 40.9608H55.1798L56.21 45.061L57.2401 40.9608H58.6134L59.1664 46.2834H58.3202L57.868 41.8673L56.6955 46.2834H55.724L54.5603 41.8673L54.0993 46.2834ZM63.5547 41.4431C63.9149 41.7675 64.1155 42.2332 64.1155 42.7322C64.1155 43.2396 63.9149 43.697 63.5547 44.0297C63.3868 44.1794 63.1945 44.3042 62.9767 44.3873C62.7673 44.4622 62.5412 44.5037 62.3151 44.5037H60.8577V46.2834H60.0204V40.9608H62.3151C62.5412 40.9608 62.7673 41.0023 62.9767 41.0855C63.1945 41.1687 63.3868 41.2851 63.5547 41.4431ZM62.3151 43.6721C62.7756 43.6721 63.2782 43.3477 63.2782 42.7322C63.2782 42.1168 62.7756 41.7925 62.3151 41.7925H60.8577V43.6721H62.3151ZM68.9648 41.6677C69.35 42.1418 69.5511 42.7988 69.5511 43.6222C69.5511 44.4455 69.35 45.1026 68.9648 45.5766C68.7554 45.8345 68.4872 46.0258 68.1774 46.1588C67.8676 46.292 67.5158 46.3586 67.1223 46.3586C66.7284 46.3586 66.377 46.292 66.0672 46.1588C65.7569 46.0258 65.4892 45.8345 65.2798 45.5766C64.8946 45.1026 64.6935 44.4455 64.6935 43.6222C64.6935 42.7988 64.8946 42.1418 65.2798 41.6677C65.4892 41.4099 65.7569 41.2103 66.0672 41.0772C66.377 40.9441 66.7284 40.8776 67.1223 40.8776C67.5158 40.8776 67.8676 40.9441 68.1774 41.0772C68.4872 41.2103 68.7554 41.4099 68.9648 41.6677ZM68.3198 45.0527C68.5792 44.7366 68.7133 44.2376 68.7133 43.6222C68.7133 42.9984 68.5792 42.5077 68.3198 42.1917C68.06 41.8756 67.6582 41.7093 67.1223 41.7093C66.5947 41.7093 66.1925 41.8756 65.9331 42.1917C65.6732 42.5077 65.5308 42.9984 65.5308 43.6222C65.5308 44.2376 65.6732 44.7366 65.9331 45.0527C66.1925 45.3687 66.5947 45.5267 67.1223 45.5267C67.6582 45.5267 68.06 45.3687 68.3198 45.0527ZM76.0081 40.9691H76.8538C76.8954 41.6344 76.8288 42.2998 76.6609 42.9901C76.4603 43.7802 76.1588 44.4622 75.8906 45.061C75.6895 45.5267 75.5055 45.9343 75.4218 46.2834H74.2909C74.2155 45.9509 74.0902 45.56 73.9478 45.1109C73.8054 44.6618 73.6546 44.1711 73.5122 43.6388C73.3698 44.2043 73.2024 44.7117 73.0517 45.1774C72.9176 45.6016 72.7919 45.9675 72.7165 46.2834H71.611C71.519 45.9343 71.3433 45.5267 71.1338 45.061C70.8656 44.4622 70.5642 43.7802 70.3718 42.9901C70.1957 42.2998 70.1286 41.6344 70.1707 40.9691H71.0164C70.9077 42.4827 71.4519 43.7137 71.9041 44.7283C71.9878 44.9196 72.0632 45.0942 72.1385 45.2772C72.1723 45.1608 72.2139 45.0443 72.256 44.9196C72.6078 43.8384 73.0346 42.516 73.085 40.9691H73.9311C73.9811 42.4329 74.4083 43.7719 74.7518 44.8614C74.7934 45.0111 74.8438 45.1525 74.8855 45.2855C74.9608 45.1026 75.0362 44.9196 75.1287 44.7283C75.5725 43.7137 76.1251 42.4827 76.0081 40.9691ZM78.6292 45.4436H80.8985V46.2752H77.7919V40.9608H80.7062V41.7925H78.6292V43.0234H80.5555V43.8551H78.6292V45.4436ZM84.9355 46.2834C84.9017 45.535 84.4246 45.0693 83.7379 44.5037H82.582V46.2834H81.7447V40.9691H84.0394C84.2738 40.9691 84.4916 41.0107 84.7094 41.0855C84.9188 41.1687 85.1195 41.2935 85.2785 41.4431C85.6387 41.7758 85.8399 42.2332 85.8399 42.7322C85.8399 43.2396 85.6387 43.697 85.2785 44.0214C85.1449 44.1544 84.9854 44.2542 84.818 44.3374C84.9604 44.4788 85.0945 44.6202 85.2203 44.7865C85.5717 45.2356 85.7478 45.718 85.7728 46.2501V46.2834H84.9355ZM82.582 43.6721H84.0394C84.5082 43.6721 85.0025 43.3394 85.0025 42.7322C85.0025 42.1251 84.5082 41.8008 84.0394 41.8008H82.582V43.6721Z" fill="white"/>
  </svg>