<svg xmlns="http://www.w3.org/2000/svg" width="145" height="61" viewBox="0 0 145 61" fill="none">
    <path d="M31.1836 19.7671V15.2578C31.1836 13.6208 30.1897 12.1692 28.6678 11.5205L0.559814 0V2.50178L25.6241 12.7868C26.4937 13.1266 26.4937 14.362 25.6241 14.7018L0.559814 24.9868V35.0248L15.6542 28.8167L25.593 32.8936C26.4627 33.2334 26.4627 34.4689 25.593 34.8086L0.559814 45.0936V61L28.6678 49.4793C30.1897 48.862 31.1836 47.3792 31.1836 45.7422V35.3954C31.1836 33.7585 30.1897 32.3068 28.6678 31.6582L18.698 27.5813L28.6678 23.5043C30.1897 22.8866 31.1836 21.404 31.1836 19.7671Z" fill="white"/>
    <path d="M53.5761 15.2578L55.8123 23.9367L58.3278 15.2578H60.7194L63.0801 23.9367L65.4094 15.2578H67.1799L64.1673 25.7281H61.9306L59.4464 16.7094L56.8681 25.7281H54.601L51.6816 15.2578H53.5761Z" fill="white"/>
    <path fill-rule="evenodd" clip-rule="evenodd" d="M70.3154 22.8556C70.036 22.2997 69.9428 21.8673 69.8806 21.0025V20.9716H77.9557C77.9557 17.08 76.2166 14.9179 73.0177 14.9179C70.0051 14.9179 67.9861 17.1418 67.9861 20.4465C67.9861 23.844 70.0051 26.006 73.1731 26.006C75.7196 26.006 77.4278 24.7397 77.9249 22.485H75.9681C75.5642 23.8132 74.6328 24.4926 73.204 24.4926C72.0236 24.4926 70.8433 23.844 70.3154 22.8556ZM73.0177 16.4622C74.0427 16.4622 75.0363 16.9564 75.5333 17.7904C75.8127 18.2228 75.9372 18.6551 76.0303 19.5818H69.912C70.1291 17.5742 71.2472 16.4622 73.0177 16.4622Z" fill="white"/>
    <path fill-rule="evenodd" clip-rule="evenodd" d="M79.7277 11.2735H81.5291V16.833C82.2746 15.5975 83.2996 15.0107 84.7902 15.0107C87.3989 15.0107 89.2626 17.2654 89.2626 20.5084C89.2626 23.7514 87.4921 25.9444 84.8211 25.9444C83.3613 25.9444 82.3986 25.3575 81.4668 23.9985V25.7282H79.7277V11.2735ZM81.5599 20.4466C81.5599 22.7322 82.8643 24.4309 84.5726 24.4309C86.2191 24.4309 87.3058 22.8866 87.3058 20.5084C87.3058 18.0066 86.2191 16.4623 84.5108 16.4623C82.8025 16.4623 81.5599 18.0993 81.5599 20.4466Z" fill="white"/>
    <path d="M95.536 24.3692C93.6723 24.3692 92.4925 23.1646 92.5234 21.3114H90.5357C90.5048 24.0911 92.5234 26.0061 95.5051 26.0061C98.3623 26.0061 100.381 24.3382 100.381 21.9908C100.381 20.2613 99.4495 19.0876 97.7104 18.6552C99.1388 18.2846 100.195 16.9256 100.195 15.4431C100.195 13.2192 98.3001 11.675 95.5982 11.675C92.6787 11.675 90.9082 13.3428 90.7842 16.2152H92.7096C92.7719 14.362 93.7968 13.3119 95.5673 13.3119C97.2134 13.3119 98.3001 14.2076 98.3001 15.5975C98.3001 17.08 97.182 17.9139 95.2566 17.9139H94.7904V19.52C95.0703 19.4892 95.2257 19.4892 95.412 19.4892C97.2751 19.4892 98.4246 20.3848 98.4246 21.8674C98.4246 23.319 97.2134 24.3692 95.536 24.3692Z" fill="white"/>
    <path d="M53.6711 36.847H51.7765V35.3954H53.6711C53.7019 33.6658 53.7333 33.2951 53.9818 32.6774C54.3544 31.689 55.3171 31.164 56.7459 31.164C56.9302 31.164 57.1013 31.1774 57.3302 31.1955C57.4484 31.2048 57.5812 31.2153 57.74 31.2258V32.8318C57.6346 32.802 57.5444 32.7794 57.4636 32.7622C57.3312 32.7341 57.2243 32.7206 57.1229 32.7142C57.0297 32.7083 56.9405 32.7083 56.8391 32.7083C56.218 32.7083 55.7519 33.0172 55.597 33.5731C55.4725 33.9438 55.4725 34.2217 55.4725 35.3645H57.74V36.8161H55.4725V45.8349H53.6711V36.847Z" fill="white"/>
    <path fill-rule="evenodd" clip-rule="evenodd" d="M63.2065 46.1747C66.3123 46.1747 68.3313 43.9818 68.3313 40.6152C68.3313 37.3413 66.2814 35.1175 63.2688 35.0866C60.1939 35.0866 58.144 37.2795 58.144 40.5843C58.144 43.92 60.163 46.1747 63.2065 46.1747ZM63.1756 44.6613C61.2497 44.6613 60.1008 43.0861 60.1008 40.5225C60.1008 38.1134 61.2811 36.6 63.2065 36.6C65.1324 36.6 66.3745 38.1752 66.3745 40.6461C66.3745 43.0861 65.1011 44.6613 63.1756 44.6613Z" fill="white"/>
    <path d="M73.9208 46.113C75.2962 46.113 76.4697 45.5979 77.0266 44.7329V45.8968H78.7662V35.4264H76.9648V40.4299C76.9648 42.2831 76.9025 42.8699 76.5918 43.3641C76.0952 44.1362 75.2252 44.5996 74.2316 44.5996C72.7096 44.5996 71.964 43.673 71.964 41.6962V35.3955H70.1626V41.3565C70.1626 43.1171 70.2871 43.8274 70.691 44.5069C71.3121 45.5261 72.4611 46.113 73.9208 46.113Z" fill="white"/>
    <path d="M85.9091 35.1793C84.4802 35.1793 83.5175 35.6117 82.7102 36.6618V35.4264H81.002V45.8968H82.8342V40.8932C82.8342 39.0091 82.8965 38.4532 83.2068 37.959C83.7038 37.156 84.5425 36.6927 85.5675 36.6927C87.0894 36.6927 87.8345 37.5884 87.8345 39.596V45.8968H89.6673V39.9357C89.6673 38.1752 89.5428 37.4648 89.1394 36.7854C88.5178 35.7661 87.3688 35.1793 85.9091 35.1793Z" fill="white"/>
    <path fill-rule="evenodd" clip-rule="evenodd" d="M99.265 45.835V44.1363C98.3332 45.5261 97.3391 46.0821 95.9108 46.0821C93.2707 46.0821 91.4693 43.8892 91.4693 40.677C91.4693 37.4031 93.3016 35.1484 95.9417 35.1484C97.4323 35.1484 98.4572 35.7353 99.2028 36.9707V31.4112H101.004V45.835H99.265ZM93.4261 40.677C93.4261 43.0553 94.4819 44.5996 96.1588 44.5996C97.8671 44.5996 99.1719 42.9008 99.1719 40.6153C99.1719 38.2679 97.9602 36.631 96.2524 36.631C94.5442 36.631 93.4261 38.1753 93.4261 40.677Z" fill="white"/>
    <path fill-rule="evenodd" clip-rule="evenodd" d="M109.95 44.5686C110.012 45.1246 110.043 45.3099 110.136 45.8658H111.969C111.689 44.7231 111.596 43.6112 111.627 41.5109C111.658 38.1752 111.565 37.4031 111.006 36.6309C110.323 35.6117 109.08 35.0866 107.496 35.0866C106.223 35.0866 105.043 35.4882 104.297 36.1676C103.614 36.7544 103.365 37.4031 103.179 38.7003H105.074C105.167 37.2795 105.944 36.6 107.496 36.6C108.304 36.6 108.956 36.8471 109.329 37.2486C109.701 37.6501 109.764 38.0517 109.794 39.4106C108.615 39.5033 107.931 39.596 107.341 39.6886C106.409 39.8122 105.602 39.9666 105.105 40.121C103.552 40.5843 102.776 41.5418 102.776 42.9317C102.776 44.8157 104.297 46.1129 106.565 46.1129C108.024 46.1129 109.049 45.6496 109.95 44.5686ZM106.844 44.6613C105.54 44.6613 104.732 44.0436 104.732 42.9934C104.732 41.6345 106.037 41.0785 109.794 40.8314V41.202C109.794 42.3757 109.67 42.9934 109.36 43.4567C108.832 44.2598 107.962 44.6613 106.844 44.6613Z" fill="white"/>
    <path d="M116.376 35.4263H118.737V36.8779H116.376V42.4683C116.376 43.642 116.407 43.8582 116.594 44.1053C116.78 44.3524 117.215 44.5068 117.712 44.5068C118.084 44.5068 118.426 44.445 118.737 44.3524V45.8967C117.898 46.0511 117.587 46.082 117.153 46.082C116.19 46.082 115.351 45.6496 114.916 44.9392C114.668 44.476 114.575 44.0435 114.575 43.0243V36.8471H112.649V35.3954H114.575V32.8628H116.376V35.4263Z" fill="white"/>
    <path d="M122.156 31.442H120.354V33.5422H122.156V31.442Z" fill="white"/>
    <path d="M122.183 45.8968V35.4264H120.382V45.8968H122.183Z" fill="white"/>
    <path fill-rule="evenodd" clip-rule="evenodd" d="M134.175 40.6152C134.175 43.9818 132.156 46.1747 129.05 46.1747C126.006 46.1747 123.987 43.92 123.987 40.5843C123.987 37.2795 126.037 35.0866 129.112 35.0866C132.125 35.1175 134.175 37.3413 134.175 40.6152ZM125.944 40.5225C125.944 43.0861 127.093 44.6613 129.019 44.6613C130.944 44.6613 132.218 43.0861 132.218 40.6461C132.218 38.1752 130.975 36.6 129.05 36.6C127.124 36.6 125.944 38.1134 125.944 40.5225Z" fill="white"/>
    <path d="M137.777 36.5827C138.572 35.5899 139.522 35.1793 140.914 35.1793C142.374 35.1793 143.523 35.7661 144.144 36.7854C144.548 37.4648 144.672 38.1752 144.672 39.9357V45.8968H142.871V39.596C142.871 37.5884 142.125 36.6927 140.604 36.6927C139.579 36.6927 138.74 37.156 138.243 37.959C137.932 38.4532 137.871 39.0091 137.871 40.8932V45.8968H136.069V35.4264H137.777V36.5827Z" fill="white"/>
  </svg>