<svg width="2560" height="254" viewBox="0 0 2560 254" fill="none" xmlns="http://www.w3.org/2000/svg">
    <path
        d="M2571.5 435.041C2571.5 375.757 2535.7 319.044 2470.42 267.246C2405.15 215.461 2310.62 168.759 2193.67 129.51C1959.78 51.0185 1636.57 2.44421 1279.5 2.44421C922.427 2.44421 599.221 51.0185 365.335 129.51C248.384 168.759 153.849 215.461 88.582 267.246C23.2994 319.044 -12.5 375.757 -12.5 435.041C-12.5 494.326 23.2994 551.038 88.582 602.837C153.849 654.622 248.384 701.324 365.335 740.572C599.221 819.064 922.427 867.639 1279.5 867.639C1636.57 867.639 1959.78 819.064 2193.67 740.572C2310.62 701.324 2405.15 654.622 2470.42 602.837C2535.7 551.038 2571.5 494.326 2571.5 435.041Z"
        stroke="url(#paint0_linear_4043_26)" stroke-width="3" />
    <defs>
        <linearGradient id="paint0_linear_4043_26" x1="1480" y1="312.883" x2="1480" y2="0.944243"
            gradientUnits="userSpaceOnUse">
            <stop stop-opacity="0" />
            <stop offset="0.851184" stop-color="#FF3682" />
            <stop offset="0.954798" stop-color="#0025DF" />
        </linearGradient>
    </defs>
</svg>
    