<svg width="171" height="26" viewBox="0 0 171 26" fill="none" xmlns="http://www.w3.org/2000/svg">
<path fill-rule="evenodd" clip-rule="evenodd" d="M3.0009 0C4.6587 0 6.00212 1.34322 6.00212 3.00007C6.00212 4.65692 4.6587 5.99982 3.0009 5.99982C1.34341 5.99982 0 4.65692 0 3.00007C0 1.34322 1.34341 0 3.0009 0ZM3.00107 1.00002C1.8963 1.00002 1.00058 1.89539 1.00058 3.00007C1.00058 4.10441 1.8963 5.00011 3.00107 5.00011C4.10617 5.00011 5.00188 4.10441 5.00188 3.00007C5.00188 1.89539 4.10617 1.00002 3.00107 1.00002ZM16.0062 3.00017C16.0062 4.45095 14.9757 5.66141 13.6064 5.93973V10.0601C14.7819 10.299 15.7076 11.2249 15.9462 12.4001H20.0808C20.3496 11.309 21.3349 10.4999 22.5092 10.4999C23.8906 10.4999 25.01 11.6192 25.01 13.0001C25.01 14.3807 23.8906 15.5 22.5092 15.5C21.3349 15.5 20.3496 14.6909 20.0808 13.6H15.9461C15.7075 14.7752 14.7818 15.701 13.6064 15.9399V20.0604C14.7819 20.2992 15.7076 21.2248 15.9462 22.4H20.0808C20.3497 21.3092 21.335 20.5001 22.5092 20.5001C23.8906 20.5001 25.01 21.6194 25.01 23C25.01 24.3806 23.8906 25.4999 22.5092 25.4999C21.3349 25.4999 20.3496 24.6908 20.0808 23.5999H15.9461C15.6681 24.9693 14.4572 26 13.0053 26C11.3478 26 10.0044 24.6568 10.0044 22.9999C10.0044 21.5481 11.0359 20.3373 12.4063 20.0599V15.9403C11.2298 15.7021 10.3032 14.7759 10.0644 13.6H5.94252C5.70393 14.7751 4.7783 15.7009 3.60276 15.9398V20.0604C4.97224 20.3387 6.00255 21.549 6.00255 22.9999C6.00255 24.6568 4.65914 26 3.00133 26C1.34385 26 0.000434875 24.6568 0.000434875 22.9999C0.000434875 21.5481 1.03194 20.3373 2.4024 20.0599V15.9403C1.03194 15.6628 0.000434875 14.4518 0.000434875 13C0.000434875 11.3432 1.34385 9.99993 3.00133 9.99993C4.45359 9.99993 5.66458 11.0307 5.94256 12.4001H10.0644C10.3031 11.2242 11.2298 10.2979 12.4063 10.0597V5.94017C11.0359 5.66269 10.0044 4.45171 10.0044 3.00017C10.0044 1.343 11.3478 0.000102997 13.0053 0.000102997C14.6628 0.000102997 16.0062 1.343 16.0062 3.00017ZM163.038 20.9573C167.337 20.9573 170.961 17.3761 170.961 13.0786H163.038V15.2695H168.053C167.252 17.2918 165.356 18.7243 163.038 18.7243C159.919 18.7243 157.6 16.1964 157.6 13.0786C157.6 9.96089 159.919 7.43298 163.038 7.43298C164.639 7.43298 165.988 8.06495 166.957 9.11825L168.643 7.43298C167.252 6.08476 165.356 5.19999 163.038 5.19999C158.696 5.19999 155.072 8.73906 155.072 13.0786C155.072 17.7553 158.359 20.9573 163.038 20.9573ZM58.6507 20.7466V7.60152H64.2985V5.41067H50.5583V7.60152H56.2061V20.7466H58.6507ZM41.8275 20.7466V5.41067H39.3408V20.7466H41.8275ZM86.5164 18.5558V20.7466H73.029V5.41067H86.5164V7.60152H75.5158V11.9832H86.3478V14.1741H75.5158V18.5558H86.5164ZM98.2811 20.7466V14.1741H103.929L106.669 20.7466H109.24L106.416 13.9213C108.144 13.2893 109.24 11.6462 109.24 9.79237C109.24 7.39086 107.469 5.41067 104.814 5.41067H95.7943V20.7466H98.2811ZM98.2792 11.9833H104.559C105.866 11.9833 106.751 11.0985 106.751 9.7924C106.751 8.48632 105.866 7.60155 104.559 7.60155H98.2792V11.9833ZM120.708 20.7466V5.41067H118.221V20.7466H120.708ZM132.726 9.07614V20.7466H130.239V5.41067H132.347L143.39 17.0812V5.41067H145.876V20.7466H143.769L132.726 9.07614Z" fill="white"/>
</svg>
