<svg width="143" height="61" viewBox="0 0 143 61" fill="none" xmlns="http://www.w3.org/2000/svg">
<g opacity="0.8">
<path d="M30.2279 19.5986V15.1277C30.2279 13.5047 29.2469 12.0654 27.7447 11.4223L0 0V2.48045L24.7403 12.6778C25.5987 13.0147 25.5987 14.2396 24.7403 14.5765L0 24.7738V34.7262L14.8993 28.5711L24.7096 32.6132C25.568 32.9501 25.568 34.175 24.7096 34.5119L0 44.7092V60.48L27.7447 49.0575C29.2469 48.4454 30.2279 46.9753 30.2279 45.3523V35.0937C30.2279 33.4707 29.2469 32.0314 27.7447 31.3883L17.9037 27.3462L27.7447 23.304C29.2469 22.6915 30.2279 21.2216 30.2279 19.5986Z" fill="black"/>
<path d="M52.331 15.1277L54.5383 23.7327L57.0213 15.1277H59.382L61.7122 23.7327L64.0114 15.1277H65.759L62.7853 25.5088H60.5775L58.1254 16.5669L55.5804 25.5088H53.3427L50.4609 15.1277H52.331Z" fill="black"/>
<path fill-rule="evenodd" clip-rule="evenodd" d="M68.8558 22.6608C68.5801 22.1096 68.4881 21.6809 68.4267 20.8235V20.7928H76.3975C76.3975 16.9344 74.6808 14.7908 71.5233 14.7908C68.5496 14.7908 66.5566 16.9956 66.5566 20.2722C66.5566 23.6407 68.5496 25.7843 71.6766 25.7843C74.1902 25.7843 75.8764 24.5288 76.367 22.2933H74.4355C74.0368 23.6102 73.1175 24.2838 71.7071 24.2838C70.542 24.2838 69.3769 23.6407 68.8558 22.6608ZM71.5233 16.3219C72.535 16.3219 73.5157 16.8119 74.0063 17.6387C74.2821 18.0674 74.405 18.4961 74.4969 19.4148H68.4576C68.672 17.4244 69.7756 16.3219 71.5233 16.3219Z" fill="black"/>
<path fill-rule="evenodd" clip-rule="evenodd" d="M78.1445 11.1772H79.9226V16.6893C80.6586 15.4644 81.6703 14.8826 83.1416 14.8826C85.7166 14.8826 87.5562 17.1181 87.5562 20.3334C87.5562 23.5488 85.8086 25.7231 83.1721 25.7231C81.7312 25.7231 80.781 25.1412 79.8612 23.7938V25.5087H78.1445V11.1772ZM79.9531 20.2722C79.9531 22.5383 81.2406 24.2225 82.9268 24.2225C84.552 24.2225 85.6247 22.6914 85.6247 20.3334C85.6247 17.853 84.552 16.3218 82.8658 16.3218C81.1797 16.3218 79.9531 17.9449 79.9531 20.2722Z" fill="black"/>
<path d="M93.7485 24.1614C91.9089 24.1614 90.7443 22.9671 90.7748 21.1297H88.8128C88.7824 23.8858 90.7748 25.7844 93.718 25.7844C96.5383 25.7844 98.5313 24.1307 98.5313 21.8034C98.5313 20.0886 97.6115 18.9249 95.8948 18.4962C97.3047 18.1287 98.3474 16.7813 98.3474 15.3114C98.3474 13.1066 96.4769 11.5754 93.8099 11.5754C90.9282 11.5754 89.1806 13.2291 89.0582 16.077H90.9587C91.0201 14.2396 92.0318 13.1984 93.7795 13.1984C95.4042 13.1984 96.4769 14.0865 96.4769 15.4645C96.4769 16.9344 95.3732 17.7612 93.4727 17.7612H93.0126V19.3536C93.2888 19.323 93.4422 19.323 93.6261 19.323C95.4652 19.323 96.5998 20.211 96.5998 21.681C96.5998 23.1202 95.4042 24.1614 93.7485 24.1614Z" fill="black"/>
<path d="M52.4228 36.533H50.5527V35.0938H52.4228C52.4533 33.3789 52.4842 33.0114 52.7295 32.399C53.0972 31.419 54.0475 30.8984 55.4579 30.8984C55.6398 30.8984 55.8087 30.9118 56.0346 30.9297C56.1512 30.9389 56.2824 30.9493 56.4391 30.9597V32.5521C56.3351 32.5225 56.2461 32.5 56.1662 32.483C56.0356 32.4551 55.9301 32.4418 55.83 32.4355C55.738 32.4296 55.65 32.4296 55.5498 32.4296C54.9368 32.4296 54.4767 32.7358 54.3238 33.2871C54.2009 33.6545 54.2009 33.9301 54.2009 35.0632H56.4391V36.5024H54.2009V45.4443H52.4228V36.533Z" fill="black"/>
<path fill-rule="evenodd" clip-rule="evenodd" d="M61.835 45.7809C64.9006 45.7809 66.8935 43.6067 66.8935 40.2689C66.8935 37.0228 64.8701 34.818 61.8964 34.7874C58.8613 34.7874 56.8379 36.9616 56.8379 40.2382C56.8379 43.5455 58.8308 45.7809 61.835 45.7809ZM61.8045 44.2804C59.9035 44.2804 58.7694 42.7187 58.7694 40.177C58.7694 37.7884 59.9345 36.2879 61.835 36.2879C63.736 36.2879 64.962 37.8497 64.962 40.2995C64.962 42.7187 63.705 44.2804 61.8045 44.2804Z" fill="black"/>
<path d="M72.4127 45.7199C73.7704 45.7199 74.9287 45.2092 75.4783 44.3515V45.5056H77.1955V35.1244H75.4174V40.0853C75.4174 41.9227 75.3559 42.5045 75.0492 42.9944C74.559 43.76 73.7002 44.2194 72.7195 44.2194C71.2172 44.2194 70.4812 43.3007 70.4812 41.3408V35.0938H68.7031V41.004C68.7031 42.7495 68.826 43.4538 69.2247 44.1275C69.8377 45.138 70.9719 45.7199 72.4127 45.7199Z" fill="black"/>
<path d="M84.2461 34.8794C82.8357 34.8794 81.8854 35.3081 81.0885 36.3493V35.1244H79.4023V45.5055H81.2109V40.5446C81.2109 38.6766 81.2724 38.1254 81.5787 37.6354C82.0693 36.8393 82.8971 36.3799 83.9088 36.3799C85.4112 36.3799 86.1466 37.268 86.1466 39.2585V45.5055H87.9557V39.5953C87.9557 37.8498 87.8328 37.1455 87.4346 36.4718C86.8211 35.4612 85.6869 34.8794 84.2461 34.8794Z" fill="black"/>
<path fill-rule="evenodd" clip-rule="evenodd" d="M97.4294 45.4442V43.7599C96.5096 45.1379 95.5284 45.6891 94.1184 45.6891C91.5125 45.6891 89.7344 43.515 89.7344 40.3302C89.7344 37.0841 91.543 34.8487 94.1489 34.8487C95.6203 34.8487 96.632 35.4305 97.3679 36.6554V31.1433H99.146V45.4442H97.4294ZM91.6659 40.3302C91.6659 42.6881 92.7081 44.2193 94.3633 44.2193C96.0495 44.2193 97.3374 42.535 97.3374 40.2689C97.3374 37.9416 96.1414 36.3186 94.4557 36.3186C92.7695 36.3186 91.6659 37.8497 91.6659 40.3302Z" fill="black"/>
<path fill-rule="evenodd" clip-rule="evenodd" d="M107.974 44.1886C108.036 44.7398 108.066 44.9235 108.158 45.4747H109.967C109.691 44.3417 109.599 43.2393 109.63 41.157C109.66 37.8497 109.568 37.0841 109.017 36.3186C108.342 35.308 107.116 34.7874 105.552 34.7874C104.295 34.7874 103.13 35.1855 102.394 35.8592C101.72 36.441 101.475 37.0841 101.291 38.3702H103.161C103.253 36.9616 104.02 36.2879 105.552 36.2879C106.349 36.2879 106.993 36.5329 107.361 36.931C107.729 37.3291 107.79 37.7272 107.821 39.0746C106.656 39.1664 105.982 39.2583 105.399 39.3502C104.479 39.4727 103.682 39.6258 103.192 39.7789C101.659 40.2382 100.893 41.1875 100.893 42.5656C100.893 44.4335 102.394 45.7197 104.633 45.7197C106.074 45.7197 107.085 45.2604 107.974 44.1886ZM104.908 44.2804C103.621 44.2804 102.824 43.668 102.824 42.6268C102.824 41.2794 104.112 40.7282 107.821 40.4832V40.8507C107.821 42.0143 107.698 42.6268 107.392 43.0862C106.87 43.8823 106.012 44.2804 104.908 44.2804Z" fill="black"/>
<path d="M114.321 35.1245H116.651V36.5637H114.321V42.1064C114.321 43.2701 114.352 43.4845 114.536 43.7295C114.72 43.9744 115.149 44.1275 115.64 44.1275C116.007 44.1275 116.345 44.0663 116.651 43.9744V45.5056C115.824 45.6587 115.517 45.6893 115.088 45.6893C114.137 45.6893 113.31 45.2606 112.88 44.5563C112.635 44.0969 112.543 43.6682 112.543 42.6577V36.5331H110.643V35.0938H112.543V32.5828H114.321V35.1245Z" fill="black"/>
<path d="M120.022 31.1741H118.244V33.2564H120.022V31.1741Z" fill="black"/>
<path d="M120.054 45.5054V35.1243H118.275V45.5054H120.054Z" fill="black"/>
<path fill-rule="evenodd" clip-rule="evenodd" d="M131.888 40.2689C131.888 43.6067 129.895 45.7809 126.829 45.7809C123.824 45.7809 121.832 43.5455 121.832 40.2382C121.832 36.9616 123.855 34.7874 126.891 34.7874C129.864 34.818 131.888 37.0228 131.888 40.2689ZM123.764 40.177C123.764 42.7187 124.898 44.2804 126.799 44.2804C128.699 44.2804 129.956 42.7187 129.956 40.2995C129.956 37.8497 128.73 36.2879 126.829 36.2879C124.928 36.2879 123.764 37.7884 123.764 40.177Z" fill="black"/>
<path d="M135.444 36.2708C136.228 35.2865 137.166 34.8794 138.54 34.8794C139.981 34.8794 141.116 35.4612 141.729 36.4718C142.127 37.1455 142.25 37.8498 142.25 39.5953V45.5055H140.472V39.2585C140.472 37.268 139.736 36.3799 138.234 36.3799C137.222 36.3799 136.394 36.8393 135.904 37.6354C135.597 38.1254 135.536 38.6766 135.536 40.5446V45.5055H133.758V35.1244H135.444V36.2708Z" fill="black"/>
</g>
</svg>
