<svg width="163" height="27" viewBox="0 0 163 27" fill="none" xmlns="http://www.w3.org/2000/svg">
<path d="M36.3727 1.68606C37.5592 17.7571 27.2287 25.3531 17.9677 26.1631C9.35771 26.9161 1.2532 21.6256 0.542205 13.4971C-0.0442954 6.78156 4.1062 3.92256 7.3672 3.63756C10.7212 3.34356 13.5397 5.65656 13.7842 8.45706C14.0197 11.1496 12.3397 12.3751 11.1712 12.4771C10.2472 12.5581 9.0847 11.9971 8.9797 10.7926C8.8897 9.75756 9.2827 9.61656 9.1867 8.51706C9.01571 6.55956 7.3087 6.33156 6.3742 6.41256C5.2432 6.51156 3.1912 7.83156 3.4792 11.1196C3.7687 14.4361 6.9487 17.0566 11.1172 16.6921C15.6157 16.2991 18.7477 12.7966 18.9832 7.88406C18.9811 7.62387 19.0359 7.36636 19.1437 7.12956L19.1452 7.12356C19.1937 7.02067 19.2504 6.92185 19.3147 6.82806C19.4107 6.68406 19.5337 6.52506 19.6927 6.35106C19.6942 6.34656 19.6942 6.34656 19.6972 6.34656C19.8127 6.21606 19.9522 6.07506 20.1097 5.92356C22.0747 4.06956 29.1517 -0.302936 35.8447 1.08156C36.1352 1.14384 36.3501 1.38984 36.3727 1.68606Z" fill="black"/>
<rect x="50.4355" y="8.57251" width="3.273" height="15.4935" rx="0.1065" fill="#11293B"/>
<path fill-rule="evenodd" clip-rule="evenodd" d="M126.936 24.0961H130.182H130.185C130.222 24.0955 130.256 24.0763 130.275 24.0451C130.294 24.0142 130.294 23.9755 130.275 23.9446C129.599 23.0465 128.801 21.9294 128.11 20.9605C127.44 20.0232 126.87 19.2246 126.605 18.8971L126.534 18.8086L126.532 18.8063C125.9 18.0237 124.543 16.3447 122.589 15.4471C122.559 15.4336 122.538 15.4051 122.532 15.3751C122.526 15.3429 122.536 15.3098 122.559 15.2866L129.347 8.5216C129.374 8.49283 129.382 8.45024 129.366 8.4136C129.35 8.3761 129.314 8.3521 129.272 8.3506H125.708C125.68 8.35068 125.653 8.36141 125.633 8.3806L118.988 15.0421C118.956 15.0691 118.913 15.0751 118.874 15.0601C118.835 15.0451 118.809 15.0106 118.808 14.9701V2.7541C118.808 2.6971 118.761 2.6521 118.701 2.6521H115.68C115.623 2.65208 115.577 2.69728 115.575 2.7541V23.9671C115.577 24.0233 115.624 24.0677 115.68 24.0676H118.701C118.758 24.0685 118.805 24.0239 118.808 23.9671V18.9091C118.808 18.8825 118.819 18.8571 118.838 18.8386L120.225 17.4076C120.25 17.3836 120.284 17.3724 120.318 17.3776C122.166 17.6999 123.522 19.3834 124.203 20.2289L124.242 20.2771L124.316 20.3671C124.48 20.5695 124.729 20.9515 125.05 21.4432C125.514 22.1542 126.127 23.0947 126.851 24.0541C126.871 24.0806 126.903 24.0961 126.936 24.0961ZM97.1686 3.1006V5.5096C97.167 5.56641 97.1204 5.61162 97.0636 5.6116H90.8596C90.8022 5.61076 90.7547 5.6562 90.7531 5.7136V23.9686C90.7523 23.9965 90.7405 24.0228 90.7202 24.042C90.7 24.0611 90.6729 24.0714 90.6451 24.0706H87.4471C87.3902 24.0715 87.343 24.0269 87.3406 23.9701V5.7136C87.3389 5.6562 87.2915 5.61076 87.2341 5.6116H80.4706C80.4137 5.61162 80.3672 5.56641 80.3656 5.5096V3.1006C80.3672 3.04378 80.4137 2.99858 80.4706 2.9986H97.0531C97.0831 2.9971 97.1131 3.0061 97.1341 3.0256C97.1558 3.0445 97.1684 3.07181 97.1686 3.1006ZM81.3241 14.1856L81.3571 14.1916V23.9686C81.3555 24.0254 81.3089 24.0706 81.2521 24.0706H78.2656C78.2377 24.0714 78.2107 24.0611 78.1904 24.042C78.1702 24.0228 78.1584 23.9965 78.1576 23.9686V16.4701C78.1576 16.3106 78.1591 16.1507 78.1606 15.9913V15.9912C78.1621 15.833 78.1636 15.6753 78.1636 15.5191C78.1636 15.3571 78.1636 15.2011 78.1576 15.0436C78.1576 14.5891 78.1276 14.1346 78.0676 13.6816C77.8426 12.0526 77.1781 10.8706 74.8156 10.9021C74.1319 10.9241 73.4628 11.1049 72.8611 11.4301C72.1606 11.8381 71.3836 12.4051 70.9471 13.1956C71.0165 13.7167 71.0521 14.2418 71.0536 14.7676V14.7841C71.0536 14.8284 71.0551 14.8726 71.0567 14.9161L71.0567 14.9161V14.9161C71.0581 14.9581 71.0596 14.9993 71.0596 15.0391V24.1831C71.0579 24.2405 71.0105 24.2859 70.9531 24.2851H68.0386C67.9812 24.2859 67.9337 24.2405 67.9321 24.1831V16.4611C67.9321 16.3114 67.9328 16.1611 67.9335 16.0109V16.0107C67.9407 14.4519 67.9479 12.889 67.1791 11.8876C66.6691 11.2291 65.9446 10.9201 64.5301 10.9201C63.9526 10.9201 63.1996 11.1241 62.6221 11.4001C62.2261 11.5846 61.8571 11.8171 61.5241 12.0931C61.0486 12.5131 60.7021 13.0546 60.7021 13.6711V23.9731C60.7005 24.0299 60.6539 24.0751 60.5971 24.0751H57.6226C57.5657 24.0751 57.5192 24.0299 57.5176 23.9731V8.7751C57.5192 8.71828 57.5657 8.67308 57.6226 8.6731H58.8751C59.3821 8.6731 59.8276 8.9911 59.9701 9.4561L60.1591 10.0711C60.1591 10.1131 60.1861 10.1491 60.2251 10.1641C60.2656 10.1791 60.3106 10.1701 60.3406 10.1431C61.6651 8.8936 63.5611 8.2981 65.4001 8.2981C67.3081 8.2981 68.5426 8.8726 69.3451 9.7696L69.2611 9.6616C69.5071 9.9406 69.7216 10.2421 69.9001 10.5631C69.9174 10.5949 69.9493 10.616 69.9853 10.6196C70.0213 10.6232 70.0568 10.6088 70.0801 10.5811C71.2876 9.1321 73.6711 8.2996 75.5896 8.2996C79.9606 8.2996 81.3346 11.2726 81.3346 14.1796L81.3226 14.1856H81.3241Z" fill="#11293B"/>
<ellipse cx="52.0723" cy="4.21349" rx="1.9785" ry="1.89" fill="#11293B"/>
<path fill-rule="evenodd" clip-rule="evenodd" d="M135.167 19.9919C136.15 21.3449 137.846 22.0544 139.553 21.8249C141.02 21.6089 141.97 21.0914 142.786 19.9589C142.802 19.9323 142.83 19.9138 142.861 19.9079L145.831 19.4684C145.864 19.4642 145.897 19.4753 145.921 19.4984C145.944 19.5204 145.955 19.5522 145.951 19.5839C145.565 21.6569 143.315 24.4229 138.551 24.4079C134.342 24.3929 131.83 21.2519 131.239 17.8319C131.146 17.3114 131.101 16.7849 131.101 16.2569C131.101 16.0019 131.107 15.7469 131.122 15.4919C131.24 13.2104 132.005 11.0639 134.245 9.27891C135.923 7.94241 139.072 7.41291 141.412 8.31891C143.127 8.96727 144.533 10.2412 145.348 11.8844C146.24 13.8539 145.252 15.8954 142.888 16.2284L134.266 17.3909C134.238 17.3951 134.214 17.4096 134.197 17.4314C134.18 17.4527 134.173 17.4798 134.177 17.5064C134.365 18.5339 134.642 19.3169 135.167 19.9919ZM104.558 7.90791C99.8376 7.90791 96.7461 10.9124 96.7461 16.0379C96.7461 21.1829 99.8511 24.1694 104.558 24.1694C109.264 24.1694 112.367 21.1814 112.367 16.0394C112.367 10.9214 109.252 7.90791 104.558 7.90791ZM104.558 21.6224C101.369 21.6224 99.8391 19.5329 99.8391 15.8849C99.8391 12.2579 101.369 10.4519 104.558 10.4519C107.747 10.4519 109.267 12.4079 109.267 16.0349C109.267 19.6634 107.737 21.6224 104.558 21.6224ZM135.098 12.1289C135.933 11.1084 137.154 10.4812 138.47 10.3979C139.813 10.2899 140.9 10.4714 141.854 11.3729C142.196 11.6939 142.486 12.0629 142.715 12.4649C143.06 13.0589 142.694 13.9229 141.913 14.0294L134.059 15.0824C134.026 15.0874 133.993 15.0775 133.969 15.0554C133.946 15.0341 133.935 15.0036 133.939 14.9729C134.074 13.8119 134.437 12.9569 135.098 12.1289ZM162.611 23.9654V14.4719H162.61C162.61 8.03541 158.167 7.96941 156.517 7.96641C154.525 7.96641 152.624 8.75242 151.366 10.0589C151.336 10.0874 151.292 10.0949 151.253 10.0799C151.213 10.0649 151.186 10.0304 151.186 9.98991V8.47192C151.186 8.41491 151.138 8.36991 151.078 8.36991H148.64C148.583 8.36907 148.535 8.41451 148.534 8.47192V23.9624C148.534 23.9903 148.546 24.0167 148.566 24.0358C148.587 24.0549 148.614 24.0652 148.642 24.0644H151.612C151.669 24.0653 151.716 24.0198 151.718 23.9624V12.9314L151.664 12.9539L151.718 12.8924C152.654 11.8409 154.153 10.7984 155.891 10.6184C155.891 10.6184 157.292 10.4444 158.282 11.2304C158.978 11.7809 159.281 12.6269 159.362 13.4999C159.475 14.7419 159.437 16.0739 159.437 16.0739V23.9654C159.438 23.9933 159.45 24.0197 159.47 24.0388C159.49 24.0579 159.517 24.0682 159.545 24.0674H162.506C162.563 24.0674 162.609 24.0222 162.611 23.9654Z" fill="#11293B"/>
</svg>
