<svg width="98" height="16" viewBox="0 0 98 16" fill="none" xmlns="http://www.w3.org/2000/svg">
<path d="M22.4638 1.14255C23.1736 10.7565 16.9938 15.3005 11.4537 15.785C6.30308 16.2355 1.45485 13.0706 1.02952 8.20806C0.678667 4.19075 3.16156 2.48046 5.11233 2.30997C7.11874 2.13409 8.80481 3.51776 8.95107 5.19306C9.09195 6.80375 8.08695 7.53687 7.38794 7.59788C6.83519 7.64634 6.13977 7.31074 6.07695 6.59019C6.02311 5.97104 6.25821 5.88669 6.20078 5.22896C6.09849 4.05795 5.07734 3.92156 4.51831 3.97001C3.84173 4.02924 2.61419 4.81888 2.78648 6.78581C2.95966 8.76979 4.86198 10.3374 7.35564 10.1194C10.0467 9.88426 11.9203 7.78901 12.0612 4.85029C12.0599 4.69464 12.0927 4.54059 12.1572 4.39893L12.1581 4.39534C12.1871 4.33379 12.221 4.27468 12.2595 4.21857C12.3169 4.13243 12.3905 4.03731 12.4856 3.93322C12.4865 3.93053 12.4865 3.93053 12.4883 3.93053C12.5574 3.85246 12.6409 3.76812 12.7351 3.67749C13.9106 2.5684 18.1441 -0.0472945 22.148 0.780933C22.3218 0.818187 22.4503 0.96535 22.4638 1.14255Z" fill="black"/>
<rect x="30.877" y="5.26221" width="1.95796" height="9.26843" rx="0.0637098" fill="#11293B"/>
<path fill-rule="evenodd" clip-rule="evenodd" d="M76.6404 14.5486H78.5822H78.584C78.606 14.5482 78.6263 14.5367 78.6379 14.5181C78.649 14.4996 78.649 14.4764 78.6379 14.4579C78.2333 13.9207 77.7562 13.2524 77.3424 12.6728C76.942 12.1121 76.601 11.6344 76.4421 11.4384L76.3999 11.3855L76.3988 11.3841C76.0205 10.916 75.2089 9.91156 74.04 9.37461C74.022 9.36654 74.0095 9.34949 74.0059 9.33154C74.0022 9.31231 74.0082 9.29249 74.022 9.2786L78.0824 5.23168C78.099 5.21447 78.1036 5.18899 78.0941 5.16707C78.0842 5.14464 78.0627 5.13028 78.0376 5.12938H75.9055C75.8888 5.12943 75.8728 5.13585 75.8606 5.14733L71.8855 9.13233C71.8667 9.14849 71.8406 9.15207 71.8173 9.1431C71.794 9.13413 71.7787 9.11349 71.7778 9.08926V1.78148C71.7778 1.74738 71.75 1.72046 71.7141 1.72046H69.9069C69.8729 1.72045 69.8451 1.74749 69.8441 1.78148V14.4714C69.8456 14.505 69.8733 14.5315 69.9069 14.5315H71.7141C71.7481 14.532 71.7764 14.5054 71.7778 14.4714V11.4456C71.7779 11.4297 71.7844 11.4145 71.7958 11.4035L72.6258 10.5474C72.6405 10.533 72.6611 10.5264 72.6814 10.5295C73.7871 10.7222 74.5982 11.7294 75.0056 12.2352L75.0288 12.264L75.0728 12.3178C75.1711 12.4389 75.3202 12.6674 75.5121 12.9616C75.7895 13.3869 76.1565 13.9495 76.5893 14.5234C76.6015 14.5393 76.6204 14.5486 76.6404 14.5486ZM58.8331 1.98876V3.42986C58.8321 3.46384 58.8043 3.49089 58.7703 3.49087H55.0589C55.0246 3.49037 54.9962 3.51755 54.9952 3.55189V14.4723C54.9948 14.489 54.9877 14.5047 54.9756 14.5162C54.9635 14.5276 54.9473 14.5338 54.9306 14.5333H53.0175C52.9835 14.5338 52.9553 14.5072 52.9538 14.4732V3.55189C52.9528 3.51755 52.9245 3.49037 52.8901 3.49087H48.8441C48.8101 3.49089 48.7823 3.46384 48.7813 3.42986V1.98876C48.7823 1.95477 48.8101 1.92773 48.8441 1.92774H58.764C58.7819 1.92684 58.7999 1.93223 58.8124 1.94389C58.8254 1.9552 58.8329 1.97154 58.8331 1.98876ZM49.3547 8.61996L49.3744 8.62355V14.4723C49.3734 14.5063 49.3456 14.5333 49.3116 14.5333H47.525C47.5084 14.5338 47.4922 14.5276 47.4801 14.5162C47.468 14.5047 47.4609 14.489 47.4604 14.4723V9.98658C47.4604 9.89113 47.4613 9.79545 47.4622 9.70011C47.4631 9.60545 47.464 9.51112 47.464 9.41768V9.41761C47.464 9.32072 47.464 9.22743 47.4604 9.13323C47.4604 8.86134 47.4425 8.58945 47.4066 8.31846C47.272 7.34397 46.8745 6.63688 45.4612 6.65573C45.0522 6.66892 44.6519 6.77705 44.292 6.97158C43.8729 7.21566 43.4081 7.55484 43.147 8.02773C43.1885 8.33949 43.2098 8.65361 43.2107 8.96812V8.97799C43.2107 9.00448 43.2116 9.03097 43.2126 9.05698C43.2134 9.08208 43.2143 9.10674 43.2143 9.13054V14.6006C43.2133 14.6349 43.1849 14.6621 43.1506 14.6616H41.4071C41.3727 14.6621 41.3444 14.6349 41.3434 14.6006V9.9812C41.3434 9.89162 41.3438 9.80172 41.3442 9.71179C41.3485 8.77929 41.3529 7.84433 40.8929 7.24527C40.5878 6.85134 40.1544 6.66649 39.3083 6.66649C38.9628 6.66649 38.5123 6.78853 38.1669 6.95364C37.93 7.06401 37.7092 7.20309 37.51 7.3682C37.2256 7.61945 37.0183 7.94338 37.0183 8.31218V14.475C37.0173 14.509 36.9895 14.536 36.9555 14.536H35.1761C35.1421 14.536 35.1143 14.509 35.1133 14.475V5.38333C35.1143 5.34934 35.1421 5.32229 35.1761 5.32231H35.9254C36.2287 5.32231 36.4952 5.51254 36.5804 5.79071L36.6935 6.15861C36.6935 6.18374 36.7096 6.20527 36.7329 6.21424C36.7572 6.22322 36.7841 6.21783 36.802 6.20168C37.5944 5.45421 38.7286 5.09798 39.8287 5.09798C40.9701 5.09798 41.7086 5.44165 42.1887 5.97825L42.1384 5.91364C42.2856 6.08054 42.4139 6.26091 42.5207 6.45293C42.531 6.47194 42.5501 6.4846 42.5717 6.48676C42.5932 6.48891 42.6144 6.48028 42.6283 6.4637C43.3507 5.59689 44.7765 5.09887 45.9242 5.09887C48.539 5.09887 49.361 6.87737 49.361 8.61637L49.3538 8.61996H49.3547Z" fill="#11293B"/>
<ellipse cx="31.8554" cy="2.65455" rx="1.18357" ry="1.13063" fill="#11293B"/>
<path fill-rule="evenodd" clip-rule="evenodd" d="M81.5641 12.0936C82.1518 12.903 83.1667 13.3274 84.1878 13.1901C85.0654 13.0609 85.6334 12.7513 86.1216 12.0738C86.1317 12.0579 86.1479 12.0468 86.1664 12.0433L87.9431 11.7804C87.9629 11.7779 87.9827 11.7845 87.997 11.7983C88.0109 11.8115 88.0175 11.8305 88.0149 11.8495C87.7843 13.0896 86.4383 14.7443 83.5884 14.7353C81.0705 14.7263 79.5675 12.8473 79.214 10.8014C79.1584 10.4901 79.1314 10.1751 79.1314 9.85924C79.1314 9.70669 79.135 9.55415 79.144 9.4016C79.2149 8.03678 79.6725 6.75271 81.0122 5.6849C82.0163 4.88538 83.8998 4.56863 85.2996 5.11061C86.3258 5.49847 87.1671 6.26055 87.6542 7.24355C88.1881 8.42173 87.5968 9.64298 86.1826 9.84219L81.0248 10.5376C81.0084 10.5401 80.9937 10.5488 80.9835 10.5618C80.9737 10.5746 80.9695 10.5908 80.9718 10.6067C81.084 11.2214 81.25 11.6898 81.5641 12.0936ZM63.2533 4.86475C60.4295 4.86475 58.5801 6.66208 58.5801 9.72823C58.5801 12.806 60.4375 14.5926 63.2533 14.5926C66.0682 14.5926 67.9248 12.8051 67.9248 9.72913C67.9248 6.66746 66.061 4.86475 63.2533 4.86475ZM63.2533 13.069C61.3456 13.069 60.4304 11.819 60.4304 9.6367C60.4304 7.46698 61.3456 6.3866 63.2533 6.3866C65.161 6.3866 66.07 7.55671 66.07 9.72643C66.07 11.8971 65.1548 13.069 63.2533 13.069ZM81.5228 7.38981C82.022 6.77929 82.7529 6.40412 83.54 6.3543C84.3431 6.28969 84.9936 6.39827 85.5643 6.93756C85.7689 7.12959 85.9421 7.35033 86.0794 7.59081C86.2858 7.94615 86.0668 8.463 85.5993 8.52671L80.9009 9.15663C80.8815 9.15962 80.8617 9.15368 80.8471 9.14048C80.8338 9.12773 80.8271 9.10948 80.8292 9.09113C80.9099 8.3966 81.1271 7.88513 81.5228 7.38981ZM97.9815 14.4706V8.79142H97.9806C97.9806 4.94102 95.3227 4.90154 94.3356 4.89974C93.144 4.89974 92.0071 5.36994 91.2542 6.1515C91.2363 6.16855 91.2103 6.17304 91.1869 6.16407C91.1627 6.15509 91.1466 6.13446 91.1466 6.11023V5.20214C91.1466 5.16804 91.1179 5.14112 91.082 5.14112H89.6238C89.5895 5.14062 89.5611 5.1678 89.5601 5.20214V14.4688C89.5606 14.4854 89.5676 14.5012 89.5798 14.5127C89.5919 14.5241 89.608 14.5303 89.6247 14.5298H91.4014C91.4358 14.5303 91.4641 14.5031 91.4651 14.4688V7.86988L91.4328 7.88334L91.4651 7.84654C92.025 7.21752 92.9215 6.59388 93.9615 6.48621C93.9615 6.48621 94.7996 6.38212 95.3918 6.85231C95.8082 7.18163 95.9894 7.68772 96.0379 8.20996C96.1052 8.95294 96.0827 9.74976 96.0827 9.74976V14.4706C96.0832 14.4872 96.0903 14.503 96.1024 14.5145C96.1145 14.5259 96.1307 14.5321 96.1473 14.5316H97.9186C97.9527 14.5316 97.9805 14.5046 97.9815 14.4706Z" fill="#11293B"/>
</svg>
