<svg width="94" height="22" viewBox="0 0 94 22" fill="none" xmlns="http://www.w3.org/2000/svg">
<g opacity="0.8">
<path fill-rule="evenodd" clip-rule="evenodd" d="M0.0976562 8.11484C0.114111 3.71885 3.67368 0.159277 8.06967 0.142822C12.2997 0.216144 15.7348 3.58291 15.893 7.81062C16.0513 12.0383 12.8775 15.6525 8.66482 16.0418C8.66482 16.0418 7.64957 16.1119 7.40951 16.1469C6.23773 16.3259 5.30163 17.2161 5.06391 18.3774C5.06391 18.3774 4.74883 19.9178 4.71382 20.0579C4.6602 20.3447 4.49124 20.597 4.2464 20.7558C4.00157 20.9147 3.7023 20.9661 3.4185 20.8981C3.13183 20.8446 2.87985 20.6754 2.72182 20.4303C2.5638 20.1853 2.51369 19.8859 2.58328 19.6027C2.58328 19.4977 5.08392 7.88478 5.08392 7.88478C5.20959 7.29507 5.78953 6.91889 6.37924 7.04457C6.96896 7.17024 7.34513 7.75018 7.21946 8.3399L6.16919 13.0961L5.99415 14.0413C5.97175 14.0712 5.97472 14.113 6.00112 14.1394C6.02751 14.1658 6.06931 14.1688 6.09917 14.1464C6.30025 14.0954 6.50393 14.0553 6.70933 14.0263C7.26947 13.9563 8.38475 13.8863 8.38475 13.8863C11.4882 13.6984 13.8805 11.0781 13.7859 7.97036C13.6913 4.86263 11.1441 2.3927 8.03491 2.3939C4.92575 2.39511 2.38041 4.86701 2.28821 7.9748C2.2561 8.6655 2.3615 9.35569 2.59829 10.0053C2.7777 10.5785 2.47958 11.1923 1.91812 11.4057C1.33954 11.5802 0.725254 11.2731 0.517763 10.7055C0.23941 9.87013 0.0975546 8.99536 0.0976562 8.11484ZM88.29 15.0416C88.5071 14.5234 89.0893 14.263 89.6203 14.4464C89.8919 14.5337 90.1133 14.7327 90.2289 14.9935C90.3445 15.2543 90.3432 15.552 90.2254 15.8118C88.8951 19.1326 87.0246 20.813 84.524 20.813C82.3234 20.813 81.2032 19.4127 81.2032 16.687C81.3118 15.1896 81.546 13.704 81.9033 12.2459L82.1834 10.9856H79.2777C79.5702 11.7306 79.713 12.5259 79.6978 13.3262C79.7139 15.2929 79.0315 17.2016 77.7723 18.7125C76.7535 20.0371 75.1772 20.8132 73.5062 20.813C72.4412 20.8487 71.4115 20.4285 70.6755 19.6578C69.8589 20.411 68.7856 20.8242 67.6747 20.813C65.9243 20.813 64.879 20.1129 64.4239 18.6425C63.3737 20.1129 62.1133 20.813 60.613 20.813C59.6872 20.8412 58.788 20.5013 58.1123 19.8678C57.3585 20.4991 56.4098 20.8507 55.4266 20.8631C53.6762 20.8631 52.6259 20.1629 52.1758 18.6925C51.1256 20.1629 49.8602 20.8631 48.3599 20.8631C47.2815 20.9068 46.2455 20.4398 45.5642 19.6027C45.282 19.2686 45.0573 18.8901 44.899 18.4825L44.4789 18.9826C43.5649 20.1629 42.1606 20.8595 40.6679 20.8731C39.5892 20.9529 38.5407 20.4942 37.8672 19.6478C37.1808 18.658 36.8382 17.4702 36.892 16.2669C36.892 15.9868 36.927 15.4967 36.997 14.8315C37.8427 14.6965 38.6313 14.3196 39.2676 13.7463C39.8757 13.3166 40.2607 12.6382 40.3178 11.8958C40.352 11.6642 40.2745 11.43 40.1089 11.2645C39.9434 11.0989 39.7093 11.0214 39.4776 11.0556C38.6701 11.0444 37.8867 11.3311 37.2771 11.8608C36.6757 12.3108 36.1749 12.8815 35.8067 13.5362C35.5132 14.106 35.2786 14.7043 35.1065 15.3217L34.1063 19.9728C34.0186 20.4834 33.5838 20.8618 33.066 20.8781C32.733 20.8794 32.4174 20.7298 32.2075 20.4714C31.9977 20.2129 31.9161 19.8733 31.9857 19.5477L35.2365 4.36889C35.3401 3.85374 35.7964 3.48577 36.3218 3.49367C36.655 3.49272 36.9708 3.64211 37.1814 3.90027C37.392 4.15843 37.4749 4.49782 37.4071 4.82401L36.2168 10.3254C37.161 9.37819 38.4453 8.84864 39.7827 8.85503C41.7082 8.85503 42.6484 9.73025 42.6484 11.4807C42.6395 12.52 42.2879 13.5273 41.6482 14.3464C40.9895 15.211 40.1052 15.8772 39.0925 16.2719C39.0606 16.4214 39.0488 16.5744 39.0575 16.727C39.0293 17.2109 39.165 17.6901 39.4426 18.0874C39.7408 18.4754 40.2151 18.6862 40.7029 18.6475C42.3834 18.6475 43.7787 16.9671 44.864 13.5212C45.1459 12.564 45.6361 11.6811 46.2993 10.9356C47.4107 9.59829 49.0617 8.82784 50.8005 8.83502C51.357 8.8479 51.9098 8.93022 52.4459 9.08008C52.7444 9.14473 53.0359 9.23854 53.3161 9.36015C53.6934 9.51656 53.9502 9.87237 53.9799 10.2797C54.0095 10.6871 53.8068 11.0763 53.4561 11.2856C53.1593 11.4865 52.7778 11.5132 52.4559 11.3557C51.9244 11.1289 51.3533 11.0099 50.7755 11.0056C49.6326 10.9837 48.5548 11.5358 47.9047 12.4759C47.1406 13.5425 46.7598 14.8364 46.8245 16.1469C46.8018 16.7946 46.9612 17.4357 47.2846 17.9973C47.5298 18.4222 47.9794 18.6878 48.4699 18.6975C49.4111 18.6325 50.267 18.1286 50.7805 17.3372C51.5049 16.339 52.0281 15.2094 52.3209 14.0113C52.454 13.4611 52.9797 13.0991 53.5412 13.1711C53.8607 13.207 54.1507 13.375 54.3407 13.6344C54.5308 13.8938 54.6036 14.2209 54.5414 14.5365C54.3459 15.3571 54.2287 16.1944 54.1913 17.0371C54.1492 17.4793 54.2604 17.9225 54.5064 18.2924C54.7622 18.5688 55.1316 18.711 55.5067 18.6775C56.0738 18.6646 56.6186 18.4541 57.0471 18.0824C56.8725 17.4934 56.7898 16.8811 56.802 16.2669C56.7448 14.3336 57.3897 12.445 58.6175 10.9506C59.7357 9.59693 61.408 8.82423 63.1636 8.85002C64.0261 8.84224 64.874 9.0724 65.6142 9.51519L66.6645 4.34889C66.8026 3.75089 67.3993 3.37807 67.9973 3.51618C68.5953 3.65428 68.9681 4.25101 68.83 4.84901L67.0146 13.3112C66.7287 14.541 66.5612 15.7954 66.5145 17.0571C66.4813 17.494 66.5788 17.931 66.7945 18.3124C67.0253 18.5879 67.377 18.732 67.7348 18.6975C68.4377 18.6747 69.0985 18.357 69.5552 17.8223C69.4388 17.3307 69.38 16.8271 69.3802 16.3219C69.3481 14.4402 69.9803 12.6074 71.1656 11.1456C72.1929 9.71247 73.8535 8.86911 75.6168 8.88503H82.6185L83.2637 5.9843C83.3673 5.46915 83.8236 5.10118 84.349 5.10908C84.6864 5.11513 85.0035 5.27166 85.2135 5.53587C85.4235 5.80008 85.5045 6.14431 85.4342 6.47442L84.9341 8.92004H87.4347C87.7566 8.92403 88.0599 9.07133 88.2621 9.32183C88.4642 9.57233 88.5441 9.89993 88.48 10.2154C88.394 10.7243 87.9509 11.0953 87.4347 11.0906H84.434L84.1189 12.561C83.8016 13.9529 83.5943 15.3676 83.4987 16.792C83.4987 18.0473 83.8838 18.7125 84.654 18.7125C86.1244 18.7125 87.3147 17.4922 88.29 15.0416ZM21.8532 8.92004C20.0996 8.89845 18.4443 9.72795 17.412 11.1456C16.2267 12.6074 15.5945 14.4402 15.6266 16.3219C15.5669 17.5322 15.9671 18.7202 16.7469 19.6478C17.4944 20.4971 18.5874 20.9608 19.7176 20.9081C21.3883 20.9067 22.9639 20.1309 23.9837 18.8075C25.2485 17.2901 25.9312 15.3715 25.9092 13.3962C25.9597 12.2382 25.6275 11.0957 24.9639 10.1454C24.2988 9.34015 23.2485 8.92004 21.8532 8.92004ZM21.9232 17.8023C21.3603 18.3771 20.5921 18.7046 19.7876 18.7125C19.2462 18.7422 18.7241 18.5072 18.3873 18.0824C18.0207 17.5774 17.8436 16.9594 17.8872 16.3369C17.8381 15.0058 18.2186 13.6942 18.9724 12.596C19.5714 11.6497 20.6183 11.0817 21.7381 11.0956C22.9918 11.0956 23.6203 11.8641 23.6236 13.4012C23.645 15.0325 23.0358 16.6091 21.9232 17.8023ZM64.824 13.1161C64.4389 15.0416 63.8238 16.4419 63.1086 17.3522C62.3934 18.2624 61.5732 18.7125 60.733 18.7125C60.2413 18.7026 59.7902 18.4373 59.5427 18.0123C59.2274 17.4604 59.0699 16.8323 59.0876 16.1969C59.0224 14.8856 59.4051 13.591 60.1728 12.526C60.6912 11.7296 61.5329 11.2008 62.4753 11.0795C63.4178 10.9582 64.366 11.2566 65.0691 11.8958L64.824 13.1161ZM75.7368 17.7673C76.2354 17.1442 76.6584 16.4643 76.9971 15.7418H76.9721C77.2591 14.9935 77.418 14.2022 77.4422 13.4012C77.4422 11.8641 76.8121 11.0956 75.5517 11.0956C74.434 11.0903 73.391 11.6561 72.786 12.596C72.0359 13.6957 71.6574 15.0066 71.7058 16.3369C71.6622 16.9594 71.8393 17.5774 72.2059 18.0824C72.5406 18.5071 73.0613 18.7422 73.6012 18.7125C74.4115 18.6987 75.1818 18.3578 75.7368 17.7673ZM31.3306 3.49867C30.8052 3.49077 30.3489 3.85875 30.2453 4.37389L26.9945 19.5527C26.9248 19.8783 27.0064 20.2179 27.2163 20.4764C27.4262 20.7348 27.7418 20.8844 28.0747 20.8831C28.6001 20.891 29.0564 20.523 29.16 20.0078L32.4158 4.82901C32.478 4.50361 32.3929 4.16739 32.1835 3.91069C31.9741 3.65399 31.6618 3.50314 31.3306 3.49867Z" fill="#1E1E1E"/>
<path d="M91.9408 18.5025C91.5925 18.4319 91.2304 18.503 90.9347 18.7001C90.6391 18.8972 90.4341 19.2041 90.3654 19.5527C90.2905 19.9014 90.3599 20.2656 90.5577 20.5623C90.7555 20.859 91.065 21.0631 91.4156 21.1281C91.7641 21.2074 92.1299 21.1397 92.4269 20.9411C92.724 20.7424 92.9262 20.4302 92.986 20.0779C93.1084 19.3591 92.6506 18.6691 91.9408 18.5025Z" fill="#E6007A"/>
</g>
</svg>
