<svg width="121" height="16" viewBox="0 0 121 16" fill="none" xmlns="http://www.w3.org/2000/svg">
<path fill-rule="evenodd" clip-rule="evenodd" d="M9.2287 2.60579C9.2287 1.60032 8.44441 0.800049 7.45902 0.800049C6.47363 0.800049 5.68933 1.60032 5.68933 2.60579C5.68933 3.38555 6.17198 4.0627 6.85572 4.30894V13.666H3.37668V4.30894C4.06042 4.04218 4.54306 3.38555 4.54306 2.60579C4.54306 1.60032 3.75877 0.800049 2.77338 0.800049C1.78798 0.800049 1.00369 1.60032 1.00369 2.60579C1.00369 3.38555 1.48633 4.04218 2.17008 4.30894V13.6455H1.00369H0.963472C0.641711 13.666 0.400391 13.9327 0.400391 14.2611C0.400391 14.6099 0.661821 14.8767 1.00369 14.8767H7.45902H7.6199C11.6419 14.8356 15.0003 13.153 16.5689 10.3623C16.6694 10.3828 16.7499 10.3828 16.8504 10.3828C17.9766 10.3828 18.9016 9.45942 18.9016 8.28979C18.9016 7.67419 18.6402 7.12016 18.2179 6.73028C18.8413 5.66325 19.7664 4.80142 20.9328 4.1653V10.7727C20.249 11.0394 19.7664 11.6961 19.7664 12.4758C19.7664 13.4813 20.5507 14.2816 21.5361 14.2816C22.5215 14.2816 23.3057 13.4813 23.3057 12.4758C23.3057 11.6961 22.8231 11.0189 22.1394 10.7727V3.61127C23.1851 3.22139 24.3515 2.99567 25.6184 2.93411V12.2706C24.9347 12.5374 24.452 13.194 24.452 13.9738C24.452 14.9793 25.2363 15.7795 26.2217 15.7795C27.2071 15.7795 27.9914 14.9793 27.9914 13.9738C27.9914 13.194 27.5087 12.5169 26.825 12.2706V2.91359H30.304V12.2912C29.6203 12.5579 29.1377 13.2146 29.1377 13.9943C29.1377 14.9998 29.922 15.8 30.9073 15.8C31.8927 15.8 32.677 14.9998 32.677 13.9943C32.677 13.2146 32.1944 12.5374 31.5106 12.2912V2.93411H32.677H32.7173C33.039 2.91359 33.2803 2.64683 33.2803 2.31852C33.2803 1.96968 33.0189 1.70292 32.677 1.70292H26.2217H26.0608C22.0388 1.74396 18.6804 3.42659 17.1118 6.21729C17.0113 6.19677 16.9309 6.19677 16.8303 6.19677C15.7041 6.19677 14.7791 7.12016 14.7791 8.28979C14.7791 8.90538 15.0405 9.45942 15.4628 9.8493C14.8394 10.9163 13.9143 11.7782 12.748 12.4143V5.80689C13.4317 5.54013 13.9143 4.8835 13.9143 4.10374C13.9143 3.09827 13.1301 2.298 12.1447 2.298C11.1593 2.298 10.375 3.09827 10.375 4.10374C10.375 4.8835 10.8576 5.56065 11.5414 5.80689V12.9683C10.4956 13.3582 9.32926 13.5839 8.06232 13.6455V4.30894C8.74606 4.04218 9.2287 3.38555 9.2287 2.60579ZM50.0923 8.26927C50.0923 5.41701 48.021 3.42659 45.2659 3.42659H41.1031V13.112H45.2659H45.3464C47.9406 13.0709 50.0923 10.9368 50.0923 8.26927ZM61.1931 13.112H59.6848L56.4471 5.23233L53.2496 13.112H51.7213L55.7835 3.42659H57.1309L61.1931 13.112ZM71.1275 6.19677C71.1275 4.6783 70.0415 3.42659 68.3925 3.42659H62.822V13.112H64.3504V4.82194H68.2316C69.036 4.82194 69.579 5.37597 69.579 6.19677C69.579 7.01756 69.036 7.57159 68.2316 7.57159H66.0798V8.96694H67.8495L69.5388 13.112H71.1275L69.3779 8.80278L69.4382 8.78226C70.4839 8.37187 71.1275 7.34588 71.1275 6.19677ZM74.3652 3.42659L77.5023 11.2241L78.7492 7.92043L76.9192 3.42659H78.5682L81.5646 11.2241L84.6615 3.42659H86.2703L82.2282 13.112H80.8808L79.5536 9.80826L78.1459 13.112H76.7985L72.7363 3.42659H74.3652ZM90.4331 13.112H88.9047V3.42659H90.4331V13.112ZM95.3601 3.42659L102.197 10.7932V3.42659H103.726V13.112H102.419L95.5813 5.74533V13.112H94.0529V3.42659H95.3601ZM108.874 13.112H107.346V3.42659H108.874V13.112ZM121 13.112H119.492L116.254 5.23233L113.037 13.112H111.508L115.571 3.42659H116.918L121 13.112ZM42.6315 4.82194H45.2659C47.1563 4.82194 48.5439 6.31988 48.5439 8.26927C48.5439 10.2187 47.1362 11.7371 45.2659 11.7371H42.6315V4.82194Z" fill="#313132"/>
</svg>
