<svg width="156" height="36" viewBox="0 0 156 36" fill="none" xmlns="http://www.w3.org/2000/svg">
<g opacity="0.8">
<path fill-rule="evenodd" clip-rule="evenodd" d="M0 13.3264C0.0275058 5.97784 5.97784 0.0275057 13.3264 0C20.3975 0.122568 26.1397 5.75059 26.4042 12.8178C26.6688 19.885 21.3634 25.9266 14.3212 26.5775C14.3212 26.5775 12.6241 26.6945 12.2228 26.753C10.264 27.0524 8.69917 28.5405 8.3018 30.4817C8.3018 30.4817 7.7751 33.0567 7.71658 33.2908C7.62694 33.7703 7.3445 34.1921 6.93522 34.4576C6.52594 34.7231 6.02567 34.809 5.55125 34.6953C5.07206 34.606 4.65083 34.3232 4.38667 33.9135C4.12251 33.5038 4.03875 33.0034 4.15508 32.53C4.15508 32.3545 8.33524 12.9418 8.33524 12.9418C8.54533 11.956 9.51478 11.3272 10.5006 11.5372C11.4864 11.7473 12.1152 12.7168 11.9051 13.7026L10.1494 21.6532L9.85682 23.2333C9.81938 23.2833 9.82434 23.3531 9.86847 23.3973C9.9126 23.4414 9.98246 23.4464 10.0324 23.4089C10.3685 23.3237 10.709 23.2567 11.0523 23.2083C11.9887 23.0912 13.8531 22.9742 13.8531 22.9742C19.041 22.66 23.04 18.2798 22.8819 13.0848C22.7237 7.88983 18.4657 3.76099 13.2682 3.763C8.07084 3.76501 3.81595 7.89714 3.66182 13.0923C3.60815 14.2469 3.78434 15.4006 4.18016 16.4866C4.48007 17.4448 3.98172 18.4708 3.04316 18.8274C2.07599 19.1193 1.04912 18.6058 0.702267 17.657C0.236962 16.2606 -0.000169916 14.7983 0 13.3264ZM147.426 24.9054C147.789 24.0393 148.762 23.6039 149.65 23.9105C150.104 24.0563 150.474 24.389 150.667 24.825C150.86 25.2609 150.858 25.7586 150.661 26.1929C148.438 31.7441 145.311 34.5532 141.131 34.5532C137.452 34.5532 135.579 32.2123 135.579 27.6559C135.761 25.1529 136.153 22.6695 136.75 20.232L137.218 18.1252H132.361C132.85 19.3705 133.088 20.7001 133.063 22.0378C133.09 25.3256 131.949 28.5162 129.844 31.0419C128.141 33.2561 125.506 34.5535 122.713 34.5532C120.932 34.6128 119.211 33.9103 117.981 32.622C116.616 33.8811 114.822 34.5719 112.965 34.5532C110.039 34.5532 108.291 33.3828 107.53 30.9248C105.775 33.3828 103.668 34.5532 101.16 34.5532C99.6124 34.6002 98.1093 34.032 96.9798 32.9731C95.7197 34.0285 94.1338 34.6162 92.4902 34.6368C89.5641 34.6368 87.8085 33.4664 87.056 31.0084C85.3004 33.4664 83.1852 34.6368 80.6771 34.6368C78.8744 34.7099 77.1427 33.9292 76.0037 32.53C75.5321 31.9715 75.1564 31.3387 74.8918 30.6573L74.1895 31.4933C72.6617 33.4663 70.3142 34.6308 67.8189 34.6535C66.0157 34.7869 64.2631 34.0202 63.1372 32.6053C61.9897 30.9507 61.417 28.9652 61.5069 26.9537C61.5069 26.4855 61.5654 25.6662 61.6825 24.5543C63.0963 24.3286 64.4145 23.6985 65.4781 22.7401C66.4946 22.0218 67.1382 20.8878 67.2337 19.6468C67.2908 19.2595 67.1613 18.8682 66.8845 18.5914C66.6078 18.3146 66.2164 18.1852 65.8292 18.2422C64.4793 18.2236 63.1697 18.7027 62.1506 19.5882C61.1453 20.3406 60.3082 21.2945 59.6927 22.3889C59.2021 23.3414 58.8099 24.3415 58.5223 25.3736L56.8502 33.1487C56.7036 34.0022 55.9768 34.6347 55.1112 34.6619C54.5547 34.6641 54.0271 34.4141 53.6762 33.9821C53.3254 33.55 53.189 32.9823 53.3054 32.4381L58.7396 7.06447C58.9128 6.20333 59.6755 5.58821 60.5538 5.60142C61.1108 5.59983 61.6387 5.84955 61.9908 6.2811C62.3428 6.71266 62.4814 7.27999 62.368 7.82526L60.3783 17.0216C61.9566 15.4382 64.1035 14.553 66.3392 14.5637C69.5579 14.5637 71.1296 16.0267 71.1296 18.9529C71.1148 20.6902 70.527 22.3741 69.4576 23.7433C68.3565 25.1886 66.8783 26.3023 65.1854 26.962C65.132 27.2119 65.1123 27.4678 65.1269 27.7228C65.0797 28.5317 65.3065 29.3328 65.7707 29.9968C66.2691 30.6455 67.062 30.9979 67.8775 30.9332C70.6865 30.9332 73.0191 28.1241 74.8333 22.3639C75.3046 20.7638 76.124 19.2878 77.2327 18.0416C79.0905 15.8062 81.8503 14.5182 84.757 14.5302C85.6873 14.5518 86.6113 14.6894 87.5075 14.9399C88.0066 15.048 88.4938 15.2048 88.9622 15.4081C89.5929 15.6695 90.0222 16.2643 90.0717 16.9453C90.1212 17.6262 89.7825 18.2768 89.1963 18.6268C88.7001 18.9625 88.0623 19.0072 87.5242 18.7438C86.6358 18.3648 85.681 18.1659 84.7151 18.1586C82.8047 18.1221 81.003 19.0449 79.9163 20.6166C78.6389 22.3995 78.0024 24.5623 78.1105 26.753C78.0726 27.8358 78.3391 28.9074 78.8796 29.8464C79.2895 30.5566 80.0412 31.0006 80.861 31.0168C82.4344 30.9081 83.8651 30.0658 84.7235 28.7428C85.9345 27.0743 86.8091 25.1859 87.2985 23.1832C87.521 22.2634 88.3998 21.6583 89.3384 21.7786C89.8726 21.8386 90.3573 22.1195 90.675 22.5531C90.9927 22.9868 91.1143 23.5336 91.0105 24.061C90.6837 25.4328 90.4878 26.8324 90.4252 28.2412C90.3548 28.9804 90.5408 29.7213 90.952 30.3396C91.3795 30.8017 91.997 31.0394 92.624 30.9834C93.572 30.9617 94.4827 30.6098 95.199 29.9885C94.9072 29.004 94.769 27.9803 94.7893 26.9537C94.6937 23.7219 95.7718 20.5649 97.8241 18.0667C99.6934 15.8039 102.489 14.5122 105.424 14.5553C106.865 14.5423 108.283 14.9271 109.52 15.6672L111.276 7.03103C111.507 6.03139 112.504 5.40817 113.504 5.63904C114.504 5.8699 115.127 6.86742 114.896 7.86706L111.861 22.0127C111.383 24.0686 111.103 26.1654 111.025 28.2746C110.97 29.005 111.133 29.7354 111.493 30.3731C111.879 30.8336 112.467 31.0744 113.065 31.0168C114.24 30.9787 115.345 30.4477 116.108 29.5537C115.914 28.7319 115.815 27.8902 115.816 27.0456C115.762 23.9001 116.819 20.8363 118.8 18.3927C120.517 15.997 123.293 14.5872 126.241 14.6138H137.945L139.024 9.76486C139.197 8.90372 139.96 8.28859 140.838 8.3018C141.402 8.31191 141.932 8.57358 142.283 9.01524C142.634 9.4569 142.77 10.0323 142.652 10.5842L141.816 14.6724H145.996C146.534 14.679 147.041 14.9253 147.379 15.344C147.717 15.7628 147.851 16.3104 147.744 16.8377C147.6 17.6885 146.859 18.3087 145.996 18.3007H140.98L140.453 20.7587C139.923 23.0855 139.576 25.4504 139.417 27.8315C139.417 29.93 140.06 31.0419 141.348 31.0419C143.806 31.0419 145.796 29.002 147.426 24.9054ZM36.3674 14.6724C33.4361 14.6363 30.6691 16.0229 28.9434 18.3927C26.962 20.8363 25.9052 23.9001 25.9588 27.0456C25.8591 29.0688 26.5281 31.0548 27.8315 32.6053C29.0811 34.0251 30.9082 34.8003 32.7975 34.7121C35.5903 34.7098 38.2242 33.4129 39.9289 31.2007C42.0433 28.6641 43.1844 25.4569 43.1476 22.1549C43.2321 20.2191 42.6768 18.3093 41.5675 16.7206C40.4556 15.3746 38.6999 14.6724 36.3674 14.6724ZM36.4845 29.5203C35.5436 30.4812 34.2593 31.0286 32.9146 31.0419C32.0096 31.0915 31.1368 30.6987 30.5737 29.9885C29.9609 29.1443 29.6649 28.1113 29.7377 27.0707C29.6557 24.8456 30.2917 22.653 31.5519 20.8172C32.5531 19.2353 34.3031 18.2859 36.1751 18.3091C38.2708 18.3091 39.3214 19.5938 39.327 22.1632C39.3627 24.8902 38.3444 27.5257 36.4845 29.5203ZM108.199 21.6867C107.556 24.9054 106.527 27.2463 105.332 28.7679C104.136 30.2894 102.765 31.0419 101.361 31.0419C100.539 31.0253 99.7846 30.5818 99.3708 29.8714C98.8437 28.9487 98.5805 27.8989 98.61 26.8366C98.501 24.6446 99.1408 22.4806 100.424 20.7002C101.291 19.3689 102.698 18.4849 104.273 18.2822C105.849 18.0794 107.434 18.5783 108.609 19.6468L108.199 21.6867ZM126.442 29.4618C127.275 28.4203 127.982 27.2837 128.548 26.0758H128.507C128.986 24.825 129.252 23.5023 129.292 22.1632C129.292 19.5938 128.239 18.3091 126.132 18.3091C124.264 18.3003 122.52 19.2462 121.509 20.8172C120.255 22.6556 119.622 24.8469 119.703 27.0707C119.63 28.1113 119.926 29.1443 120.539 29.9885C121.099 30.6985 121.969 31.0916 122.872 31.0419C124.226 31.0188 125.514 30.4489 126.442 29.4618ZM52.2102 5.60978C51.3319 5.59657 50.5692 6.21169 50.396 7.07283L44.9618 32.4464C44.8454 32.9907 44.9818 33.5584 45.3326 33.9904C45.6835 34.4225 46.2111 34.6724 46.7676 34.6703C47.6459 34.6835 48.4087 34.0683 48.5818 33.2072L54.0244 7.83362C54.1283 7.28967 53.9861 6.72763 53.636 6.29853C53.286 5.86942 52.764 5.61725 52.2102 5.60978Z" fill="#1E1E1E"/>
<path d="M153.528 30.6908C152.946 30.5727 152.341 30.6916 151.847 31.0211C151.352 31.3507 151.01 31.8636 150.895 32.4464C150.77 33.0293 150.886 33.638 151.216 34.1341C151.547 34.6301 152.064 34.9713 152.651 35.0799C153.233 35.2124 153.844 35.0993 154.341 34.7672C154.838 34.4351 155.176 33.9132 155.276 33.3243C155.48 32.1227 154.715 30.9693 153.528 30.6908Z" fill="#E6007A"/>
</g>
</svg>
