<svg width="201" height="25" viewBox="0 0 201 25" fill="none" xmlns="http://www.w3.org/2000/svg">
<path fill-rule="evenodd" clip-rule="evenodd" d="M14.7139 3.00958C14.7139 1.33379 13.4067 0 11.7644 0C10.1221 0 8.81491 1.33379 8.81491 3.00958C8.81491 4.30917 9.61931 5.43776 10.7589 5.84815V21.4432H4.96048V5.84815C6.10005 5.40356 6.90445 4.30917 6.90445 3.00958C6.90445 1.33379 5.5973 0 3.95498 0C2.31266 0 1.0055 1.33379 1.0055 3.00958C1.0055 4.30917 1.80991 5.40356 2.94947 5.84815V21.409H1.0055H0.938469C0.402201 21.4432 0 21.8878 0 22.435C0 23.0164 0.435718 23.461 1.0055 23.461H11.7644H12.0325C18.7359 23.3926 24.3332 20.5882 26.9475 15.9371C27.1151 15.9713 27.2491 15.9713 27.4167 15.9713C29.2936 15.9713 30.8354 14.4323 30.8354 12.4829C30.8354 11.4569 30.3997 10.5335 29.6958 9.88372C30.7349 8.10534 32.2766 6.66895 34.2206 5.60876V16.6211C33.081 17.0657 32.2766 18.1601 32.2766 19.4596C32.2766 21.1354 33.5838 22.4692 35.2261 22.4692C36.8684 22.4692 38.1756 21.1354 38.1756 19.4596C38.1756 18.1601 37.3712 17.0315 36.2316 16.6211V4.68536C37.9745 4.03557 39.9185 3.65937 42.03 3.55677V19.1176C40.8904 19.5622 40.086 20.6566 40.086 21.9562C40.086 23.632 41.3932 24.9658 43.0355 24.9658C44.6778 24.9658 45.985 23.632 45.985 21.9562C45.985 20.6566 45.1806 19.528 44.041 19.1176V3.52257H49.8394V19.1518C48.6999 19.5964 47.8954 20.6908 47.8954 21.9904C47.8954 23.6662 49.2026 25 50.8449 25C52.4872 25 53.7944 23.6662 53.7944 21.9904C53.7944 20.6908 52.99 19.5622 51.8504 19.1518V3.55677H53.7944H53.8614C54.3977 3.52257 54.7999 3.07798 54.7999 2.53078C54.7999 1.94938 54.3642 1.50479 53.7944 1.50479H43.0355H42.7674C36.064 1.57319 30.4667 4.37756 27.8524 9.02873C27.6848 8.99453 27.5508 8.99453 27.3832 8.99453C25.5063 8.99453 23.9645 10.5335 23.9645 12.4829C23.9645 13.5089 24.4002 14.4323 25.1041 15.0821C24.065 16.8605 22.5233 18.2969 20.5793 19.357V8.34473C21.7189 7.90014 22.5233 6.80575 22.5233 5.50616C22.5233 3.83037 21.2161 2.49658 19.5738 2.49658C17.9315 2.49658 16.6243 3.83037 16.6243 5.50616C16.6243 6.80575 17.4287 7.93434 18.5683 8.34473V20.2804C16.8254 20.9302 14.8814 21.3064 12.7699 21.409V5.84815C13.9095 5.40356 14.7139 4.30917 14.7139 3.00958ZM82.8199 12.4487C82.8199 7.69494 79.3677 4.37756 74.7759 4.37756H67.8379V20.5198H74.7759H74.91C79.2336 20.4514 82.8199 16.8947 82.8199 12.4487ZM101.321 20.5198H98.8074L93.4112 7.38714L88.082 20.5198H85.5348L92.3052 4.37756H94.5508L101.321 20.5198ZM117.878 8.99453C117.878 6.46375 116.069 4.37756 113.32 4.37756H104.036V20.5198H106.583V6.70315H113.052C114.393 6.70315 115.298 7.62654 115.298 8.99453C115.298 10.3625 114.393 11.2859 113.052 11.2859H109.466V13.6115H112.415L115.231 20.5198H117.878L114.962 13.3379L115.063 13.3037C116.806 12.6197 117.878 10.9097 117.878 8.99453ZM123.275 4.37756L128.503 17.3735L130.581 11.8673L127.531 4.37756H130.28L135.274 17.3735L140.435 4.37756H143.117L136.38 20.5198H134.134L131.922 15.0137L129.576 20.5198H127.33L120.56 4.37756H123.275ZM150.055 20.5198H147.507V4.37756H150.055V20.5198ZM158.266 4.37756L169.662 16.6553V4.37756H172.209V20.5198H170.031L158.635 8.24213V20.5198H156.088V4.37756H158.266ZM180.789 20.5198H178.242V4.37756H180.789V20.5198ZM201 20.5198H198.486L193.09 7.38714L187.727 20.5198H185.18L191.95 4.37756H194.196L201 20.5198ZM70.3852 6.70315H74.7759C77.9265 6.70315 80.2391 9.19973 80.2391 12.4487C80.2391 15.6977 77.8929 18.2285 74.7759 18.2285H70.3852V6.70315Z" fill="#313132"/>
</svg>
