<svg width="120" height="26" viewBox="0 0 120 26" fill="none" xmlns="http://www.w3.org/2000/svg">
<path fill-rule="evenodd" clip-rule="evenodd" d="M31.0894 14.0302H39.7318C39.0746 11.7602 37.2673 10.7072 35.46 10.7072C33.6854 10.7072 31.7794 11.7602 31.0894 14.0302ZM35.6243 25.117C33.1925 25.117 30.9906 24.0644 29.3804 22.2879C27.8361 20.643 27.0142 18.373 27.0142 15.9713C27.0142 10.7733 30.662 6.89116 35.46 6.89116C40.2907 6.89116 43.807 10.7072 43.807 15.9713C43.807 17.0238 42.9523 17.8795 41.8681 17.8795H31.1222C31.7794 19.8862 33.4879 21.301 35.6243 21.301C37.3001 21.301 38.6473 20.8403 39.4032 19.4584C39.9617 18.5371 41.145 18.2741 42.032 18.8004C42.9523 19.3599 43.2153 20.5441 42.6897 21.4322C41.2105 24.0973 38.6473 25.117 35.6243 25.117Z" fill="#313132"/>
<path fill-rule="evenodd" clip-rule="evenodd" d="M85.4058 16.0206C85.4058 12.9443 83.2768 10.7279 80.3926 10.7279C77.4741 10.7279 75.3794 12.9443 75.3794 16.0206C75.3794 19.0639 77.4741 21.2798 80.3926 21.2798C83.2768 21.2798 85.4058 19.0639 85.4058 16.0206ZM89.389 14.3127V23.1984C89.389 24.2571 88.4959 25.117 87.3969 25.117C86.4358 25.117 85.6464 24.4885 85.44 23.6286C83.9982 24.5879 82.2467 25.117 80.3926 25.117C77.8517 25.117 75.5511 24.1577 73.8686 22.3715C72.2893 20.7177 71.3967 18.4353 71.3967 16.0206C71.3967 13.5728 72.2893 11.2905 73.8686 9.63667C75.5511 7.85005 77.8517 6.89116 80.3926 6.89116C82.2467 6.89116 83.9982 7.4203 85.44 8.3796C87.7745 9.8334 89.389 12.6589 89.389 14.3127Z" fill="#313132"/>
<path fill-rule="evenodd" clip-rule="evenodd" d="M101.695 22.9803C100.733 24.0578 99.3246 24.6975 97.8471 24.6975C95.0643 24.6975 92.7968 22.4753 92.7968 19.7486V10.0529C91.7653 10.0193 90.9068 9.14416 90.9068 8.10025C90.9068 7.05676 91.7653 6.18159 92.7968 6.14759V3.99345C92.7968 2.91596 93.69 2.04037 94.8235 2.04037C95.9228 2.04037 96.8164 2.91596 96.8164 3.99345V6.14759H99.3589C100.458 6.14759 101.352 7.02318 101.352 8.10025C101.352 9.17774 100.458 10.0529 99.3589 10.0529H96.8164V19.7486C96.8164 20.3208 97.2627 20.7921 97.8471 20.7921C98.2592 20.7921 98.5342 20.5567 98.637 20.4219C99.3589 19.6139 100.63 19.5127 101.455 20.22C102.313 20.8933 102.417 22.1391 101.695 22.9803Z" fill="#313132"/>
<path fill-rule="evenodd" clip-rule="evenodd" d="M106.657 14.0302H115.3C114.643 11.7602 112.835 10.7072 111.028 10.7072C109.253 10.7072 107.347 11.7602 106.657 14.0302ZM111.192 25.117C108.76 25.117 106.558 24.0644 104.948 22.2879C103.404 20.643 102.582 18.373 102.582 15.9713C102.582 10.7733 106.23 6.89116 111.028 6.89116C115.859 6.89116 119.375 10.7072 119.375 15.9713C119.375 17.0238 118.521 17.8795 117.436 17.8795H106.69C107.347 19.8862 109.056 21.301 111.192 21.301C112.868 21.301 114.215 20.8403 114.971 19.4584C115.53 18.5371 116.713 18.2741 117.6 18.8004C118.521 19.3599 118.784 20.5441 118.258 21.4322C116.779 24.0973 114.215 25.117 111.192 25.117Z" fill="#313132"/>
<path fill-rule="evenodd" clip-rule="evenodd" d="M12.2646 0.882324H2.95332C2.23005 0.882324 1.58377 1.2163 1.1566 1.74028C1.1095 1.79878 1.06445 1.85935 1.02268 1.92199C0.771621 2.29828 0.625 2.75215 0.625 3.24046C0.625 4.49171 1.58827 5.51271 2.80343 5.59112L2.828 5.61726H12.2203C16.0509 5.61726 19.1852 8.79228 19.1852 12.673C19.1852 16.5537 16.0509 19.7291 12.2203 19.7291H6.25147C5.72233 19.7242 5.29434 19.2931 5.28492 18.7583H5.28165V19.7291L5.28083 15.0311H12.3821C13.6624 15.0311 14.7104 13.9695 14.7104 12.6726C14.7104 11.3757 13.6624 10.3144 12.3821 10.3144H2.95332C2.95046 10.3144 2.948 10.3149 2.94513 10.3149H2.88738C1.64315 10.3149 0.625 11.3462 0.625 12.607V22.1719C0.625 23.4323 1.64315 24.4637 2.88738 24.4637H12.2646C18.6663 24.4637 23.9041 19.1579 23.9041 12.673C23.9041 6.18812 18.6663 0.882324 12.2646 0.882324Z" fill="#313132"/>
<path fill-rule="evenodd" clip-rule="evenodd" d="M5.42135 16.6116H5.42539C5.43701 15.941 5.96652 15.4007 6.62084 15.3966H5.42135V16.6116Z" fill="#313132"/>
<path fill-rule="evenodd" clip-rule="evenodd" d="M64.2002 16.6116H64.1972C64.1851 15.941 63.6548 15.4007 63.0007 15.3966H64.2002V16.6116Z" fill="#313132"/>
<path fill-rule="evenodd" clip-rule="evenodd" d="M57.1196 0.884099H66.5236C67.254 0.884099 67.9063 1.2273 68.3377 1.76576C68.3857 1.82587 68.4312 1.88812 68.4729 1.9525C68.7265 2.33918 68.8746 2.80559 68.8746 3.30739C68.8746 4.59322 67.9021 5.64243 66.6745 5.72301L66.6501 5.74987H57.1647C53.2957 5.74987 50.1303 9.01262 50.1303 13.0006C50.1303 16.9885 53.2957 20.2517 57.1647 20.2517H63.1923C63.7267 20.2466 64.1593 19.8036 64.1689 19.254H64.1722V20.2517L64.1726 15.4239H57.0009C55.7079 15.4239 54.6499 14.3329 54.6499 13.0001C54.6499 11.6674 55.7079 10.5768 57.0009 10.5768H66.5236C66.526 10.5768 66.5289 10.5773 66.5314 10.5773H66.5897C67.8467 10.5773 68.8746 11.6371 68.8746 12.9328V22.7619C68.8746 24.0571 67.8467 25.117 66.5897 25.117H57.1196C50.6544 25.117 45.3646 19.6646 45.3646 13.0006C45.3646 6.33651 50.6544 0.884099 57.1196 0.884099Z" fill="#313132"/>
</svg>
