<svg width="94" height="10" viewBox="0 0 94 10" fill="none" xmlns="http://www.w3.org/2000/svg">
<path d="M3.1439 0.656049C2.9639 0.656049 2.8739 0.770048 2.8739 0.998048C2.8739 1.05805 2.8799 1.13005 2.8919 1.21405C2.9159 1.29805 2.9639 1.43605 3.0359 1.62805L4.9619 6.63205H4.9979L6.9059 1.55605C6.9659 1.40005 7.0019 1.28605 7.0139 1.21405C7.0379 1.13005 7.0499 1.05805 7.0499 0.998048C7.0499 0.770048 6.9719 0.656049 6.8159 0.656049V0.332048H9.8939V0.656049C9.8099 0.656049 9.7499 0.686049 9.7139 0.746048C9.6779 0.806048 9.6599 0.872048 9.6599 0.944049C9.6599 1.06405 9.7199 1.26805 9.8399 1.55605L11.7659 6.63205H11.8019L13.7459 1.44805C13.8299 1.26805 13.8719 1.10605 13.8719 0.962048C13.8719 0.890049 13.8419 0.824049 13.7819 0.764048C13.7219 0.692048 13.6499 0.656049 13.5659 0.656049V0.332048H16.2299V0.656049C16.0979 0.656049 15.9959 0.728049 15.9239 0.872048C15.8639 1.01605 15.7919 1.19605 15.7079 1.41205L13.1159 8.28805C13.0439 8.48005 12.9779 8.64805 12.9179 8.79205C12.8699 8.93605 12.8459 9.05605 12.8459 9.15205C12.8459 9.23605 12.8759 9.31405 12.9359 9.38605C12.9959 9.44605 13.0799 9.47605 13.1879 9.47605V9.80005H10.3439V9.47605C10.4159 9.45205 10.4879 9.41605 10.5599 9.36805C10.6439 9.32005 10.6859 9.25405 10.6859 9.17005C10.6859 9.07405 10.6619 8.96605 10.6139 8.84605C10.5779 8.72605 10.5119 8.55805 10.4159 8.34205L8.3459 3.03205H8.3099L6.3479 8.23405C6.1679 8.70205 6.0779 8.99605 6.0779 9.11605C6.0779 9.30805 6.1559 9.42805 6.3119 9.47605V9.80005H3.5219V9.47605C3.5939 9.47605 3.6659 9.45805 3.7379 9.42205C3.8099 9.38605 3.8459 9.32605 3.8459 9.24205C3.8459 9.14605 3.8219 9.04405 3.7739 8.93605C3.7379 8.82805 3.6959 8.71405 3.6479 8.59405L0.767898 1.16005C0.719898 1.02805 0.665898 0.920048 0.605898 0.836048C0.557898 0.740048 0.473898 0.680048 0.353898 0.656049V0.332048H3.1439V0.656049ZM22.2839 3.10405C21.8999 3.10405 21.5219 3.17005 21.1499 3.30205C20.7899 3.42205 20.4659 3.60205 20.1779 3.84205C19.8899 4.07005 19.6559 4.35205 19.4759 4.68805C19.3079 5.02405 19.2239 5.40805 19.2239 5.84005C19.2239 6.27205 19.3079 6.65605 19.4759 6.99205C19.6559 7.32805 19.8899 7.61605 20.1779 7.85605C20.4659 8.08405 20.7899 8.26405 21.1499 8.39605C21.5219 8.51605 21.8999 8.57605 22.2839 8.57605C22.6679 8.57605 23.0399 8.51605 23.3999 8.39605C23.7719 8.26405 24.1019 8.08405 24.3899 7.85605C24.6779 7.61605 24.9059 7.32805 25.0739 6.99205C25.2539 6.65605 25.3439 6.27205 25.3439 5.84005C25.3439 5.40805 25.2539 5.02405 25.0739 4.68805C24.9059 4.35205 24.6779 4.07005 24.3899 3.84205C24.1019 3.60205 23.7719 3.42205 23.3999 3.30205C23.0399 3.17005 22.6679 3.10405 22.2839 3.10405ZM22.2839 1.77205C22.9439 1.77205 23.5619 1.85605 24.1379 2.02405C24.7259 2.19205 25.2359 2.44405 25.6679 2.78005C26.0999 3.11605 26.4419 3.54205 26.6939 4.05805C26.9459 4.56205 27.0719 5.15605 27.0719 5.84005C27.0719 6.52405 26.9459 7.12405 26.6939 7.64005C26.4419 8.14405 26.0999 8.56405 25.6679 8.90005C25.2359 9.23605 24.7259 9.48205 24.1379 9.63805C23.5619 9.78205 22.9439 9.85405 22.2839 9.85405C21.6239 9.85405 20.9999 9.78205 20.4119 9.63805C19.8359 9.48205 19.3319 9.23605 18.8999 8.90005C18.4679 8.56405 18.1259 8.14405 17.8739 7.64005C17.6219 7.12405 17.4959 6.52405 17.4959 5.84005C17.4959 5.15605 17.6219 4.56205 17.8739 4.05805C18.1259 3.54205 18.4679 3.11605 18.8999 2.78005C19.3319 2.44405 19.8359 2.19205 20.4119 2.02405C20.9999 1.85605 21.6239 1.77205 22.2839 1.77205ZM34.1339 5.30005C35.3099 5.30005 35.8979 4.92805 35.8979 4.18405C35.8979 3.88405 35.7539 3.65005 35.4659 3.48205C35.1899 3.30205 34.7459 3.21205 34.1339 3.21205H31.2899V5.30005H34.1339ZM34.1699 1.88005C35.2379 1.88005 36.0719 2.06005 36.6719 2.42005C37.2719 2.76805 37.5719 3.36805 37.5719 4.22005C37.5719 4.54405 37.5119 4.83205 37.3919 5.08405C37.2719 5.33605 37.1099 5.55805 36.9059 5.75005C36.7139 5.93005 36.4979 6.08005 36.2579 6.20005C36.0179 6.30805 35.7719 6.39205 35.5199 6.45205L37.2839 9.02605C37.3799 9.15805 37.4819 9.26005 37.5899 9.33205C37.7099 9.39205 37.8359 9.44005 37.9679 9.47605V9.80005H35.2139V9.47605C35.3699 9.47605 35.4479 9.42205 35.4479 9.31405C35.4479 9.19405 35.3579 9.00805 35.1779 8.75605L33.7559 6.63205H31.2539V9.20605C31.2539 9.30205 31.2899 9.37405 31.3619 9.42205C31.4459 9.45805 31.5239 9.47605 31.5959 9.47605V9.80005H29.2019V9.47605C29.4179 9.47605 29.5259 9.38605 29.5259 9.20605V2.47405C29.5259 2.29405 29.4179 2.20405 29.2019 2.20405V1.88005H34.1699ZM40.4758 9.47605C40.5358 9.46405 40.5838 9.44005 40.6198 9.40405C40.6678 9.36805 40.6918 9.28405 40.6918 9.15205V2.56405C40.6918 2.39605 40.6738 2.29405 40.6378 2.25805C40.6138 2.22205 40.5598 2.20405 40.4758 2.20405V1.88005H42.9778V2.20405C42.8578 2.20405 42.7978 2.25805 42.7978 2.36605C42.7978 2.41405 42.8158 2.48005 42.8518 2.56405C42.8998 2.63605 42.9658 2.74405 43.0498 2.88805L45.2458 6.93805L47.4598 2.90605C47.5438 2.76205 47.6098 2.64805 47.6578 2.56405C47.7058 2.46805 47.7298 2.40205 47.7298 2.36605C47.7298 2.25805 47.6818 2.20405 47.5858 2.20405V1.88005H50.1238V2.20405C50.0638 2.20405 50.0038 2.22205 49.9438 2.25805C49.8958 2.28205 49.8718 2.34205 49.8718 2.43805V9.20605C49.8718 9.30205 49.8958 9.37405 49.9438 9.42205C50.0038 9.45805 50.0638 9.47605 50.1238 9.47605V9.80005H48.0358V9.47605C48.2878 9.47605 48.3958 9.38605 48.3598 9.20605V4.14805H48.3238L45.2638 9.80005H45.1198L42.2218 4.14805H42.2398H42.2038V9.20605C42.2038 9.38605 42.3058 9.47605 42.5098 9.47605V9.80005H40.4758V9.47605ZM55.374 9.20605C55.374 9.30205 55.398 9.37405 55.446 9.42205C55.506 9.45805 55.572 9.47605 55.644 9.47605V9.80005H53.376V9.47605C53.448 9.47605 53.508 9.45805 53.556 9.42205C53.616 9.37405 53.646 9.30205 53.646 9.20605V2.47405C53.646 2.37805 53.616 2.31205 53.556 2.27605C53.508 2.22805 53.448 2.20405 53.376 2.20405V1.88005H55.644V2.20405C55.572 2.20405 55.506 2.22805 55.446 2.27605C55.398 2.31205 55.374 2.37805 55.374 2.47405V5.01205H60.198V2.47405C60.198 2.37805 60.168 2.31205 60.108 2.27605C60.06 2.22805 60 2.20405 59.928 2.20405V1.88005H62.196V2.20405C62.124 2.20405 62.058 2.22805 61.998 2.27605C61.95 2.31205 61.926 2.37805 61.926 2.47405V9.20605C61.926 9.30205 61.95 9.37405 61.998 9.42205C62.058 9.45805 62.124 9.47605 62.196 9.47605V9.80005H59.928V9.47605C60 9.47605 60.06 9.45805 60.108 9.42205C60.168 9.37405 60.198 9.30205 60.198 9.20605V6.48805H55.374V9.20605ZM69.2879 3.10405C68.9039 3.10405 68.5259 3.17005 68.1539 3.30205C67.7939 3.42205 67.4699 3.60205 67.1819 3.84205C66.8939 4.07005 66.6599 4.35205 66.4799 4.68805C66.3119 5.02405 66.2279 5.40805 66.2279 5.84005C66.2279 6.27205 66.3119 6.65605 66.4799 6.99205C66.6599 7.32805 66.8939 7.61605 67.1819 7.85605C67.4699 8.08405 67.7939 8.26405 68.1539 8.39605C68.5259 8.51605 68.9039 8.57605 69.2879 8.57605C69.6719 8.57605 70.0439 8.51605 70.4039 8.39605C70.7759 8.26405 71.1059 8.08405 71.3939 7.85605C71.6819 7.61605 71.9099 7.32805 72.0779 6.99205C72.2579 6.65605 72.3479 6.27205 72.3479 5.84005C72.3479 5.40805 72.2579 5.02405 72.0779 4.68805C71.9099 4.35205 71.6819 4.07005 71.3939 3.84205C71.1059 3.60205 70.7759 3.42205 70.4039 3.30205C70.0439 3.17005 69.6719 3.10405 69.2879 3.10405ZM69.2879 1.77205C69.9479 1.77205 70.5659 1.85605 71.1419 2.02405C71.7299 2.19205 72.2399 2.44405 72.6719 2.78005C73.1039 3.11605 73.4459 3.54205 73.6979 4.05805C73.9499 4.56205 74.0759 5.15605 74.0759 5.84005C74.0759 6.52405 73.9499 7.12405 73.6979 7.64005C73.4459 8.14405 73.1039 8.56405 72.6719 8.90005C72.2399 9.23605 71.7299 9.48205 71.1419 9.63805C70.5659 9.78205 69.9479 9.85405 69.2879 9.85405C68.6279 9.85405 68.0039 9.78205 67.4159 9.63805C66.8399 9.48205 66.3359 9.23605 65.9039 8.90005C65.4719 8.56405 65.1299 8.14405 64.8779 7.64005C64.6259 7.12405 64.4999 6.52405 64.4999 5.84005C64.4999 5.15605 64.6259 4.56205 64.8779 4.05805C65.1299 3.54205 65.4719 3.11605 65.9039 2.78005C66.3359 2.44405 66.8399 2.19205 67.4159 2.02405C68.0039 1.85605 68.6279 1.77205 69.2879 1.77205ZM78.7798 1.88005V2.20405C78.5038 2.20405 78.3658 2.29405 78.3658 2.47405V8.46805H83.2258C83.3698 8.46805 83.4898 8.43805 83.5858 8.37805C83.6818 8.30605 83.7298 8.21005 83.7298 8.09005H84.0538V9.98005H83.7298C83.7298 9.88405 83.6818 9.83005 83.5858 9.81805C83.4898 9.80605 83.3698 9.80005 83.2258 9.80005H76.1698V9.47605C76.4818 9.47605 76.6378 9.38605 76.6378 9.20605V2.47405C76.6378 2.29405 76.4818 2.20405 76.1698 2.20405V1.88005H78.7798ZM93.2277 3.55405C93.2277 3.32605 93.0417 3.21205 92.6697 3.21205H88.2777V5.01205H91.0497C91.2537 5.01205 91.4037 5.00005 91.4997 4.97605C91.5957 4.94005 91.6437 4.85605 91.6437 4.72405H91.9677V6.63205H91.6077C91.6437 6.50005 91.5957 6.42205 91.4637 6.39805C91.3317 6.36205 91.1457 6.34405 90.9057 6.34405H88.2777V8.46805H92.8857C93.0297 8.46805 93.1497 8.43805 93.2457 8.37805C93.3417 8.30605 93.3897 8.21605 93.3897 8.10805H93.7137V9.99805H93.3897C93.3897 9.89005 93.3417 9.83005 93.2457 9.81805C93.1497 9.80605 93.0297 9.80005 92.8857 9.80005H86.2797V9.47605C86.3397 9.47605 86.3997 9.45805 86.4597 9.42205C86.5197 9.37405 86.5497 9.30205 86.5497 9.20605V2.47405C86.5497 2.37805 86.5197 2.31205 86.4597 2.27605C86.3997 2.22805 86.3397 2.20405 86.2797 2.20405V1.88005H92.6697C93.0417 1.88005 93.2277 1.77205 93.2277 1.55605H93.5517V3.55405H93.2277Z" fill="#080C20"/>
</svg>
