<svg width="151" height="36" viewBox="0 0 151 36" fill="none" xmlns="http://www.w3.org/2000/svg">
<path fill-rule="evenodd" clip-rule="evenodd" d="M135.112 5.31895C130.134 5.29842 125.732 7.80986 123.069 11.6225C121.99 13.166 121.196 14.9267 120.764 16.8265C120.739 16.4778 120.727 16.1258 120.727 15.7707C120.727 7.67081 127.242 1.10452 135.279 1.10452C144.011 1.10452 150.151 7.18022 150.151 14.675C150.151 20.5104 146.429 25.4856 141.205 27.4025C139.935 27.839 138.638 28.0769 137.286 28.0769C131.004 28.0769 125.578 22.9446 125.578 16.6136C125.578 15.526 125.728 14.4737 126.343 13.4767C126.112 14.0916 126.079 14.548 126.079 15.0121C126.079 20.2724 130.478 24.3682 135.697 24.3682C140.916 24.3682 145.147 20.1038 145.147 14.8436C145.147 10.3888 142.113 6.64832 138.014 5.6072C137.178 5.4388 136.324 5.32294 135.112 5.31895Z" fill="#313132"/>
<path fill-rule="evenodd" clip-rule="evenodd" d="M121.5 13.6408C121.867 12.863 122.298 12.1216 122.786 11.4237C125.51 7.52378 130.015 4.95107 135.114 4.972M121.5 13.6408C122.597 9.44222 125.726 6.05066 129.791 4.55769C131.027 4.13327 132.285 3.90339 133.594 3.90339C136.12 3.90339 138.502 4.75848 140.426 6.19565C139.702 5.79281 138.922 5.4796 138.1 5.27092L138.083 5.26709C137.229 5.09481 136.351 4.97609 135.114 4.972M144.914 18.201C145.508 17.1687 145.649 16.0913 145.649 15.0197C145.649 8.48678 140.057 3.20958 133.594 3.20958C132.2 3.20958 130.865 3.45498 129.562 3.90274L129.556 3.90513C126.501 5.02614 123.945 7.16809 122.314 9.91313C124.535 4.92439 129.507 1.45137 135.28 1.45137C143.843 1.45137 149.806 7.39337 149.806 14.6749C149.806 14.694 149.806 14.713 149.806 14.732L149.778 14.7299C149.356 16.5852 148.581 18.3047 147.527 19.8121C144.924 23.5374 140.627 25.9875 135.77 25.9675C134.587 25.9636 133.757 25.8514 132.944 25.6878C129.292 24.7567 126.518 21.5998 126.127 17.7307C127.344 21.8205 131.238 24.715 135.698 24.715C139.941 24.715 143.551 21.9989 144.914 18.201ZM144.754 13.9025C144.364 10.0335 141.589 6.87658 137.938 5.9455C137.124 5.78193 136.294 5.66969 135.112 5.6658C130.255 5.64577 125.957 8.09587 123.354 11.8211C122.301 13.3285 121.526 15.0481 121.104 16.9034L121.076 16.9012C121.076 16.9203 121.076 16.9393 121.076 16.9584C121.076 24.2399 127.039 30.1819 135.601 30.1819C141.375 30.1819 146.346 26.7089 148.567 21.7202C146.936 24.4652 144.381 26.6071 141.326 27.7282L141.319 27.7306C140.017 28.1784 138.681 28.4237 137.287 28.4237C130.825 28.4237 125.232 23.1465 125.232 16.6136C125.232 15.5419 125.374 14.4646 125.967 13.4323C127.33 9.63437 130.941 6.91828 135.183 6.91828C139.644 6.91828 143.537 9.81281 144.754 13.9025ZM126.649 13.5885C127.938 10.0972 131.274 7.61208 135.183 7.61208C140.224 7.61208 144.454 11.5658 144.454 16.6212C144.454 17.0599 144.424 17.4715 144.212 18.0347L144.233 18.0448C142.944 21.5361 139.608 24.0212 135.698 24.0212C130.657 24.0212 126.428 20.0675 126.428 15.0121C126.428 14.5734 126.458 14.1618 126.669 13.5986L126.649 13.5885ZM130.455 25.4376C132.379 26.8748 134.761 27.7299 137.287 27.7299C138.597 27.7299 139.855 27.5 141.09 27.0756C145.155 25.5826 148.285 22.1911 149.382 17.9924C149.014 18.7703 148.584 19.5116 148.096 20.2095C145.371 24.1095 140.866 26.6823 135.767 26.6613C134.53 26.6572 133.653 26.5385 132.798 26.3662L132.781 26.3624C131.959 26.1537 131.179 25.8405 130.455 25.4376ZM150.488 15.2499C150.496 15.0592 150.5 14.8675 150.5 14.6749C150.5 6.96697 144.181 0.757568 135.28 0.757568C127.049 0.757568 120.381 7.48173 120.381 15.7707C120.381 15.9759 120.386 16.1802 120.394 16.3834C120.386 16.5741 120.382 16.7658 120.382 16.9584C120.382 24.6663 126.7 30.8757 135.601 30.8757C143.832 30.8757 150.5 24.1516 150.5 15.8626C150.5 15.6574 150.496 15.4531 150.488 15.2499Z" fill="#313132"/>
<path d="M0.5 27.6972V3.2354H8.83769C11.0886 3.2354 12.8687 3.84981 14.1779 5.07865C15.4872 6.30748 16.1418 7.94401 16.1418 9.98824C16.1418 11.7798 15.6078 13.2498 14.5397 14.3983C13.4717 15.5467 11.9844 16.2587 10.078 16.5344L19.5182 27.6972H15.4872L6.08143 16.5688H3.70415V27.6972H0.5ZM3.70415 13.7092H8.4587C9.88277 13.7092 10.9853 13.3934 11.7662 12.7617C12.5472 12.1301 12.9376 11.2056 12.9376 9.98824C12.9376 8.77089 12.5472 7.83491 11.7662 7.1803C10.9853 6.52568 9.88277 6.19838 8.4587 6.19838H3.70415V13.7092Z" fill="#313132"/>
<path d="M24.9268 5.26812C24.5363 5.65859 24.0425 5.85382 23.4453 5.85382C22.8481 5.85382 22.3428 5.65285 21.9294 5.25089C21.5159 4.84894 21.3092 4.34936 21.3092 3.75217C21.3092 3.17795 21.5159 2.68412 21.9294 2.27068C22.3428 1.85724 22.8481 1.65052 23.4453 1.65052C24.0425 1.65052 24.5363 1.85724 24.9268 2.27068C25.3173 2.68412 25.5125 3.17795 25.5125 3.75217C25.5125 4.34936 25.3173 4.85468 24.9268 5.26812ZM21.9294 27.6972V10.4706H24.8924V27.6972H21.9294Z" fill="#313132"/>
<path d="M30.5067 27.6972V10.4705H33.4697V13.1234C34.6411 11.1251 36.4671 10.126 38.9478 10.126C40.9001 10.126 42.4735 10.7576 43.6679 12.0209C44.8623 13.2842 45.4594 14.9724 45.4594 17.0856V27.6972H42.5309V17.5335C42.5309 16.0864 42.1634 14.9437 41.4284 14.1054C40.6934 13.267 39.7057 12.8478 38.4654 12.8478C37.0414 12.8478 35.8527 13.4105 34.8995 14.536C33.9463 15.6615 33.4697 17.2004 33.4697 19.1528V27.6972H30.5067Z" fill="#313132"/>
<path d="M58.3798 35.2424C56.1059 35.2424 54.2167 34.6854 52.7123 33.5715C51.2078 32.4575 50.3178 31.0277 50.0421 29.282H52.9362C53.6942 31.51 55.5317 32.624 58.4487 32.624C60.0795 32.624 61.3945 32.1014 62.3936 31.0564C63.3928 30.0113 63.8923 28.547 63.8923 26.6636V24.6308C63.2722 25.5496 62.4338 26.2846 61.3773 26.8358C60.3207 27.3871 59.1608 27.6627 57.8975 27.6627C55.4858 27.6627 53.476 26.8186 51.8682 25.1304C50.2603 23.4422 49.4564 21.3578 49.4564 18.8771C49.4564 16.4195 50.2661 14.3465 51.8854 12.6583C53.5047 10.9701 55.5087 10.126 57.8975 10.126C59.1608 10.126 60.3207 10.4016 61.3773 10.9529C62.4338 11.5041 63.2722 12.2277 63.8923 13.1234V10.4705H66.8553V26.6291C66.8553 29.3854 66.0572 31.51 64.4608 33.003C62.8645 34.4959 60.8375 35.2424 58.3798 35.2424ZM54.1076 23.2182C55.1872 24.3437 56.5883 24.9065 58.3109 24.9065C60.0336 24.9065 61.4347 24.338 62.5142 23.201C63.5938 22.0641 64.1335 20.6228 64.1335 18.8771C64.1335 17.1315 63.588 15.6902 62.497 14.5532C61.406 13.4163 60.0106 12.8478 58.3109 12.8478C56.6112 12.8478 55.2159 13.4163 54.1248 14.5532C53.0338 15.6902 52.4883 17.1315 52.4883 18.8771C52.4883 20.6228 53.0281 22.0698 54.1076 23.2182Z" fill="#313132"/>
<path d="M72.8844 27.6972V3.2354H79.9129C83.6568 3.2354 86.7633 4.39532 89.2325 6.71518C91.7016 9.03503 92.9362 11.9521 92.9362 15.4663C92.9362 18.9805 91.7016 21.8976 89.2325 24.2174C86.7633 26.5373 83.6568 27.6972 79.9129 27.6972H72.8844ZM76.0886 24.6998H79.9129C82.8299 24.6998 85.19 23.8327 86.993 22.0986C88.7961 20.3644 89.6976 18.1537 89.6976 15.4663C89.6976 12.779 88.7961 10.5682 86.993 8.83405C85.19 7.09991 82.8299 6.23283 79.9129 6.23283H76.0886V24.6998Z" fill="#313132"/>
<path d="M94.6938 27.6972L105.512 3.2354H108.165L119.018 27.6972H115.676L112.506 20.5654H101.102L98.0014 27.6972H94.6938ZM106.787 7.57651L102.377 17.6713H111.231L106.787 7.57651Z" fill="#313132"/>
</svg>
