<svg width="156" height="17" viewBox="0 0 156 17" fill="none" xmlns="http://www.w3.org/2000/svg">
<path d="M4.9052 0.76C4.6052 0.76 4.4552 0.949999 4.4552 1.33C4.4552 1.43 4.4652 1.55 4.4852 1.69C4.5252 1.83 4.6052 2.06 4.7252 2.38L7.9352 10.72H7.9952L11.1752 2.26C11.2752 2 11.3352 1.81 11.3552 1.69C11.3952 1.55 11.4152 1.43 11.4152 1.33C11.4152 0.949999 11.2852 0.76 11.0252 0.76V0.219999H16.1552V0.76C16.0152 0.76 15.9152 0.809999 15.8552 0.909999C15.7952 1.01 15.7652 1.12 15.7652 1.24C15.7652 1.44 15.8652 1.78 16.0652 2.26L19.2752 10.72H19.3352L22.5752 2.08C22.7152 1.78 22.7852 1.51 22.7852 1.27C22.7852 1.15 22.7352 1.04 22.6352 0.939999C22.5352 0.819999 22.4152 0.76 22.2752 0.76V0.219999H26.7152V0.76C26.4952 0.76 26.3252 0.879999 26.2052 1.12C26.1052 1.36 25.9852 1.66 25.8452 2.02L21.5252 13.48C21.4052 13.8 21.2952 14.08 21.1952 14.32C21.1152 14.56 21.0752 14.76 21.0752 14.92C21.0752 15.06 21.1252 15.19 21.2252 15.31C21.3252 15.41 21.4652 15.46 21.6452 15.46V16H16.9052V15.46C17.0252 15.42 17.1452 15.36 17.2652 15.28C17.4052 15.2 17.4752 15.09 17.4752 14.95C17.4752 14.79 17.4352 14.61 17.3552 14.41C17.2952 14.21 17.1852 13.93 17.0252 13.57L13.5752 4.72H13.5152L10.2452 13.39C9.9452 14.17 9.7952 14.66 9.7952 14.86C9.7952 15.18 9.9252 15.38 10.1852 15.46V16H5.5352V15.46C5.6552 15.46 5.7752 15.43 5.8952 15.37C6.0152 15.31 6.0752 15.21 6.0752 15.07C6.0752 14.91 6.0352 14.74 5.9552 14.56C5.8952 14.38 5.8252 14.19 5.7452 13.99L0.945195 1.6C0.865195 1.38 0.775195 1.2 0.675195 1.06C0.595195 0.899999 0.455195 0.799999 0.255195 0.76V0.219999H4.9052V0.76ZM36.8053 4.84C36.1653 4.84 35.5353 4.95 34.9153 5.17C34.3153 5.37 33.7753 5.67 33.2953 6.07C32.8153 6.45 32.4253 6.92 32.1253 7.48C31.8453 8.04 31.7053 8.68 31.7053 9.4C31.7053 10.12 31.8453 10.76 32.1253 11.32C32.4253 11.88 32.8153 12.36 33.2953 12.76C33.7753 13.14 34.3153 13.44 34.9153 13.66C35.5353 13.86 36.1653 13.96 36.8053 13.96C37.4453 13.96 38.0653 13.86 38.6653 13.66C39.2853 13.44 39.8353 13.14 40.3153 12.76C40.7953 12.36 41.1753 11.88 41.4553 11.32C41.7553 10.76 41.9053 10.12 41.9053 9.4C41.9053 8.68 41.7553 8.04 41.4553 7.48C41.1753 6.92 40.7953 6.45 40.3153 6.07C39.8353 5.67 39.2853 5.37 38.6653 5.17C38.0653 4.95 37.4453 4.84 36.8053 4.84ZM36.8053 2.62C37.9053 2.62 38.9353 2.76 39.8953 3.04C40.8753 3.32 41.7253 3.74 42.4453 4.3C43.1653 4.86 43.7353 5.57 44.1553 6.43C44.5753 7.27 44.7853 8.26 44.7853 9.4C44.7853 10.54 44.5753 11.54 44.1553 12.4C43.7353 13.24 43.1653 13.94 42.4453 14.5C41.7253 15.06 40.8753 15.47 39.8953 15.73C38.9353 15.97 37.9053 16.09 36.8053 16.09C35.7053 16.09 34.6653 15.97 33.6853 15.73C32.7253 15.47 31.8853 15.06 31.1653 14.5C30.4453 13.94 29.8753 13.24 29.4553 12.4C29.0353 11.54 28.8253 10.54 28.8253 9.4C28.8253 8.26 29.0353 7.27 29.4553 6.43C29.8753 5.57 30.4453 4.86 31.1653 4.3C31.8853 3.74 32.7253 3.32 33.6853 3.04C34.6653 2.76 35.7053 2.62 36.8053 2.62ZM56.5551 8.5C58.5151 8.5 59.4951 7.88 59.4951 6.64C59.4951 6.14 59.2551 5.75 58.7751 5.47C58.3151 5.17 57.5751 5.02 56.5551 5.02H51.8151V8.5H56.5551ZM56.6151 2.8C58.3951 2.8 59.7851 3.1 60.7851 3.7C61.7851 4.28 62.2851 5.28 62.2851 6.7C62.2851 7.24 62.1851 7.72 61.9851 8.14C61.7851 8.56 61.5151 8.93 61.1751 9.25C60.8551 9.55 60.4951 9.8 60.0951 10C59.6951 10.18 59.2851 10.32 58.8651 10.42L61.8051 14.71C61.9651 14.93 62.1351 15.1 62.3151 15.22C62.5151 15.32 62.7251 15.4 62.9451 15.46V16H58.3551V15.46C58.6151 15.46 58.7451 15.37 58.7451 15.19C58.7451 14.99 58.5951 14.68 58.2951 14.26L55.9251 10.72H51.7551V15.01C51.7551 15.17 51.8151 15.29 51.9351 15.37C52.0751 15.43 52.2051 15.46 52.3251 15.46V16H48.3351V15.46C48.6951 15.46 48.8751 15.31 48.8751 15.01V3.79C48.8751 3.49 48.6951 3.34 48.3351 3.34V2.8H56.6151ZM67.125 15.46C67.225 15.44 67.305 15.4 67.365 15.34C67.445 15.28 67.485 15.14 67.485 14.92V3.94C67.485 3.66 67.455 3.49 67.395 3.43C67.355 3.37 67.265 3.34 67.125 3.34V2.8H71.295V3.34C71.095 3.34 70.995 3.43 70.995 3.61C70.995 3.69 71.025 3.8 71.085 3.94C71.165 4.06 71.275 4.24 71.415 4.48L75.075 11.23L78.765 4.51C78.905 4.27 79.015 4.08 79.095 3.94C79.175 3.78 79.215 3.67 79.215 3.61C79.215 3.43 79.135 3.34 78.975 3.34V2.8H83.205V3.34C83.105 3.34 83.005 3.37 82.905 3.43C82.825 3.47 82.785 3.57 82.785 3.73V15.01C82.785 15.17 82.825 15.29 82.905 15.37C83.005 15.43 83.105 15.46 83.205 15.46V16H79.725V15.46C80.145 15.46 80.325 15.31 80.265 15.01V6.58H80.205L75.105 16H74.865L70.035 6.58H70.065H70.005V15.01C70.005 15.31 70.175 15.46 70.515 15.46V16H67.125V15.46ZM91.9554 15.01C91.9554 15.17 91.9954 15.29 92.0754 15.37C92.1754 15.43 92.2854 15.46 92.4054 15.46V16H88.6254V15.46C88.7454 15.46 88.8454 15.43 88.9254 15.37C89.0254 15.29 89.0754 15.17 89.0754 15.01V3.79C89.0754 3.63 89.0254 3.52 88.9254 3.46C88.8454 3.38 88.7454 3.34 88.6254 3.34V2.8H92.4054V3.34C92.2854 3.34 92.1754 3.38 92.0754 3.46C91.9954 3.52 91.9554 3.63 91.9554 3.79V8.02H99.9954V3.79C99.9954 3.63 99.9454 3.52 99.8454 3.46C99.7654 3.38 99.6654 3.34 99.5454 3.34V2.8H103.325V3.34C103.205 3.34 103.095 3.38 102.995 3.46C102.915 3.52 102.875 3.63 102.875 3.79V15.01C102.875 15.17 102.915 15.29 102.995 15.37C103.095 15.43 103.205 15.46 103.325 15.46V16H99.5454V15.46C99.6654 15.46 99.7654 15.43 99.8454 15.37C99.9454 15.29 99.9954 15.17 99.9954 15.01V10.48H91.9554V15.01ZM115.145 4.84C114.505 4.84 113.875 4.95 113.255 5.17C112.655 5.37 112.115 5.67 111.635 6.07C111.155 6.45 110.765 6.92 110.465 7.48C110.185 8.04 110.045 8.68 110.045 9.4C110.045 10.12 110.185 10.76 110.465 11.32C110.765 11.88 111.155 12.36 111.635 12.76C112.115 13.14 112.655 13.44 113.255 13.66C113.875 13.86 114.505 13.96 115.145 13.96C115.785 13.96 116.405 13.86 117.005 13.66C117.625 13.44 118.175 13.14 118.655 12.76C119.135 12.36 119.515 11.88 119.795 11.32C120.095 10.76 120.245 10.12 120.245 9.4C120.245 8.68 120.095 8.04 119.795 7.48C119.515 6.92 119.135 6.45 118.655 6.07C118.175 5.67 117.625 5.37 117.005 5.17C116.405 4.95 115.785 4.84 115.145 4.84ZM115.145 2.62C116.245 2.62 117.275 2.76 118.235 3.04C119.215 3.32 120.065 3.74 120.785 4.3C121.505 4.86 122.075 5.57 122.495 6.43C122.915 7.27 123.125 8.26 123.125 9.4C123.125 10.54 122.915 11.54 122.495 12.4C122.075 13.24 121.505 13.94 120.785 14.5C120.065 15.06 119.215 15.47 118.235 15.73C117.275 15.97 116.245 16.09 115.145 16.09C114.045 16.09 113.005 15.97 112.025 15.73C111.065 15.47 110.225 15.06 109.505 14.5C108.785 13.94 108.215 13.24 107.795 12.4C107.375 11.54 107.165 10.54 107.165 9.4C107.165 8.26 107.375 7.27 107.795 6.43C108.215 5.57 108.785 4.86 109.505 4.3C110.225 3.74 111.065 3.32 112.025 3.04C113.005 2.76 114.045 2.62 115.145 2.62ZM130.965 2.8V3.34C130.505 3.34 130.275 3.49 130.275 3.79V13.78H138.375C138.615 13.78 138.815 13.73 138.975 13.63C139.135 13.51 139.215 13.35 139.215 13.15H139.755V16.3H139.215C139.215 16.14 139.135 16.05 138.975 16.03C138.815 16.01 138.615 16 138.375 16H126.615V15.46C127.135 15.46 127.395 15.31 127.395 15.01V3.79C127.395 3.49 127.135 3.34 126.615 3.34V2.8H130.965ZM155.045 5.59C155.045 5.21 154.735 5.02 154.115 5.02H146.795V8.02H151.415C151.755 8.02 152.005 8 152.165 7.96C152.325 7.9 152.405 7.76 152.405 7.54H152.945V10.72H152.345C152.405 10.5 152.325 10.37 152.105 10.33C151.885 10.27 151.575 10.24 151.175 10.24H146.795V13.78H154.475C154.715 13.78 154.915 13.73 155.075 13.63C155.235 13.51 155.315 13.36 155.315 13.18H155.855V16.33H155.315C155.315 16.15 155.235 16.05 155.075 16.03C154.915 16.01 154.715 16 154.475 16H143.465V15.46C143.565 15.46 143.665 15.43 143.765 15.37C143.865 15.29 143.915 15.17 143.915 15.01V3.79C143.915 3.63 143.865 3.52 143.765 3.46C143.665 3.38 143.565 3.34 143.465 3.34V2.8H154.115C154.735 2.8 155.045 2.62 155.045 2.26H155.585V5.59H155.045Z" fill="#080C20"/>
</svg>
