<svg width="86" height="38" viewBox="0 0 86 38" fill="none" xmlns="http://www.w3.org/2000/svg">
<g opacity="0.8">
<path d="M18.3679 12.6885V10.014C18.3679 9.04303 17.7811 8.18206 16.8824 7.79731L0.285156 0.964355V2.4482L15.0851 8.54841C15.5986 8.74992 15.5986 9.48269 15.0851 9.6842L0.285156 15.7844V21.7381L9.19814 18.056L15.0668 20.4741C15.5803 20.6756 15.5803 21.4083 15.0668 21.6098L0.285156 27.7101V37.1444L16.8824 30.3113C17.7811 29.9451 18.3679 29.0657 18.3679 28.0948V21.9579C18.3679 20.987 17.7811 20.126 16.8824 19.7413L10.9954 17.3232L16.8824 14.9051C17.7811 14.5387 18.3679 13.6594 18.3679 12.6885Z" fill="black"/>
<path d="M31.5913 10.0139L32.9118 15.1615L34.3972 10.0139H35.8094L37.2033 15.1615L38.5787 10.0139H39.6242L37.8453 16.2241H36.5246L35.0577 10.8749L33.5352 16.2241H32.1966L30.4727 10.0139H31.5913Z" fill="black"/>
<path fill-rule="evenodd" clip-rule="evenodd" d="M41.475 14.5205C41.31 14.1907 41.2551 13.9343 41.2183 13.4214V13.403H45.9865C45.9865 11.0948 44.9596 9.8125 43.0707 9.8125C41.2918 9.8125 40.0996 11.1315 40.0996 13.0916C40.0996 15.1067 41.2918 16.389 43.1625 16.389C44.6661 16.389 45.6748 15.6379 45.9683 14.3006H44.8129C44.5744 15.0884 44.0244 15.4914 43.1807 15.4914C42.4837 15.4914 41.7868 15.1067 41.475 14.5205ZM43.0707 10.7284C43.6759 10.7284 44.2626 11.0215 44.5561 11.5162C44.7211 11.7726 44.7946 12.0291 44.8496 12.5787H41.2368C41.365 11.388 42.0253 10.7284 43.0707 10.7284Z" fill="black"/>
<path fill-rule="evenodd" clip-rule="evenodd" d="M47.0332 7.65088H48.0969V10.9483C48.5371 10.2155 49.1424 9.86747 50.0225 9.86747C51.5629 9.86747 52.6634 11.2048 52.6634 13.1282C52.6634 15.0517 51.6179 16.3524 50.0408 16.3524C49.1788 16.3524 48.6104 16.0043 48.0601 15.1983V16.2242H47.0332V7.65088ZM48.1151 13.0916C48.1151 14.4472 48.8853 15.4547 49.894 15.4547C50.8663 15.4547 51.5079 14.5388 51.5079 13.1282C51.5079 11.6444 50.8663 10.7284 49.8576 10.7284C48.8489 10.7284 48.1151 11.6994 48.1151 13.0916Z" fill="black"/>
<path d="M56.3668 15.418C55.2664 15.418 54.5697 14.7036 54.5879 13.6044H53.4143C53.396 15.2531 54.5879 16.3889 56.3486 16.3889C58.0358 16.3889 59.228 15.3997 59.228 14.0074C59.228 12.9816 58.6777 12.2855 57.6508 12.029C58.4942 11.8092 59.118 11.0031 59.118 10.1238C59.118 8.80485 57.999 7.88892 56.4036 7.88892C54.6797 7.88892 53.6342 8.87814 53.561 10.5818H54.6979C54.7347 9.48266 55.3399 8.85978 56.3854 8.85978C57.3573 8.85978 57.999 9.39105 57.999 10.2154C57.999 11.0947 57.3388 11.5893 56.2019 11.5893H55.9266V12.5419C56.0919 12.5236 56.1836 12.5236 56.2936 12.5236C57.3938 12.5236 58.0725 13.0548 58.0725 13.9342C58.0725 14.7952 57.3573 15.418 56.3668 15.418Z" fill="black"/>
<path d="M31.646 22.8189H30.5273V21.9579H31.646C31.6643 20.9321 31.6828 20.7123 31.8295 20.3459C32.0495 19.7597 32.618 19.4482 33.4617 19.4482C33.5705 19.4482 33.6715 19.4562 33.8067 19.4669C33.8765 19.4724 33.9549 19.4787 34.0487 19.4849V20.4375C33.9864 20.4198 33.9332 20.4063 33.8854 20.3962C33.8073 20.3795 33.7442 20.3715 33.6843 20.3677C33.6293 20.3642 33.5766 20.3642 33.5167 20.3642C33.15 20.3642 32.8747 20.5474 32.7832 20.8771C32.7097 21.097 32.7097 21.2618 32.7097 21.9397H34.0487V22.8006H32.7097V28.1498H31.646V22.8189Z" fill="black"/>
<path fill-rule="evenodd" clip-rule="evenodd" d="M37.2764 28.3512C39.1103 28.3512 40.3025 27.0505 40.3025 25.0538C40.3025 23.112 39.0921 21.793 37.3132 21.7747C35.4975 21.7747 34.2871 23.0753 34.2871 25.0355C34.2871 27.0139 35.4793 28.3512 37.2764 28.3512ZM37.2582 27.4536C36.121 27.4536 35.4426 26.5193 35.4426 24.9988C35.4426 23.5699 36.1395 22.6723 37.2764 22.6723C38.4137 22.6723 39.1471 23.6066 39.1471 25.0721C39.1471 26.5193 38.3951 27.4536 37.2582 27.4536Z" fill="black"/>
<path d="M43.6039 28.3147C44.4161 28.3147 45.109 28.0092 45.4378 27.4962V28.1865H46.465V21.9764H45.4013V24.944C45.4013 26.0432 45.3646 26.3912 45.1811 26.6843C44.8879 27.1423 44.3741 27.4171 43.7874 27.4171C42.8887 27.4171 42.4485 26.8675 42.4485 25.6951V21.958H41.3848V25.4936C41.3848 26.5378 41.4583 26.9591 41.6968 27.3621C42.0635 27.9666 42.7419 28.3147 43.6039 28.3147Z" fill="black"/>
<path d="M50.6827 21.8296C49.839 21.8296 49.2706 22.0861 48.7939 22.7089V21.9762H47.7852V28.1863H48.8671V25.2186C48.8671 24.1011 48.9038 23.7714 49.0871 23.4783C49.3805 23.002 49.8758 22.7272 50.481 22.7272C51.3797 22.7272 51.8197 23.2585 51.8197 24.4492V28.1863H52.9019V24.6507C52.9019 23.6065 52.8284 23.1852 52.5901 22.7822C52.2231 22.1776 51.5447 21.8296 50.6827 21.8296Z" fill="black"/>
<path fill-rule="evenodd" clip-rule="evenodd" d="M58.5681 28.1497V27.1422C58.0179 27.9665 57.4309 28.2962 56.5875 28.2962C55.0285 28.2962 53.9648 26.9956 53.9648 25.0904C53.9648 23.1486 55.0468 21.8113 56.6057 21.8113C57.4859 21.8113 58.0911 22.1594 58.5313 22.8921V19.5947H59.595V28.1497H58.5681ZM55.1203 25.0904C55.1203 26.501 55.7437 27.417 56.7339 27.417C57.7426 27.417 58.5131 26.4094 58.5131 25.0538C58.5131 23.6615 57.7976 22.6907 56.7892 22.6907C55.7805 22.6907 55.1203 23.6066 55.1203 25.0904Z" fill="black"/>
<path fill-rule="evenodd" clip-rule="evenodd" d="M64.8769 27.3986C64.9136 27.7284 64.9319 27.8383 64.9869 28.168H66.0691C65.9038 27.4902 65.8488 26.8307 65.8673 25.585C65.8856 23.6066 65.8306 23.1486 65.5006 22.6906C65.0971 22.0861 64.3634 21.7747 63.4282 21.7747C62.6763 21.7747 61.9793 22.0128 61.539 22.4158C61.1356 22.7639 60.9888 23.1486 60.8788 23.918H61.9975C62.0525 23.0753 62.5113 22.6723 63.4282 22.6723C63.9049 22.6723 64.2902 22.8188 64.5101 23.057C64.7301 23.2951 64.7669 23.5333 64.7851 24.3393C64.0884 24.3943 63.685 24.4493 63.3365 24.5042C62.7862 24.5775 62.3095 24.6691 62.016 24.7607C61.0991 25.0355 60.6406 25.6033 60.6406 26.4277C60.6406 27.5451 61.539 28.3146 62.878 28.3146C63.7399 28.3146 64.3452 28.0398 64.8769 27.3986ZM63.043 27.4536C62.2728 27.4536 61.7958 27.0872 61.7958 26.4643C61.7958 25.6583 62.5663 25.3285 64.7851 25.182V25.4018C64.7851 26.0979 64.7119 26.4643 64.5284 26.7391C64.2167 27.2154 63.7032 27.4536 63.043 27.4536Z" fill="black"/>
<path d="M68.6733 21.9763H70.0672V22.8373H68.6733V26.153C68.6733 26.8491 68.6915 26.9774 68.8018 27.1239C68.9118 27.2705 69.1685 27.3621 69.462 27.3621C69.682 27.3621 69.8837 27.3254 70.0672 27.2705V28.1864C69.572 28.278 69.3885 28.2963 69.1317 28.2963C68.5633 28.2963 68.068 28.0399 67.8113 27.6185C67.6646 27.3438 67.6096 27.0873 67.6096 26.4828V22.8189H66.4727V21.9579H67.6096V20.4558H68.6733V21.9763Z" fill="black"/>
<path d="M72.0852 19.613H71.0215V20.8587H72.0852V19.613Z" fill="black"/>
<path d="M72.1028 28.1865V21.9763H71.0391V28.1865H72.1028Z" fill="black"/>
<path fill-rule="evenodd" clip-rule="evenodd" d="M79.1814 25.0538C79.1814 27.0505 77.9892 28.3512 76.1554 28.3512C74.3579 28.3512 73.166 27.0139 73.166 25.0355C73.166 23.0753 74.3765 21.7747 76.1921 21.7747C77.971 21.793 79.1814 23.112 79.1814 25.0538ZM74.3215 24.9988C74.3215 26.5193 74.9999 27.4536 76.1371 27.4536C77.274 27.4536 78.026 26.5193 78.026 25.0721C78.026 23.6066 77.2923 22.6723 76.1554 22.6723C75.0181 22.6723 74.3215 23.5699 74.3215 24.9988Z" fill="black"/>
<path d="M81.3095 22.662C81.7787 22.0732 82.3396 21.8296 83.1616 21.8296C84.0236 21.8296 84.7023 22.1776 85.069 22.7822C85.3075 23.1852 85.3807 23.6065 85.3807 24.6507V28.1863H84.3171V24.4492C84.3171 23.2585 83.8768 22.7272 82.9784 22.7272C82.3732 22.7272 81.8779 23.002 81.5844 23.4783C81.4009 23.7714 81.3645 24.1011 81.3645 25.2186V28.1863H80.3008V21.9762H81.3095V22.662Z" fill="black"/>
</g>
</svg>
