<svg width="321" height="38" viewBox="0 0 321 38" fill="none" xmlns="http://www.w3.org/2000/svg">
<path fill-rule="evenodd" clip-rule="evenodd" d="M4.38456 0C6.80676 0 8.7696 1.96318 8.7696 4.38473C8.7696 6.80628 6.80676 8.76898 4.38456 8.76898C1.96284 8.76898 0 6.80628 0 4.38473C0 1.96318 1.96284 0 4.38456 0ZM4.38456 1.46158C2.7704 1.46158 1.46168 2.7702 1.46168 4.38473C1.46168 5.99878 2.7704 7.30788 4.38456 7.30788C5.9992 7.30788 7.30792 5.99878 7.30792 4.38473C7.30792 2.7702 5.9992 1.46158 4.38456 1.46158ZM23.3857 4.38491C23.3857 6.50584 21.8793 8.27536 19.8778 8.68151V14.7029C21.5961 15.0516 22.9494 16.4051 23.298 18.1233H29.3385C29.7312 16.5286 31.1709 15.346 32.8866 15.346C34.905 15.346 36.5405 16.9819 36.5405 19.0002C36.5405 21.018 34.905 22.6539 32.8866 22.6539C31.1709 22.6539 29.7313 21.4714 29.3385 19.877H23.298C22.9492 21.5951 21.596 22.9484 19.8778 23.2971V29.3187C21.596 29.6673 22.9493 31.0204 23.298 32.7385H29.3386C29.7314 31.1442 31.1709 29.9618 32.8866 29.9618C34.905 29.9618 36.5405 31.5977 36.5405 33.6155C36.5405 35.6333 34.905 37.2692 32.8866 37.2692C31.1709 37.2692 29.7313 36.0866 29.3385 34.4922H23.298C22.8917 36.4936 21.1225 38 19.0011 38C16.5794 38 14.6165 36.0368 14.6165 33.6153C14.6165 31.4939 16.1229 29.7247 18.1244 29.3187V23.2971C16.4063 22.9484 15.053 21.5951 14.7043 19.877H8.68188C8.33316 21.595 6.98002 22.9482 5.26171 23.297V29.3187C7.26344 29.7249 8.7696 31.4941 8.7696 33.6153C8.7696 36.0368 6.80676 38 4.38456 38C1.96284 38 0 36.0368 0 33.6153C0 31.4939 1.50632 29.7247 3.50789 29.3187V23.2971C1.50632 22.8909 0 21.1213 0 19C0 16.5785 1.96284 14.6153 4.38456 14.6153C6.50644 14.6153 8.27581 16.1218 8.68194 18.1233H14.7042C15.0529 16.4051 16.4062 15.0516 18.1244 14.7029V8.68151C16.1229 8.27536 14.6165 6.50584 14.6165 4.38491C14.6165 1.96289 16.5794 0.00019 19.0011 0.00019C21.4228 0.00019 23.3857 1.96289 23.3857 4.38491ZM238.209 30.6299C244.491 30.6299 249.787 25.3958 249.787 19.115H238.209V22.317H245.538C244.368 25.2727 241.596 27.3663 238.209 27.3663C233.652 27.3663 230.265 23.6717 230.265 19.115C230.265 14.5582 233.652 10.8636 238.209 10.8636C240.549 10.8636 242.52 11.7873 243.936 13.3267L246.4 10.8636C244.368 8.89312 241.596 7.6 238.209 7.6C231.866 7.6 226.57 12.7725 226.57 19.115C226.57 25.95 231.374 30.6299 238.209 30.6299ZM61.1124 30.322V7.90789H57.4791V30.322H61.1124ZM85.6918 30.322V11.1099H93.9437V7.90789H73.8681V11.1099H82.12V30.322H85.6918ZM126.406 27.12V30.322H106.699V7.90789H126.406V11.1099H110.333V17.5139H126.159V20.716H110.333V27.12H126.406ZM143.595 30.322V20.716H151.847L155.85 30.322H159.606L155.48 20.3465C158.005 19.4228 159.606 17.0213 159.606 14.3119C159.606 10.802 157.02 7.90789 153.14 7.90789H139.962V30.322H143.595ZM143.595 17.5139H152.771C154.68 17.5139 155.973 16.2208 155.973 14.3119C155.973 12.403 154.68 11.1099 152.771 11.1099H143.595V17.5139ZM176.365 30.322V7.90789H172.732V30.322H176.365ZM193.924 13.2651V30.322H190.291V7.90789H193.37L209.504 24.9648V7.90789H213.137V30.322H210.058L193.924 13.2651ZM266.668 28.5055C266.668 29.6755 265.714 30.6299 264.544 30.6299C263.374 30.6299 262.419 29.6755 262.419 28.5055C262.419 27.3355 263.374 26.3811 264.544 26.3811C265.714 26.3811 266.668 27.3355 266.668 28.5055ZM284.351 7.90789H280.717V30.322H284.351V7.90789ZM321 19.115C321 25.3958 315.704 30.6299 309.423 30.6299C302.587 30.6299 297.784 25.95 297.784 19.115C297.784 12.7725 303.08 7.6 309.423 7.6C316.258 7.6 321 12.2799 321 19.115ZM309.423 27.3663C304.866 27.3663 301.479 23.6717 301.479 19.115C301.479 14.5582 304.866 10.8636 309.423 10.8636C313.98 10.8636 317.305 14.5582 317.305 19.115C317.305 23.6717 313.98 27.3663 309.423 27.3663Z" fill="black"/>
</svg>
