<svg width="20" height="20" viewBox="0 0 20 20" fill="none" xmlns="http://www.w3.org/2000/svg">
<path fill-rule="evenodd" clip-rule="evenodd" d="M0 10C0 4.5 4.47 0 10 0C15.52 0 20 4.48 20 10C20 15.52 15.52 20 10 20C4.48 20 0 15.52 0 10ZM11.91 6C11.5 4.57 10.83 3.23 10 2.03C9.17 3.23 8.5 4.57 8.09 6H11.91ZM6 6H3.08C4.03886 4.32721 5.5748 3.06149 7.4 2.44C6.8 3.55 6.35 4.75 6 6ZM12.5 10C12.5 10.68 12.43 11.34 12.34 12H7.66C7.56 11.34 7.5 10.68 7.5 10C7.5 9.32 7.56 8.65 7.66 8H12.34C12.43 8.65 12.5 9.32 12.5 10ZM14.5 10C14.5 10.68 14.44 11.34 14.36 12H17.74C17.9 11.36 18 10.69 18 10C18 9.31 17.9 8.64 17.74 8H14.36C14.44 8.66 14.5 9.32 14.5 10ZM13.97 14C13.65 15.25 13.19 16.45 12.59 17.56C14.4141 16.932 15.9512 15.6683 16.92 14H13.97ZM8.09 14C8.5 15.43 9.17 16.76 10 17.96C10.83 16.76 11.5 15.43 11.91 14H8.09ZM6 14H3.08C4.04485 15.6677 5.57862 16.9317 7.4 17.56C6.8 16.45 6.35 15.25 6 14ZM2.26 12C2.1 11.36 2 10.69 2 10C2 9.31 2.1 8.64 2.26 8H5.64C5.56 8.66 5.5 9.32 5.5 10C5.5 10.68 5.56 11.34 5.64 12H2.26ZM16.92 6H13.97C13.657 4.76146 13.1936 3.5659 12.59 2.44C14.43 3.07 15.96 4.34 16.92 6Z" fill="#3859FF"/>
</svg>
