<svg width="18" height="20" viewBox="0 0 18 20" fill="none" xmlns="http://www.w3.org/2000/svg">
<path d="M8.71414 19.0897C7.7523 19.093 6.96893 18.3178 6.96224 17.356L6.9553 16.1151C3.51223 16.864 2.78595 14.6548 2.78595 14.6548C2.22279 13.2248 1.41148 12.8447 1.41148 12.8447C0.288683 12.0759 1.49653 12.0915 1.49653 12.0915C2.73822 12.1783 3.39248 13.3671 3.39248 13.3671C4.4962 15.2587 6.28804 14.712 6.99348 14.3962C7.10456 13.5961 7.42561 13.0504 7.77964 12.7406C5.03072 12.4282 2.14123 11.3661 2.14123 6.62495C2.14123 5.27392 2.62455 4.17019 3.41677 3.30335C3.28835 2.99097 2.8649 1.7328 3.53651 0.0286044C3.53651 0.0286044 4.57603 -0.303733 6.94055 1.29718C7.95027 1.02247 8.99187 0.882425 10.0383 0.880691C11.0891 0.885037 12.1485 1.02213 13.1377 1.29718C15.5005 -0.303713 16.5383 0.0286044 16.5383 0.0286044C17.2117 1.73365 16.7882 2.99185 16.6598 3.30335C17.4529 4.16933 17.9336 5.27392 17.9336 6.62496C17.9336 11.3783 15.038 12.4247 12.283 12.731C12.7265 13.1154 13.1221 13.8677 13.1221 15.0227C13.1221 16.6791 13.1161 17.3551 13.1161 17.3551C13.1094 18.3164 12.3272 19.0916 11.3659 19.0897H8.71412H8.71414Z" fill="#3859FF"/>
</svg>
