<svg width="23" height="19" viewBox="0 0 23 19" fill="none" xmlns="http://www.w3.org/2000/svg">
<path fill-rule="evenodd" clip-rule="evenodd" d="M20.5984 5.24266C20.5984 11.4631 15.8664 18.6333 7.21226 18.6333C4.64747 18.632 2.13958 17.8969 0 16.5195C0.372447 16.5601 0.746806 16.5819 1.12157 16.5847C3.25004 16.5847 5.31366 15.8712 6.96558 14.564C4.93113 14.5152 3.15812 13.2014 2.56727 11.3048C2.8595 11.361 3.1567 11.3891 3.45458 11.3886C3.87495 11.39 4.29343 11.3336 4.69758 11.221C2.47577 10.7508 0.898408 8.82574 0.920775 6.61153C1.57428 6.91254 2.3053 7.11358 3.05395 7.14231C0.979471 5.72461 0.349309 3.00459 1.59773 0.856705C3.95136 3.78031 7.48602 5.57245 11.295 5.77345C11.214 5.42197 11.1732 5.0628 11.1736 4.70257C11.1396 2.1386 13.2462 0.0332139 15.8788 0C17.1861 0.000596969 18.4325 0.538202 19.3114 1.48061C20.3693 1.27735 21.3816 0.892688 22.3013 0.344544C21.9571 1.42638 21.2211 2.34964 20.2303 2.9426C21.1647 2.83364 22.0763 2.58553 22.9333 2.20695C22.3051 3.14595 21.5106 3.96887 20.5869 4.63738C20.5955 4.84225 20.5984 5.04711 20.5984 5.24266Z" fill="#3859FF"/>
</svg>
