<?xml version="1.0" encoding="UTF-8"?>
<svg width="254px" height="24px" viewBox="0 0 254 24" version="1.1" xmlns="http://www.w3.org/2000/svg" xmlns:xlink="http://www.w3.org/1999/xlink">
    <!-- Generator: Sketch 60 (88103) - https://sketch.com -->
    <title>Logo</title>
    <desc>Created with Sketch.</desc>
    <g id="Logo" stroke="none" stroke-width="1" fill="none" fill-rule="evenodd">
        <path d="M184.473501,17.1616129 L184.473501,5.83232258 L187.271069,3 L200,3 L200,5.83232258 L188.669852,5.83232258 L187.271069,7.3901 L187.261349,15.6212359 L188.632047,17.1616129 L197.062554,17.1616129 L197.062554,12.913129 L192.866203,12.913129 L192.866203,10.0808065 L199.860122,10.0808065 L199.860122,19.9939355 L187.245865,19.9939355 L184.473501,17.1616129 Z M170.485665,19.9939355 L166.988705,19.9939355 L156.497828,6.57767063 L156.497828,19.9939355 L153.700261,19.9939355 L153.700261,3 L157.19722,3 L167.688097,16.4162649 L167.688097,3 L170.485665,3 L170.485665,19.9939355 Z M118.031277,11.4969677 L124.185925,20 L120.688966,19.9939355 L114.534318,11.4969677 L114.534318,8.66464517 L121.528236,8.66464517 L121.528236,5.83232258 L111.736751,5.83232258 L111.736751,19.9939355 L108.939183,19.9939355 L108.939183,3 L122.92692,3 L124.325804,4.4158904 L124.325804,10.080671 L122.92692,11.4969677 L118.031277,11.4969677 Z M85.159861,17.1616129 L94.9513467,17.1616129 L94.9513467,19.9939355 L82.3622937,19.9939355 L82.3622937,3 L94.9513467,3 L94.9513467,5.83232258 L85.159861,5.83232258 L85.159861,10.0808065 L94.9513467,10.0808065 L94.9513467,12.913129 L85.159861,12.913129 L85.159861,17.1616129 Z M61.3805387,5.83232258 L55.785404,5.83232258 L55.785404,3 L69.7732407,3 L69.7732407,5.83232258 L64.178106,5.83232258 L64.178106,19.9939355 L61.3805387,19.9939355 L61.3805387,5.83232258 Z M39,19.9939355 L39,3 L41.7975673,3 L41.7975673,19.9939355 L39,19.9939355 Z M136.914857,19.9939355 L136.914857,3 L139.712424,3 L139.712424,19.9939355 L136.914857,19.9939355 Z" id="Combined-Shape" fill="#FFFFFF"></path>
        <path d="M11.96,0 C13.4843059,0 14.72,1.23982685 14.72,2.76923077 C14.72,4.1413829 13.7253481,5.28044468 12.42,5.50017303 L12.42,9.26905774 C13.5757522,9.46360472 14.4879406,10.3788439 14.6818391,11.5384615 L18.4460083,11.5384615 C18.6591127,10.4851199 19.5872794,9.69230769 20.7,9.69230769 C21.9702549,9.69230769 23,10.7254967 23,12 C23,13.2745033 21.9702549,14.3076923 20.7,14.3076923 C19.5872794,14.3076923 18.6591127,13.5148801 18.4460083,12.4615385 L14.6818391,12.4615385 C14.4879406,13.6211561 13.5757522,14.5363953 12.42,14.7309423 L12.42,18.499827 C13.5757522,18.6943739 14.4879406,19.6096131 14.6818391,20.7692308 L18.4460083,20.7692308 C18.6591127,19.7158891 19.5872794,18.9230769 20.7,18.9230769 C21.9702549,18.9230769 23,19.956266 23,21.2307692 C23,22.5052725 21.9702549,23.5384615 20.7,23.5384615 C19.5872794,23.5384615 18.6591127,22.7456494 18.4460083,21.6923077 L14.6818391,21.6923077 C14.4628432,23.0020215 13.3275783,24 11.96,24 C10.4356941,24 9.2,22.7601732 9.2,21.2307692 C9.2,19.8586171 10.1946519,18.7195553 11.5,18.499827 L11.5,14.7309423 C10.3442478,14.5363953 9.43205937,13.6211561 9.23816088,12.4615385 L5.48183912,12.4615385 C5.28794063,13.6211561 4.37575224,14.5363953 3.22,14.7309423 L3.22,18.499827 C4.52534814,18.7195553 5.52,19.8586171 5.52,21.2307692 C5.52,22.7601732 4.28430591,24 2.76,24 C1.23569409,24 -2.14939178e-13,22.7601732 -2.14939178e-13,21.2307692 C-2.14939178e-13,19.8586171 0.994651863,18.7195553 2.3,18.499827 L2.3,14.7309423 C0.994651863,14.5112139 -2.14939178e-13,13.3721521 -2.14939178e-13,12 C-2.14939178e-13,10.4705961 1.23569409,9.23076923 2.76,9.23076923 C4.12757829,9.23076923 5.2628432,10.2287477 5.48183912,11.5384615 L9.23816088,11.5384615 C9.43205937,10.3788439 10.3442478,9.46360472 11.5,9.26905774 L11.5,5.50017303 C10.1946519,5.28044468 9.2,4.1413829 9.2,2.76923077 C9.2,1.23982685 10.4356941,0 11.96,0 Z M2.76,0 C4.28430591,0 5.52,1.23982685 5.52,2.76923077 C5.52,4.29863469 4.28430591,5.53846154 2.76,5.53846154 C1.23569409,5.53846154 -1.78967952e-13,4.29863469 -1.78967952e-13,2.76923077 C-1.78967952e-13,1.23982685 1.23569409,0 2.76,0 Z M2.76,4.61538462 C3.77620394,4.61538462 4.6,3.78883338 4.6,2.76923077 C4.6,1.74962815 3.77620394,0.923076923 2.76,0.923076923 C1.74379606,0.923076923 0.92,1.74962815 0.92,2.76923077 C0.92,3.78883338 1.74379606,4.61538462 2.76,4.61538462 Z" id="Combined-Shape" fill="#FFFFFF"></path>
        <polygon id="Stroke-1" fill="#FFFFFF" fill-rule="nonzero" points="228 3 228 20 225 20 225 3"></polygon>
        <polygon id="Stroke-3" fill="#FFFFFF" fill-rule="nonzero" points="213 17 213 20 210 20 210 17"></polygon>
        <path d="M251.155746,3 L241.844254,3 L239,5.95486412 L239,17.0451359 L241.844254,20 L251.155746,20 L254,17.0451359 L254,5.95486412 L251.155746,3 Z M250.026091,5.83333333 L251.272727,7.12845 L251.272727,15.8712667 L250.025818,17.1666667 L242.973909,17.1666667 L241.727273,15.87155 L241.727273,7.12816667 L242.973636,5.83333333 L250.026091,5.83333333 Z" id="Stroke-5" fill="#FFFFFF" fill-rule="nonzero"></path>
    </g>
</svg>