<?xml version="1.0" encoding="UTF-8"?>
<svg width="169px" height="20px" viewBox="0 0 169 20" version="1.1" xmlns="http://www.w3.org/2000/svg" xmlns:xlink="http://www.w3.org/1999/xlink">
    <title>形状结合</title>
    <g id="Page-1" stroke="none" stroke-width="1" fill="none" fill-rule="evenodd">
        <g id="home" transform="translate(-20.000000, -20.000000)" fill="#000000">
            <path d="M30.0036995,20.0001 C31.278687,20.0001 32.312082,21.0331 32.312082,22.30785 C32.312082,23.4238667 31.519401,24.3550207 30.465982,24.5690686 L30.465982,27.7385319 C31.3703727,27.9223011 32.0825808,28.6346467 32.2659939,29.5388725 L35.4462953,29.5378985 C35.6533069,28.6989225 36.4110741,28.07685 37.3141194,28.07685 C38.3767756,28.07685 39.2378548,28.93785 39.2378548,30.0001 C39.2378548,31.0621 38.3767756,31.9231 37.3141194,31.9231 C36.4107648,31.9231 35.6527877,31.3006012 35.4460827,30.4613428 L32.2659939,30.4611275 C32.0825808,31.3653533 31.3703727,32.0776989 30.465982,32.2614681 L30.465982,35.4310213 C31.370043,35.6146826 32.0820615,36.3264289 32.2657931,37.2301443 L35.4462953,37.230245 C35.6533069,36.3914225 36.4110741,35.76935 37.3141194,35.76935 C38.3767756,35.76935 39.2378548,36.63035 39.2378548,37.69235 C39.2378548,38.75435 38.3767756,39.61535 37.3141194,39.61535 C36.4107648,39.61535 35.6527877,38.9928512 35.4460827,38.1535928 L32.2659939,38.1533775 C32.0522905,39.2069341 31.1207115,40 30.0036995,40 C28.7287121,40 27.695317,38.96675 27.695317,37.69225 C27.695317,36.575665 28.4884943,35.6444422 29.5424062,35.4308205 L29.5424062,32.2616689 C28.6375457,32.0782183 27.9248851,31.3656829 27.7414051,30.4611275 L24.5709265,30.4611275 C24.3875105,31.3653533 23.6752821,32.0776989 22.7707471,32.2614681 L22.7707471,35.4310213 C23.8243341,35.6450249 24.6170151,36.5760144 24.6170151,37.69225 C24.6170151,38.96675 23.5836201,40 22.3083825,40 C21.0333951,40 20,38.96675 20,37.69225 C20,36.5760144 20.792681,35.6450249 21.8461,35.4310213 L21.8461,32.2614681 C20.792681,32.0474168 20,31.1162356 20,30 C20,28.7255 21.0333951,27.69225 22.3083825,27.69225 C23.4256136,27.69225 24.3572198,28.4853159 24.5709265,29.5388725 L27.7414051,29.5388725 C27.9248851,28.6343171 28.6375457,27.9217817 29.5424062,27.7383311 L29.5424062,24.5692694 C28.4884943,24.3556035 27.695317,23.424216 27.695317,22.30785 C27.695317,21.0331 28.7287121,20.0001 30.0036995,20.0001 Z M145.412419,24 C147.195601,24 148.654569,24.6805911 149.724478,25.7176823 L149.724478,25.7176823 L148.427618,27.0140463 C147.681924,26.2038188 146.644436,25.7176823 145.412419,25.7176823 C143.013228,25.7176823 141.230046,27.6622283 141.230046,30.0605017 C141.230046,32.4587751 143.013228,34.4033211 145.412419,34.4033211 C147.195601,34.4033211 148.654569,33.3014117 149.270577,31.7457749 L149.270577,31.7457749 L145.412419,31.7457749 L145.412419,30.0605017 L151.50766,30.0605017 C151.50766,33.3662299 148.719412,36.1210034 145.412419,36.1210034 C141.813633,36.1210034 139.284756,33.6579118 139.284756,30.0605017 C139.284756,26.7223644 142.073005,24 145.412419,24 Z M159.276972,33.8847755 C159.89298,33.8847755 160.395514,34.3871165 160.395514,35.0028894 C160.395514,35.6186623 159.89298,36.1210034 159.276972,36.1210034 C158.660964,36.1210034 158.15843,35.6186623 158.15843,35.0028894 C158.15843,34.3871165 158.660964,33.8847755 159.276972,33.8847755 Z M182.904759,24 C186.503545,24 189,26.4630916 189,30.0605017 C189,33.3662299 186.211751,36.1210034 182.904759,36.1210034 C179.305973,36.1210034 176.777096,33.6579118 176.777096,30.0605017 C176.777096,26.7223644 179.565345,24 182.904759,24 Z M52.1744375,24.1620455 L52.1744375,35.9589579 L50.2615693,35.9589579 L50.2615693,24.1620455 L52.1744375,24.1620455 Z M69.4594582,24.1620455 L69.4594582,25.8473187 L65.1149779,25.8473187 L65.1149779,35.9589579 L63.2345312,35.9589579 L63.2345312,25.8473187 L58.8900509,25.8473187 L58.8900509,24.1620455 L69.4594582,24.1620455 Z M86.54995,24.1620455 L86.54995,25.8473187 L78.0879398,25.8473187 L78.0879398,29.2178651 L86.420264,29.2178651 L86.420264,30.9031383 L78.0879398,30.9031383 L78.0879398,34.2736847 L86.54995,34.2736847 L86.54995,35.9589579 L76.1750716,35.9589579 L76.1750716,24.1620455 L86.54995,24.1620455 Z M100.625243,24.1620455 C102.667797,24.1620455 104.0295,25.6852732 104.0295,27.5325919 C104.0295,28.9585923 103.186541,30.2225472 101.85726,30.7086837 L101.85726,30.7086837 L104.0295,35.9589579 L102.051789,35.9589579 L99.9443913,30.9031383 L95.599911,30.9031383 L95.599911,35.9589579 L93.6870428,35.9589579 L93.6870428,24.1620455 Z M112.85251,24.1620455 L112.85251,35.9589579 L110.939642,35.9589579 L110.939642,24.1620455 L112.85251,24.1620455 Z M121.805207,24.1620455 L130.299638,33.1393662 L130.299638,24.1620455 L132.212507,24.1620455 L132.212507,35.9589579 L130.591432,35.9589579 L122.097,26.9816372 L122.097,35.9589579 L120.184132,35.9589579 L120.184132,24.1620455 L121.805207,24.1620455 Z M169.704847,24.1620455 L169.704847,35.9589579 L167.791978,35.9589579 L167.791978,24.1620455 L169.704847,24.1620455 Z M182.904759,25.7176823 C180.505568,25.7176823 178.722386,27.6622283 178.722386,30.0605017 C178.722386,32.4587751 180.505568,34.4033211 182.904759,34.4033211 C185.30395,34.4033211 187.05471,32.4587751 187.05471,30.0605017 C187.05471,27.6622283 185.30395,25.7176823 182.904759,25.7176823 Z M100.430714,25.8473187 L95.599911,25.8473187 L95.599911,29.2178651 L100.430714,29.2178651 C101.43578,29.2178651 102.116632,28.537274 102.116632,27.5325919 C102.116632,26.5279098 101.43578,25.8473187 100.430714,25.8473187 L100.430714,25.8473187 Z M22.3083825,20 C23.5836201,20 24.6170151,21.03325 24.6170151,22.30775 C24.6170151,23.58225 23.5836201,24.61525 22.3083825,24.61525 C21.0333951,24.61525 20,23.58225 20,22.30775 C20,21.03325 21.0333951,20 22.3083825,20 Z M22.3083825,20.76925 C21.4585576,20.76925 20.7695442,21.458 20.7695442,22.30775 C20.7695442,23.15725 21.4585576,23.84625 22.3083825,23.84625 C23.1584575,23.84625 23.8474709,23.15725 23.8474709,22.30775 C23.8474709,21.458 23.1584575,20.76925 22.3083825,20.76925 Z" id="形状结合"></path>
        </g>
    </g>
</svg>